M48
; DRILL file {KiCad 7.0.7} date 2025 December 18, Thursday 09:43:10
; FORMAT={-:-/ absolute / inch / decimal}
; #@! TF.CreationDate,2025-12-18T09:43:10+01:00
; #@! TF.GenerationSoftware,Kicad,Pcbnew,7.0.7
; #@! TF.FileFunction,Plated,1,2,PTH
FMAT,2
INCH
; #@! TA.AperFunction,Plated,PTH,ViaDrill
T1C0.0118
; #@! TA.AperFunction,Plated,PTH,ViaDrill
T2C0.0157
; #@! TA.AperFunction,Plated,PTH,ComponentDrill
T3C0.0236
; #@! TA.AperFunction,Plated,PTH,ComponentDrill
T4C0.0350
; #@! TA.AperFunction,Plated,PTH,ComponentDrill
T5C0.0394
; #@! TA.AperFunction,Plated,PTH,ComponentDrill
T6C0.0402
; #@! TA.AperFunction,Plated,PTH,ComponentDrill
T7C0.0433
; #@! TA.AperFunction,Plated,PTH,ComponentDrill
T8C0.0512
; #@! TA.AperFunction,Plated,PTH,ComponentDrill
T9C0.0598
; #@! TA.AperFunction,Plated,PTH,ComponentDrill
T10C0.0618
; #@! TA.AperFunction,Plated,PTH,ComponentDrill
T11C0.0787
; #@! TA.AperFunction,Plated,PTH,ComponentDrill
T12C0.1063
%
G90
G05
T1
X3.7323Y-3.5472
X3.8661Y-4.0236
X3.9016Y-4.0118
X3.9685Y-3.2362
X4.0591Y-3.9843
X4.1063Y-3.5669
X4.1063Y-3.6496
X4.4291Y-4.3307
T2
X3.1929Y-5.6063
X3.3031Y-5.4646
X3.3071Y-5.2677
X3.3228Y-5.0984
X3.4567Y-5.6614
X3.4606Y-5.7559
X3.5197Y-5.0276
X3.5433Y-5.1654
X3.5512Y-6.0709
X3.6654Y-5.5512
X3.748Y-5.1575
X3.8071Y-5.5551
X3.9567Y-3.6142
X4.0118Y-4.2677
X4.1102Y-4.9134
X4.1102Y-5.3858
X4.122Y-3.8543
X4.1496Y-4.8425
X4.1575Y-4.4803
X4.1693Y-4.7047
X4.378Y-4.5394
X4.378Y-5.315
X4.378Y-5.6654
X4.3898Y-4.8622
X4.7047Y-4.8976
X4.7244Y-5.0827
X4.7717Y-4.685
X4.8425Y-4.8858
X4.8425Y-5.0551
T4
X3.1543Y-3.2894
X3.1543Y-3.3694
X3.1543Y-3.4494
X3.1543Y-3.5294
X3.2244Y-3.2494
X3.2244Y-3.3294
X3.2244Y-3.4094
X3.2244Y-3.4894
T5
X3.5302Y-2.7559
X3.7271Y-2.7559
X4.2628Y-5.2425
X4.2628Y-5.3425
X4.2628Y-5.4425
X4.2628Y-5.5425
X4.2628Y-5.6425
X4.2628Y-5.7425
X4.2628Y-5.8425
X4.2638Y-4.1087
X4.2638Y-4.2087
X4.2638Y-4.3087
X4.2638Y-4.4087
X4.2638Y-4.5087
X4.2638Y-4.6087
X4.2638Y-4.7087
X4.305Y-2.9331
X4.5019Y-2.9331
T6
X4.611Y-4.0827
X4.611Y-4.1827
X4.611Y-4.2827
X4.611Y-4.3827
X4.611Y-4.4827
X4.611Y-4.5827
X4.611Y-4.6827
X4.611Y-4.7827
X4.611Y-4.8827
X4.611Y-4.9827
X4.611Y-5.0827
X4.611Y-5.1827
X4.611Y-5.2827
X4.611Y-5.3827
X4.611Y-5.4827
X4.611Y-5.5827
X4.611Y-5.6827
X4.611Y-5.7827
X4.611Y-5.8827
X4.611Y-5.9827
X4.861Y-4.0917
X4.961Y-4.0917
X5.061Y-4.0917
X5.311Y-4.0827
X5.311Y-4.1827
X5.311Y-4.2827
X5.311Y-4.3827
X5.311Y-4.4827
X5.311Y-4.5827
X5.311Y-4.6827
X5.311Y-4.7827
X5.311Y-4.8827
X5.311Y-4.9827
X5.311Y-5.0827
X5.311Y-5.1827
X5.311Y-5.2827
X5.311Y-5.3827
X5.311Y-5.4827
X5.311Y-5.5827
X5.311Y-5.6827
X5.311Y-5.7827
X5.311Y-5.8827
X5.311Y-5.9827
T7
X4.0323Y-1.8701
X4.0323Y-2.3031
X4.1323Y-1.8701
X4.1323Y-2.3031
X4.2323Y-1.8701
X4.2323Y-2.3031
X4.6063Y-3.7992
X4.7756Y-2.689
X4.7756Y-2.8228
X4.7756Y-2.9567
X4.9213Y-2.7559
X4.9213Y-2.8898
X5.0063Y-3.7992
T8
X4.626Y-3.3858
X4.8228Y-3.3858
T9
X5.2953Y-3.5992
X5.2953Y-3.7992
T10
X3.1894Y-3.0692
X3.1894Y-3.7094
T11
X4.5039Y-1.5512
X4.8661Y-1.5512
T12
X3.4311Y-1.9449
X3.4311Y-2.2283
X4.8366Y-1.9449
X4.8366Y-2.2283
T3
G00X3.1732Y-1.8209
M15
G01X3.2165Y-1.8209
M16
G05
G00X3.1732Y-2.3524
M15
G01X3.2165Y-2.3524
M16
G05
G00X5.0945Y-1.8209
M15
G01X5.0512Y-1.8209
M16
G05
G00X5.0945Y-2.3524
M15
G01X5.0512Y-2.3524
M16
G05
T0
M30
