%TF.GenerationSoftware,KiCad,Pcbnew,7.0.7*%
%TF.CreationDate,2025-12-18T09:43:08+01:00*%
%TF.ProjectId,joint_controller_board_rev_b,6a6f696e-745f-4636-9f6e-74726f6c6c65,rev?*%
%TF.SameCoordinates,Original*%
%TF.FileFunction,Paste,Top*%
%TF.FilePolarity,Positive*%
%FSLAX46Y46*%
G04 Gerber Fmt 4.6, Leading zero omitted, Abs format (unit mm)*
G04 Created by KiCad (PCBNEW 7.0.7) date 2025-12-18 09:43:08*
%MOMM*%
%LPD*%
G01*
G04 APERTURE LIST*
G04 Aperture macros list*
%AMRoundRect*
0 Rectangle with rounded corners*
0 $1 Rounding radius*
0 $2 $3 $4 $5 $6 $7 $8 $9 X,Y pos of 4 corners*
0 Add a 4 corners polygon primitive as box body*
4,1,4,$2,$3,$4,$5,$6,$7,$8,$9,$2,$3,0*
0 Add four circle primitives for the rounded corners*
1,1,$1+$1,$2,$3*
1,1,$1+$1,$4,$5*
1,1,$1+$1,$6,$7*
1,1,$1+$1,$8,$9*
0 Add four rect primitives between the rounded corners*
20,1,$1+$1,$2,$3,$4,$5,0*
20,1,$1+$1,$4,$5,$6,$7,0*
20,1,$1+$1,$6,$7,$8,$9,0*
20,1,$1+$1,$8,$9,$2,$3,0*%
G04 Aperture macros list end*
%ADD10RoundRect,0.250000X0.262500X0.450000X-0.262500X0.450000X-0.262500X-0.450000X0.262500X-0.450000X0*%
%ADD11RoundRect,0.250000X-0.262500X-0.450000X0.262500X-0.450000X0.262500X0.450000X-0.262500X0.450000X0*%
%ADD12RoundRect,0.250000X0.475000X-0.250000X0.475000X0.250000X-0.475000X0.250000X-0.475000X-0.250000X0*%
%ADD13RoundRect,0.250000X-0.650000X1.000000X-0.650000X-1.000000X0.650000X-1.000000X0.650000X1.000000X0*%
%ADD14RoundRect,0.125000X-0.537500X-0.125000X0.537500X-0.125000X0.537500X0.125000X-0.537500X0.125000X0*%
%ADD15RoundRect,0.250000X-0.250000X-0.475000X0.250000X-0.475000X0.250000X0.475000X-0.250000X0.475000X0*%
%ADD16RoundRect,0.250000X-0.475000X0.250000X-0.475000X-0.250000X0.475000X-0.250000X0.475000X0.250000X0*%
%ADD17RoundRect,0.250000X1.000000X0.900000X-1.000000X0.900000X-1.000000X-0.900000X1.000000X-0.900000X0*%
%ADD18RoundRect,0.250000X0.450000X-0.262500X0.450000X0.262500X-0.450000X0.262500X-0.450000X-0.262500X0*%
%ADD19R,0.750000X0.250000*%
%ADD20RoundRect,0.150000X-0.825000X-0.150000X0.825000X-0.150000X0.825000X0.150000X-0.825000X0.150000X0*%
G04 APERTURE END LIST*
D10*
%TO.C,R4*%
X85825000Y-144000000D03*
X84000000Y-144000000D03*
%TD*%
D11*
%TO.C,R5*%
X89587500Y-149000000D03*
X91412500Y-149000000D03*
%TD*%
D12*
%TO.C,C5*%
X109775000Y-85710000D03*
X109775000Y-83810000D03*
%TD*%
D13*
%TO.C,D3*%
X135000000Y-69600000D03*
X135000000Y-73600000D03*
%TD*%
D14*
%TO.C,U_WDT1*%
X88862500Y-132025000D03*
X88862500Y-132675000D03*
X88862500Y-133325000D03*
X88862500Y-133975000D03*
X91137500Y-133975000D03*
X91137500Y-133325000D03*
X91137500Y-132675000D03*
X91137500Y-132025000D03*
%TD*%
D11*
%TO.C,R2*%
X89675000Y-144000000D03*
X91500000Y-144000000D03*
%TD*%
D15*
%TO.C,C6*%
X135300000Y-86000000D03*
X137200000Y-86000000D03*
%TD*%
D16*
%TO.C,C2*%
X80000000Y-132050000D03*
X80000000Y-133950000D03*
%TD*%
D11*
%TO.C,R3*%
X84000000Y-149000000D03*
X85825000Y-149000000D03*
%TD*%
D12*
%TO.C,C3*%
X92275000Y-86410000D03*
X92275000Y-84510000D03*
%TD*%
D17*
%TO.C,D2*%
X98650000Y-39000000D03*
X94350000Y-39000000D03*
%TD*%
D18*
%TO.C,R6*%
X99200000Y-75712500D03*
X99200000Y-73887500D03*
%TD*%
D19*
%TO.C,U4*%
X88425000Y-108345000D03*
X88425000Y-108845000D03*
X88425000Y-109345000D03*
X88425000Y-109845000D03*
X91525000Y-109845000D03*
X91525000Y-109345000D03*
X91525000Y-108845000D03*
X91525000Y-108345000D03*
%TD*%
D11*
%TO.C,R1*%
X95000000Y-144000000D03*
X96825000Y-144000000D03*
%TD*%
D20*
%TO.C,U_DRV1*%
X98525000Y-81095000D03*
X98525000Y-82365000D03*
X98525000Y-83635000D03*
X98525000Y-84905000D03*
X103475000Y-84905000D03*
X103475000Y-83635000D03*
X103475000Y-82365000D03*
X103475000Y-81095000D03*
%TD*%
M02*
