%TF.GenerationSoftware,KiCad,Pcbnew,7.0.7*%
%TF.CreationDate,2025-12-10T14:06:47+01:00*%
%TF.ProjectId,joint_controller_board_rev_b,6a6f696e-745f-4636-9f6e-74726f6c6c65,rev?*%
%TF.SameCoordinates,Original*%
%TF.FileFunction,Legend,Bot*%
%TF.FilePolarity,Positive*%
%FSLAX46Y46*%
G04 Gerber Fmt 4.6, Leading zero omitted, Abs format (unit mm)*
G04 Created by KiCad (PCBNEW 7.0.7) date 2025-12-10 14:06:47*
%MOMM*%
%LPD*%
G01*
G04 APERTURE LIST*
G04 Aperture macros list*
%AMRoundRect*
0 Rectangle with rounded corners*
0 $1 Rounding radius*
0 $2 $3 $4 $5 $6 $7 $8 $9 X,Y pos of 4 corners*
0 Add a 4 corners polygon primitive as box body*
4,1,4,$2,$3,$4,$5,$6,$7,$8,$9,$2,$3,0*
0 Add four circle primitives for the rounded corners*
1,1,$1+$1,$2,$3*
1,1,$1+$1,$4,$5*
1,1,$1+$1,$6,$7*
1,1,$1+$1,$8,$9*
0 Add four rect primitives between the rounded corners*
20,1,$1+$1,$2,$3,$4,$5,0*
20,1,$1+$1,$4,$5,$6,$7,0*
20,1,$1+$1,$6,$7,$8,$9,0*
20,1,$1+$1,$8,$9,$2,$3,0*%
G04 Aperture macros list end*
%ADD10R,2.000000X2.000000*%
%ADD11C,2.000000*%
%ADD12C,3.500000*%
%ADD13C,2.400000*%
%ADD14O,1.700000X1.700000*%
%ADD15R,1.700000X1.700000*%
%ADD16O,1.800000X1.800000*%
%ADD17O,1.500000X1.500000*%
%ADD18C,4.100000*%
%ADD19RoundRect,1.025000X1.025000X-1.025000X1.025000X1.025000X-1.025000X1.025000X-1.025000X-1.025000X0*%
%ADD20R,2.000000X0.900000*%
%ADD21R,1.905000X2.000000*%
%ADD22O,1.905000X2.000000*%
%ADD23R,3.000000X3.000000*%
%ADD24C,3.000000*%
%ADD25R,2.200000X2.200000*%
%ADD26O,2.200000X2.200000*%
%ADD27C,2.600000*%
%ADD28C,2.300000*%
%ADD29C,1.500000*%
%ADD30R,1.500000X1.500000*%
%ADD31C,3.250000*%
%ADD32R,1.600000X1.600000*%
%ADD33C,1.600000*%
%ADD34R,1.800000X1.800000*%
%ADD35RoundRect,1.025000X-1.025000X1.025000X-1.025000X-1.025000X1.025000X-1.025000X1.025000X1.025000X0*%
G04 APERTURE END LIST*
%LPC*%
D10*
%TO.C,C1*%
X94667677Y-70000000D03*
D11*
X89667677Y-70000000D03*
%TD*%
D12*
%TO.C,F1*%
X114400000Y-39400000D03*
X123600000Y-39400000D03*
D13*
X119000000Y-38200000D03*
%TD*%
D14*
%TO.C,U1*%
X123470000Y-103930000D03*
D15*
X126010000Y-103930000D03*
D14*
X128550000Y-103930000D03*
X117120000Y-151960000D03*
X117120000Y-149420000D03*
D15*
X117120000Y-146880000D03*
D14*
X117120000Y-144340000D03*
X117120000Y-141800000D03*
X117120000Y-139260000D03*
X117120000Y-136720000D03*
D15*
X117120000Y-134180000D03*
D14*
X117120000Y-131640000D03*
X117120000Y-129100000D03*
X117120000Y-126560000D03*
X117120000Y-124020000D03*
D15*
X117120000Y-121480000D03*
D14*
X117120000Y-118940000D03*
X117120000Y-116400000D03*
X117120000Y-113860000D03*
X117120000Y-111320000D03*
D15*
X117120000Y-108780000D03*
D14*
X117120000Y-106240000D03*
X117120000Y-103700000D03*
X134900000Y-103700000D03*
X134900000Y-106240000D03*
D15*
X134900000Y-108780000D03*
D14*
X134900000Y-111320000D03*
X134900000Y-113860000D03*
X134900000Y-116400000D03*
X134900000Y-118940000D03*
D15*
X134900000Y-121480000D03*
D14*
X134900000Y-124020000D03*
X134900000Y-126560000D03*
X134900000Y-129100000D03*
X134900000Y-131640000D03*
D15*
X134900000Y-134180000D03*
D14*
X134900000Y-136720000D03*
X134900000Y-139260000D03*
X134900000Y-141800000D03*
X134900000Y-144340000D03*
D15*
X134900000Y-146880000D03*
D14*
X134900000Y-149420000D03*
X134900000Y-151960000D03*
D16*
X123285000Y-151830000D03*
D17*
X123585000Y-148800000D03*
X128435000Y-148800000D03*
D16*
X128735000Y-151830000D03*
%TD*%
D15*
%TO.C,J4*%
X108300000Y-119600000D03*
D14*
X108300000Y-117060000D03*
X108300000Y-114520000D03*
X108300000Y-111980000D03*
X108300000Y-109440000D03*
X108300000Y-106900000D03*
X108300000Y-104360000D03*
%TD*%
D18*
%TO.C,J3*%
X87150000Y-56600000D03*
D19*
X87150000Y-49400000D03*
D20*
X81150000Y-46250000D03*
X81150000Y-59750000D03*
%TD*%
D15*
%TO.C,J5*%
X108275000Y-148400000D03*
D14*
X108275000Y-145860000D03*
X108275000Y-143320000D03*
X108275000Y-140780000D03*
X108275000Y-138240000D03*
X108275000Y-135700000D03*
X108275000Y-133160000D03*
%TD*%
D21*
%TO.C,Q1*%
X107500000Y-58500000D03*
D22*
X104960000Y-58500000D03*
X102420000Y-58500000D03*
%TD*%
D23*
%TO.C,J1*%
X134500000Y-96500000D03*
D24*
X134500000Y-91420000D03*
%TD*%
D25*
%TO.C,D1*%
X117000000Y-96500000D03*
D26*
X127160000Y-96500000D03*
%TD*%
D27*
%TO.C,L1*%
X122500000Y-86000000D03*
X117500000Y-86000000D03*
%TD*%
D28*
%TO.C,J6*%
X81010000Y-77958000D03*
X81010000Y-94218000D03*
D29*
X81900000Y-82536000D03*
X80120000Y-83552000D03*
X81900000Y-84568000D03*
X80120000Y-85584000D03*
X81900000Y-86600000D03*
X80120000Y-87616000D03*
X81900000Y-88632000D03*
D30*
X80120000Y-89648000D03*
D31*
X77580000Y-79738000D03*
X77580000Y-92438000D03*
%TD*%
D32*
%TO.C,C4*%
X109347349Y-74500000D03*
D33*
X112847349Y-74500000D03*
%TD*%
D34*
%TO.C,U2*%
X121300000Y-68300000D03*
D16*
X125000000Y-70000000D03*
X121300000Y-71700000D03*
X125000000Y-73400000D03*
X121300000Y-75100000D03*
%TD*%
D21*
%TO.C,Q2*%
X107500000Y-47500000D03*
D22*
X104960000Y-47500000D03*
X102420000Y-47500000D03*
%TD*%
D18*
%TO.C,J2*%
X122850000Y-56600000D03*
D35*
X122850000Y-49400000D03*
D20*
X128850000Y-59750000D03*
X128850000Y-46250000D03*
%TD*%
%LPD*%
M02*
