%TF.GenerationSoftware,KiCad,Pcbnew,7.0.7*%
%TF.CreationDate,2025-12-10T14:06:47+01:00*%
%TF.ProjectId,joint_controller_board_rev_b,6a6f696e-745f-4636-9f6e-74726f6c6c65,rev?*%
%TF.SameCoordinates,Original*%
%TF.FileFunction,Soldermask,Top*%
%TF.FilePolarity,Negative*%
%FSLAX46Y46*%
G04 Gerber Fmt 4.6, Leading zero omitted, Abs format (unit mm)*
G04 Created by KiCad (PCBNEW 7.0.7) date 2025-12-10 14:06:47*
%MOMM*%
%LPD*%
G01*
G04 APERTURE LIST*
G04 Aperture macros list*
%AMRoundRect*
0 Rectangle with rounded corners*
0 $1 Rounding radius*
0 $2 $3 $4 $5 $6 $7 $8 $9 X,Y pos of 4 corners*
0 Add a 4 corners polygon primitive as box body*
4,1,4,$2,$3,$4,$5,$6,$7,$8,$9,$2,$3,0*
0 Add four circle primitives for the rounded corners*
1,1,$1+$1,$2,$3*
1,1,$1+$1,$4,$5*
1,1,$1+$1,$6,$7*
1,1,$1+$1,$8,$9*
0 Add four rect primitives between the rounded corners*
20,1,$1+$1,$2,$3,$4,$5,0*
20,1,$1+$1,$4,$5,$6,$7,0*
20,1,$1+$1,$6,$7,$8,$9,0*
20,1,$1+$1,$8,$9,$2,$3,0*%
G04 Aperture macros list end*
%ADD10RoundRect,0.125000X-0.537500X-0.125000X0.537500X-0.125000X0.537500X0.125000X-0.537500X0.125000X0*%
%ADD11R,1.450000X0.450000*%
%ADD12RoundRect,0.150000X-0.825000X-0.150000X0.825000X-0.150000X0.825000X0.150000X-0.825000X0.150000X0*%
%ADD13RoundRect,0.250000X0.262500X0.450000X-0.262500X0.450000X-0.262500X-0.450000X0.262500X-0.450000X0*%
%ADD14RoundRect,0.250000X-0.262500X-0.450000X0.262500X-0.450000X0.262500X0.450000X-0.262500X0.450000X0*%
%ADD15RoundRect,0.250000X0.475000X-0.250000X0.475000X0.250000X-0.475000X0.250000X-0.475000X-0.250000X0*%
%ADD16RoundRect,0.250000X-0.650000X1.000000X-0.650000X-1.000000X0.650000X-1.000000X0.650000X1.000000X0*%
%ADD17R,2.000000X2.000000*%
%ADD18C,2.000000*%
%ADD19C,3.500000*%
%ADD20C,2.400000*%
%ADD21R,1.700000X3.500000*%
%ADD22O,1.700000X1.700000*%
%ADD23R,1.700000X1.700000*%
%ADD24R,3.500000X1.700000*%
%ADD25O,1.800000X1.800000*%
%ADD26O,1.500000X1.500000*%
%ADD27C,4.100000*%
%ADD28RoundRect,1.025000X1.025000X-1.025000X1.025000X1.025000X-1.025000X1.025000X-1.025000X-1.025000X0*%
%ADD29R,2.000000X0.900000*%
%ADD30RoundRect,0.250000X-0.250000X-0.475000X0.250000X-0.475000X0.250000X0.475000X-0.250000X0.475000X0*%
%ADD31RoundRect,0.250000X-0.475000X0.250000X-0.475000X-0.250000X0.475000X-0.250000X0.475000X0.250000X0*%
%ADD32R,1.905000X2.000000*%
%ADD33O,1.905000X2.000000*%
%ADD34R,3.000000X3.000000*%
%ADD35C,3.000000*%
%ADD36R,2.200000X2.200000*%
%ADD37O,2.200000X2.200000*%
%ADD38RoundRect,0.250000X-1.000000X-0.900000X1.000000X-0.900000X1.000000X0.900000X-1.000000X0.900000X0*%
%ADD39RoundRect,0.250000X0.450000X-0.262500X0.450000X0.262500X-0.450000X0.262500X-0.450000X-0.262500X0*%
%ADD40C,2.600000*%
%ADD41C,2.300000*%
%ADD42C,1.500000*%
%ADD43R,1.500000X1.500000*%
%ADD44C,3.250000*%
%ADD45R,1.600000X1.600000*%
%ADD46C,1.600000*%
%ADD47R,1.800000X1.800000*%
%ADD48RoundRect,1.025000X-1.025000X1.025000X-1.025000X-1.025000X1.025000X-1.025000X1.025000X1.025000X0*%
G04 APERTURE END LIST*
D10*
%TO.C,U_WDT1*%
X88862500Y-132025000D03*
X88862500Y-132675000D03*
X88862500Y-133325000D03*
X88862500Y-133975000D03*
X91137500Y-133975000D03*
X91137500Y-133325000D03*
X91137500Y-132675000D03*
X91137500Y-132025000D03*
%TD*%
D11*
%TO.C,U4*%
X87775000Y-108120000D03*
X87775000Y-108770000D03*
X87775000Y-109420000D03*
X87775000Y-110070000D03*
X92175000Y-110070000D03*
X92175000Y-109420000D03*
X92175000Y-108770000D03*
X92175000Y-108120000D03*
%TD*%
D12*
%TO.C,U_DRV1*%
X98525000Y-81095000D03*
X98525000Y-82365000D03*
X98525000Y-83635000D03*
X98525000Y-84905000D03*
X103475000Y-84905000D03*
X103475000Y-83635000D03*
X103475000Y-82365000D03*
X103475000Y-81095000D03*
%TD*%
D13*
%TO.C,R4*%
X85825000Y-144000000D03*
X84000000Y-144000000D03*
%TD*%
D14*
%TO.C,R5*%
X89587500Y-149000000D03*
X91412500Y-149000000D03*
%TD*%
D15*
%TO.C,C5*%
X109775000Y-85710000D03*
X109775000Y-83810000D03*
%TD*%
D16*
%TO.C,D3*%
X135000000Y-69600000D03*
X135000000Y-73600000D03*
%TD*%
D17*
%TO.C,C1*%
X94667677Y-70000000D03*
D18*
X89667677Y-70000000D03*
%TD*%
D19*
%TO.C,F1*%
X114400000Y-39400000D03*
X123600000Y-39400000D03*
D20*
X119000000Y-38200000D03*
%TD*%
D21*
%TO.C,U1*%
X123470000Y-103030000D03*
D22*
X123470000Y-103930000D03*
D21*
X126010000Y-103030000D03*
D23*
X126010000Y-103930000D03*
D21*
X128550000Y-103030000D03*
D22*
X128550000Y-103930000D03*
D24*
X116220000Y-151960000D03*
D22*
X117120000Y-151960000D03*
D24*
X116220000Y-149420000D03*
D22*
X117120000Y-149420000D03*
D24*
X116220000Y-146880000D03*
D23*
X117120000Y-146880000D03*
D24*
X116220000Y-144340000D03*
D22*
X117120000Y-144340000D03*
D24*
X116220000Y-141800000D03*
D22*
X117120000Y-141800000D03*
D24*
X116220000Y-139260000D03*
D22*
X117120000Y-139260000D03*
D24*
X116220000Y-136720000D03*
D22*
X117120000Y-136720000D03*
D24*
X116220000Y-134180000D03*
D23*
X117120000Y-134180000D03*
D24*
X116220000Y-131640000D03*
D22*
X117120000Y-131640000D03*
D24*
X116220000Y-129100000D03*
D22*
X117120000Y-129100000D03*
D24*
X116220000Y-126560000D03*
D22*
X117120000Y-126560000D03*
D24*
X116220000Y-124020000D03*
D22*
X117120000Y-124020000D03*
D24*
X116220000Y-121480000D03*
D23*
X117120000Y-121480000D03*
D24*
X116220000Y-118940000D03*
D22*
X117120000Y-118940000D03*
D24*
X116220000Y-116400000D03*
D22*
X117120000Y-116400000D03*
D24*
X116220000Y-113860000D03*
D22*
X117120000Y-113860000D03*
D24*
X116220000Y-111320000D03*
D22*
X117120000Y-111320000D03*
D24*
X116220000Y-108780000D03*
D23*
X117120000Y-108780000D03*
D24*
X116220000Y-106240000D03*
D22*
X117120000Y-106240000D03*
D24*
X116220000Y-103700000D03*
D22*
X117120000Y-103700000D03*
D24*
X135800000Y-103700000D03*
D22*
X134900000Y-103700000D03*
D24*
X135800000Y-106240000D03*
D22*
X134900000Y-106240000D03*
D24*
X135800000Y-108780000D03*
D23*
X134900000Y-108780000D03*
D24*
X135800000Y-111320000D03*
D22*
X134900000Y-111320000D03*
D24*
X135800000Y-113860000D03*
D22*
X134900000Y-113860000D03*
D24*
X135800000Y-116400000D03*
D22*
X134900000Y-116400000D03*
D24*
X135800000Y-118940000D03*
D22*
X134900000Y-118940000D03*
D24*
X135800000Y-121480000D03*
D23*
X134900000Y-121480000D03*
D24*
X135800000Y-124020000D03*
D22*
X134900000Y-124020000D03*
D24*
X135800000Y-126560000D03*
D22*
X134900000Y-126560000D03*
D24*
X135800000Y-129100000D03*
D22*
X134900000Y-129100000D03*
D24*
X135800000Y-131640000D03*
D22*
X134900000Y-131640000D03*
D24*
X135800000Y-134180000D03*
D23*
X134900000Y-134180000D03*
D24*
X135800000Y-136720000D03*
D22*
X134900000Y-136720000D03*
D24*
X135800000Y-139260000D03*
D22*
X134900000Y-139260000D03*
D24*
X135800000Y-141800000D03*
D22*
X134900000Y-141800000D03*
D24*
X135800000Y-144340000D03*
D22*
X134900000Y-144340000D03*
D24*
X135800000Y-146880000D03*
D23*
X134900000Y-146880000D03*
D24*
X135800000Y-149420000D03*
D22*
X134900000Y-149420000D03*
D24*
X135800000Y-151960000D03*
D22*
X134900000Y-151960000D03*
D25*
X123285000Y-151830000D03*
D26*
X123585000Y-148800000D03*
X128435000Y-148800000D03*
D25*
X128735000Y-151830000D03*
%TD*%
D23*
%TO.C,J4*%
X108300000Y-119600000D03*
D22*
X108300000Y-117060000D03*
X108300000Y-114520000D03*
X108300000Y-111980000D03*
X108300000Y-109440000D03*
X108300000Y-106900000D03*
X108300000Y-104360000D03*
%TD*%
D27*
%TO.C,J3*%
X87150000Y-56600000D03*
D28*
X87150000Y-49400000D03*
D29*
X81150000Y-46250000D03*
X81150000Y-59750000D03*
%TD*%
D14*
%TO.C,R2*%
X89675000Y-144000000D03*
X91500000Y-144000000D03*
%TD*%
D23*
%TO.C,J5*%
X108275000Y-148400000D03*
D22*
X108275000Y-145860000D03*
X108275000Y-143320000D03*
X108275000Y-140780000D03*
X108275000Y-138240000D03*
X108275000Y-135700000D03*
X108275000Y-133160000D03*
%TD*%
D30*
%TO.C,C6*%
X135300000Y-86000000D03*
X137200000Y-86000000D03*
%TD*%
D31*
%TO.C,C2*%
X80000000Y-132050000D03*
X80000000Y-133950000D03*
%TD*%
D14*
%TO.C,R3*%
X84000000Y-149000000D03*
X85825000Y-149000000D03*
%TD*%
D32*
%TO.C,Q1*%
X107500000Y-58500000D03*
D33*
X104960000Y-58500000D03*
X102420000Y-58500000D03*
%TD*%
D15*
%TO.C,C3*%
X92275000Y-86410000D03*
X92275000Y-84510000D03*
%TD*%
D34*
%TO.C,J1*%
X134500000Y-96500000D03*
D35*
X134500000Y-91420000D03*
%TD*%
D36*
%TO.C,D1*%
X117000000Y-96500000D03*
D37*
X127160000Y-96500000D03*
%TD*%
D38*
%TO.C,D2*%
X94350000Y-39000000D03*
X98650000Y-39000000D03*
%TD*%
D39*
%TO.C,R6*%
X99200000Y-75712500D03*
X99200000Y-73887500D03*
%TD*%
D40*
%TO.C,L1*%
X122500000Y-86000000D03*
X117500000Y-86000000D03*
%TD*%
D41*
%TO.C,J6*%
X81010000Y-77958000D03*
X81010000Y-94218000D03*
D42*
X81900000Y-82536000D03*
X80120000Y-83552000D03*
X81900000Y-84568000D03*
X80120000Y-85584000D03*
X81900000Y-86600000D03*
X80120000Y-87616000D03*
X81900000Y-88632000D03*
D43*
X80120000Y-89648000D03*
D44*
X77580000Y-79738000D03*
X77580000Y-92438000D03*
%TD*%
D45*
%TO.C,C4*%
X109347349Y-74500000D03*
D46*
X112847349Y-74500000D03*
%TD*%
D47*
%TO.C,U2*%
X121300000Y-68300000D03*
D25*
X125000000Y-70000000D03*
X121300000Y-71700000D03*
X125000000Y-73400000D03*
X121300000Y-75100000D03*
%TD*%
D14*
%TO.C,R1*%
X95000000Y-144000000D03*
X96825000Y-144000000D03*
%TD*%
D32*
%TO.C,Q2*%
X107500000Y-47500000D03*
D33*
X104960000Y-47500000D03*
X102420000Y-47500000D03*
%TD*%
D27*
%TO.C,J2*%
X122850000Y-56600000D03*
D48*
X122850000Y-49400000D03*
D29*
X128850000Y-59750000D03*
X128850000Y-46250000D03*
%TD*%
M02*
