%TF.GenerationSoftware,KiCad,Pcbnew,7.0.7*%
%TF.CreationDate,2025-01-13T16:20:32+01:00*%
%TF.ProjectId,PICO board v4.0,5049434f-2062-46f6-9172-642076342e30,rev?*%
%TF.SameCoordinates,Original*%
%TF.FileFunction,Copper,L1,Top*%
%TF.FilePolarity,Positive*%
%FSLAX46Y46*%
G04 Gerber Fmt 4.6, Leading zero omitted, Abs format (unit mm)*
G04 Created by KiCad (PCBNEW 7.0.7) date 2025-01-13 16:20:32*
%MOMM*%
%LPD*%
G01*
G04 APERTURE LIST*
%TA.AperFunction,ComponentPad*%
%ADD10C,2.000000*%
%TD*%
%TA.AperFunction,ComponentPad*%
%ADD11O,1.700000X1.700000*%
%TD*%
%TA.AperFunction,SMDPad,CuDef*%
%ADD12R,3.500000X1.700000*%
%TD*%
%TA.AperFunction,ComponentPad*%
%ADD13R,1.700000X1.700000*%
%TD*%
%TA.AperFunction,SMDPad,CuDef*%
%ADD14R,1.700000X3.500000*%
%TD*%
%TA.AperFunction,ComponentPad*%
%ADD15R,1.500000X1.500000*%
%TD*%
%TA.AperFunction,ComponentPad*%
%ADD16C,1.500000*%
%TD*%
%TA.AperFunction,ComponentPad*%
%ADD17C,2.300000*%
%TD*%
%TA.AperFunction,ComponentPad*%
%ADD18R,3.000000X3.000000*%
%TD*%
%TA.AperFunction,ComponentPad*%
%ADD19C,3.000000*%
%TD*%
%TA.AperFunction,ComponentPad*%
%ADD20R,2.200000X2.200000*%
%TD*%
%TA.AperFunction,ComponentPad*%
%ADD21O,2.200000X2.200000*%
%TD*%
%TA.AperFunction,ViaPad*%
%ADD22C,0.500000*%
%TD*%
%TA.AperFunction,Conductor*%
%ADD23C,0.250000*%
%TD*%
%TA.AperFunction,Conductor*%
%ADD24C,1.000000*%
%TD*%
%TA.AperFunction,Conductor*%
%ADD25C,0.500000*%
%TD*%
%TA.AperFunction,Conductor*%
%ADD26C,1.500000*%
%TD*%
G04 APERTURE END LIST*
D10*
%TO.P,SW5,1,1*%
%TO.N,GP13_2*%
X115050000Y-35350000D03*
X121550000Y-35350000D03*
%TO.P,SW5,2,2*%
%TO.N,GND*%
X115050000Y-39850000D03*
X121550000Y-39850000D03*
%TD*%
D11*
%TO.P,U1,1,GPIO0*%
%TO.N,GP0*%
X134900000Y-151960000D03*
D12*
X135800000Y-151960000D03*
D11*
%TO.P,U1,2,GPIO1*%
%TO.N,GP1*%
X134900000Y-149420000D03*
D12*
X135800000Y-149420000D03*
D13*
%TO.P,U1,3,GND*%
%TO.N,GND*%
X134900000Y-146880000D03*
D12*
X135800000Y-146880000D03*
D11*
%TO.P,U1,4,GPIO2*%
%TO.N,GP2*%
X134900000Y-144340000D03*
D12*
X135800000Y-144340000D03*
D11*
%TO.P,U1,5,GPIO3*%
%TO.N,GP3*%
X134900000Y-141800000D03*
D12*
X135800000Y-141800000D03*
D11*
%TO.P,U1,6,GPIO4*%
%TO.N,GP4*%
X134900000Y-139260000D03*
D12*
X135800000Y-139260000D03*
D11*
%TO.P,U1,7,GPIO5*%
%TO.N,GP5*%
X134900000Y-136720000D03*
D12*
X135800000Y-136720000D03*
D13*
%TO.P,U1,8,GND*%
%TO.N,GND*%
X134900000Y-134180000D03*
D12*
X135800000Y-134180000D03*
D11*
%TO.P,U1,9,GPIO6*%
%TO.N,GP6*%
X134900000Y-131640000D03*
D12*
X135800000Y-131640000D03*
D11*
%TO.P,U1,10,GPIO7*%
%TO.N,GP7*%
X134900000Y-129100000D03*
D12*
X135800000Y-129100000D03*
D11*
%TO.P,U1,11,GPIO8*%
%TO.N,GP8*%
X134900000Y-126560000D03*
D12*
X135800000Y-126560000D03*
D11*
%TO.P,U1,12,GPIO9*%
%TO.N,GP9*%
X134900000Y-124020000D03*
D12*
X135800000Y-124020000D03*
D13*
%TO.P,U1,13,GND*%
%TO.N,GND*%
X134900000Y-121480000D03*
D12*
X135800000Y-121480000D03*
D11*
%TO.P,U1,14,GPIO10*%
%TO.N,GP10*%
X134900000Y-118940000D03*
D12*
X135800000Y-118940000D03*
D11*
%TO.P,U1,15,GPIO11*%
%TO.N,GP11*%
X134900000Y-116400000D03*
D12*
X135800000Y-116400000D03*
D11*
%TO.P,U1,16,GPIO12*%
%TO.N,GP12*%
X134900000Y-113860000D03*
D12*
X135800000Y-113860000D03*
D11*
%TO.P,U1,17,GPIO13*%
%TO.N,GP13*%
X134900000Y-111320000D03*
D12*
X135800000Y-111320000D03*
D13*
%TO.P,U1,18,GND*%
%TO.N,GND*%
X134900000Y-108780000D03*
D12*
X135800000Y-108780000D03*
D11*
%TO.P,U1,19,GPIO14*%
%TO.N,GP14*%
X134900000Y-106240000D03*
D12*
X135800000Y-106240000D03*
D11*
%TO.P,U1,20,GPIO15*%
%TO.N,GP15*%
X134900000Y-103700000D03*
D12*
X135800000Y-103700000D03*
D11*
%TO.P,U1,21,GPIO16*%
%TO.N,GP16*%
X117120000Y-103700000D03*
D12*
X116220000Y-103700000D03*
D11*
%TO.P,U1,22,GPIO17*%
%TO.N,GP17*%
X117120000Y-106240000D03*
D12*
X116220000Y-106240000D03*
D13*
%TO.P,U1,23,GND*%
%TO.N,GND*%
X117120000Y-108780000D03*
D12*
X116220000Y-108780000D03*
D11*
%TO.P,U1,24,GPIO18*%
%TO.N,GP18*%
X117120000Y-111320000D03*
D12*
X116220000Y-111320000D03*
D11*
%TO.P,U1,25,GPIO19*%
%TO.N,GP19*%
X117120000Y-113860000D03*
D12*
X116220000Y-113860000D03*
D11*
%TO.P,U1,26,GPIO20*%
%TO.N,GP20*%
X117120000Y-116400000D03*
D12*
X116220000Y-116400000D03*
D11*
%TO.P,U1,27,GPIO21*%
%TO.N,GP21*%
X117120000Y-118940000D03*
D12*
X116220000Y-118940000D03*
D13*
%TO.P,U1,28,GND*%
%TO.N,GND*%
X117120000Y-121480000D03*
D12*
X116220000Y-121480000D03*
D11*
%TO.P,U1,29,GPIO22*%
%TO.N,GP22*%
X117120000Y-124020000D03*
D12*
X116220000Y-124020000D03*
D11*
%TO.P,U1,30,RUN*%
%TO.N,unconnected-(U1-RUN-Pad30)*%
X117120000Y-126560000D03*
D12*
X116220000Y-126560000D03*
D11*
%TO.P,U1,31,GPIO26_ADC0*%
%TO.N,GP26*%
X117120000Y-129100000D03*
D12*
X116220000Y-129100000D03*
D11*
%TO.P,U1,32,GPIO27_ADC1*%
%TO.N,GP27*%
X117120000Y-131640000D03*
D12*
X116220000Y-131640000D03*
D13*
%TO.P,U1,33,AGND*%
%TO.N,GND*%
X117120000Y-134180000D03*
D12*
X116220000Y-134180000D03*
D11*
%TO.P,U1,34,GPIO28_ADC2*%
%TO.N,GP28*%
X117120000Y-136720000D03*
D12*
X116220000Y-136720000D03*
D11*
%TO.P,U1,35,ADC_VREF*%
%TO.N,unconnected-(U1-ADC_VREF-Pad35)*%
X117120000Y-139260000D03*
D12*
X116220000Y-139260000D03*
D11*
%TO.P,U1,36,3V3*%
%TO.N,3V3*%
X117120000Y-141800000D03*
D12*
X116220000Y-141800000D03*
D11*
%TO.P,U1,37,3V3_EN*%
%TO.N,unconnected-(U1-3V3_EN-Pad37)*%
X117120000Y-144340000D03*
D12*
X116220000Y-144340000D03*
D13*
%TO.P,U1,38,GND*%
%TO.N,GND*%
X117120000Y-146880000D03*
D12*
X116220000Y-146880000D03*
D11*
%TO.P,U1,39,VSYS*%
%TO.N,5VCC_1*%
X117120000Y-149420000D03*
D12*
X116220000Y-149420000D03*
D11*
%TO.P,U1,40,VBUS*%
%TO.N,unconnected-(U1-VBUS-Pad40)*%
X117120000Y-151960000D03*
D12*
X116220000Y-151960000D03*
D11*
%TO.P,U1,41,SWCLK*%
%TO.N,unconnected-(U1-SWCLK-Pad41)*%
X128550000Y-103930000D03*
D14*
X128550000Y-103030000D03*
D13*
%TO.P,U1,42,GND*%
%TO.N,unconnected-(U1-GND-Pad42)*%
X126010000Y-103930000D03*
D14*
X126010000Y-103030000D03*
D11*
%TO.P,U1,43,SWDIO*%
%TO.N,unconnected-(U1-SWDIO-Pad43)*%
X123470000Y-103930000D03*
D14*
X123470000Y-103030000D03*
%TD*%
D13*
%TO.P,J4,1,Pin_1*%
%TO.N,5VCC_1*%
X108300000Y-119600000D03*
D11*
%TO.P,J4,2,Pin_2*%
%TO.N,GND*%
X108300000Y-117060000D03*
%TO.P,J4,3,Pin_3*%
%TO.N,GP9*%
X108300000Y-114520000D03*
%TO.P,J4,4,Pin_4*%
%TO.N,GP12*%
X108300000Y-111980000D03*
%TO.P,J4,5,Pin_5*%
%TO.N,GP11*%
X108300000Y-109440000D03*
%TO.P,J4,6,Pin_6*%
%TO.N,GP10*%
X108300000Y-106900000D03*
%TO.P,J4,7,Pin_7*%
%TO.N,GP13*%
X108300000Y-104360000D03*
%TD*%
D15*
%TO.P,J3,1*%
%TO.N,GND*%
X83110000Y-89930000D03*
D16*
%TO.P,J3,2*%
%TO.N,GP10_2*%
X84890000Y-88914000D03*
%TO.P,J3,3*%
%TO.N,GP11_2*%
X83110000Y-87898000D03*
%TO.P,J3,4*%
%TO.N,GP8_2*%
X84890000Y-86882000D03*
%TO.P,J3,5*%
%TO.N,GP3_2*%
X83110000Y-85866000D03*
%TO.P,J3,6*%
%TO.N,GP4_2*%
X84890000Y-84850000D03*
%TO.P,J3,7*%
%TO.N,GP5_2*%
X83110000Y-83834000D03*
%TO.P,J3,8*%
%TO.N,5VCC_2*%
X84890000Y-82818000D03*
D17*
%TO.P,J3,SH*%
%TO.N,N/C*%
X84000000Y-94500000D03*
X84000000Y-78240000D03*
%TD*%
D10*
%TO.P,SW3,1,1*%
%TO.N,GP9_2*%
X95550000Y-35350000D03*
X102050000Y-35350000D03*
%TO.P,SW3,2,2*%
%TO.N,GND*%
X95550000Y-39850000D03*
X102050000Y-39850000D03*
%TD*%
D13*
%TO.P,J5,1,Pin_1*%
%TO.N,5VCC_1*%
X108275000Y-148400000D03*
D11*
%TO.P,J5,2,Pin_2*%
%TO.N,GND*%
X108275000Y-145860000D03*
%TO.P,J5,3,Pin_3*%
%TO.N,GP8*%
X108275000Y-143320000D03*
%TO.P,J5,4,Pin_4*%
%TO.N,GP12*%
X108275000Y-140780000D03*
%TO.P,J5,5,Pin_5*%
%TO.N,GP11*%
X108275000Y-138240000D03*
%TO.P,J5,6,Pin_6*%
%TO.N,GP10*%
X108275000Y-135700000D03*
%TO.P,J5,7,Pin_7*%
%TO.N,GP14*%
X108275000Y-133160000D03*
%TD*%
D18*
%TO.P,J1,1,Pin_1*%
%TO.N,GND*%
X78500000Y-46560000D03*
D19*
%TO.P,J1,2,Pin_2*%
%TO.N,5V*%
X78500000Y-51640000D03*
%TD*%
D20*
%TO.P,D1,1,K*%
%TO.N,5VCC_1*%
X106080000Y-51150000D03*
D21*
%TO.P,D1,2,A*%
%TO.N,5V*%
X95920000Y-51150000D03*
%TD*%
D20*
%TO.P,D2,1,K*%
%TO.N,5VCC_2*%
X106080000Y-47400000D03*
D21*
%TO.P,D2,2,A*%
%TO.N,5V*%
X95920000Y-47400000D03*
%TD*%
D10*
%TO.P,SW2,1,1*%
%TO.N,GP7_2*%
X85800000Y-35350000D03*
X92300000Y-35350000D03*
%TO.P,SW2,2,2*%
%TO.N,GND*%
X85800000Y-39850000D03*
X92300000Y-39850000D03*
%TD*%
D14*
%TO.P,U2,43,SWDIO*%
%TO.N,unconnected-(U2-SWDIO-Pad43)*%
X128500000Y-93900000D03*
D11*
X128500000Y-93000000D03*
D14*
%TO.P,U2,42,GND*%
%TO.N,unconnected-(U2-GND-Pad42)*%
X125960000Y-93900000D03*
D13*
X125960000Y-93000000D03*
D14*
%TO.P,U2,41,SWCLK*%
%TO.N,unconnected-(U2-SWCLK-Pad41)*%
X123420000Y-93900000D03*
D11*
X123420000Y-93000000D03*
D12*
%TO.P,U2,40,VBUS*%
%TO.N,unconnected-(U2-VBUS-Pad40)*%
X135750000Y-44970000D03*
D11*
X134850000Y-44970000D03*
D12*
%TO.P,U2,39,VSYS*%
%TO.N,5VCC_2*%
X135750000Y-47510000D03*
D11*
X134850000Y-47510000D03*
D12*
%TO.P,U2,38,GND*%
%TO.N,GND*%
X135750000Y-50050000D03*
D13*
X134850000Y-50050000D03*
D12*
%TO.P,U2,37,3V3_EN*%
%TO.N,unconnected-(U2-3V3_EN-Pad37)*%
X135750000Y-52590000D03*
D11*
X134850000Y-52590000D03*
D12*
%TO.P,U2,36,3V3*%
%TO.N,unconnected-(U2-3V3-Pad36)*%
X135750000Y-55130000D03*
D11*
X134850000Y-55130000D03*
D12*
%TO.P,U2,35,ADC_VREF*%
%TO.N,unconnected-(U2-ADC_VREF-Pad35)*%
X135750000Y-57670000D03*
D11*
X134850000Y-57670000D03*
D12*
%TO.P,U2,34,GPIO28_ADC2*%
%TO.N,GP28_2*%
X135750000Y-60210000D03*
D11*
X134850000Y-60210000D03*
D12*
%TO.P,U2,33,AGND*%
%TO.N,GND*%
X135750000Y-62750000D03*
D13*
X134850000Y-62750000D03*
D12*
%TO.P,U2,32,GPIO27_ADC1*%
%TO.N,GP27_2*%
X135750000Y-65290000D03*
D11*
X134850000Y-65290000D03*
D12*
%TO.P,U2,31,GPIO26_ADC0*%
%TO.N,unconnected-(U2-GPIO26_ADC0-Pad31)*%
X135750000Y-67830000D03*
D11*
X134850000Y-67830000D03*
D12*
%TO.P,U2,30,RUN*%
%TO.N,unconnected-(U2-RUN-Pad30)*%
X135750000Y-70370000D03*
D11*
X134850000Y-70370000D03*
D12*
%TO.P,U2,29,GPIO22*%
%TO.N,unconnected-(U2-GPIO22-Pad29)*%
X135750000Y-72910000D03*
D11*
X134850000Y-72910000D03*
D12*
%TO.P,U2,28,GND*%
%TO.N,GND*%
X135750000Y-75450000D03*
D13*
X134850000Y-75450000D03*
D12*
%TO.P,U2,27,GPIO21*%
%TO.N,unconnected-(U2-GPIO21-Pad27)*%
X135750000Y-77990000D03*
D11*
X134850000Y-77990000D03*
D12*
%TO.P,U2,26,GPIO20*%
%TO.N,GP20_2*%
X135750000Y-80530000D03*
D11*
X134850000Y-80530000D03*
D12*
%TO.P,U2,25,GPIO19*%
%TO.N,GP16*%
X135750000Y-83070000D03*
D11*
X134850000Y-83070000D03*
D12*
%TO.P,U2,24,GPIO18*%
%TO.N,GP18*%
X135750000Y-85610000D03*
D11*
X134850000Y-85610000D03*
D12*
%TO.P,U2,23,GND*%
%TO.N,GND*%
X135750000Y-88150000D03*
D13*
X134850000Y-88150000D03*
D12*
%TO.P,U2,22,GPIO17*%
%TO.N,GP17*%
X135750000Y-90690000D03*
D11*
X134850000Y-90690000D03*
D12*
%TO.P,U2,21,GPIO16*%
%TO.N,GP19*%
X135750000Y-93230000D03*
D11*
X134850000Y-93230000D03*
D12*
%TO.P,U2,20,GPIO15*%
%TO.N,GP15_2*%
X116170000Y-93230000D03*
D11*
X117070000Y-93230000D03*
D12*
%TO.P,U2,19,GPIO14*%
%TO.N,GP14_2*%
X116170000Y-90690000D03*
D11*
X117070000Y-90690000D03*
D12*
%TO.P,U2,18,GND*%
%TO.N,GND*%
X116170000Y-88150000D03*
D13*
X117070000Y-88150000D03*
D12*
%TO.P,U2,17,GPIO13*%
%TO.N,GP13_2*%
X116170000Y-85610000D03*
D11*
X117070000Y-85610000D03*
D12*
%TO.P,U2,16,GPIO12*%
%TO.N,GP12_2*%
X116170000Y-83070000D03*
D11*
X117070000Y-83070000D03*
D12*
%TO.P,U2,15,GPIO11*%
%TO.N,GP11_2*%
X116170000Y-80530000D03*
D11*
X117070000Y-80530000D03*
D12*
%TO.P,U2,14,GPIO10*%
%TO.N,GP10_2*%
X116170000Y-77990000D03*
D11*
X117070000Y-77990000D03*
D12*
%TO.P,U2,13,GND*%
%TO.N,GND*%
X116170000Y-75450000D03*
D13*
X117070000Y-75450000D03*
D12*
%TO.P,U2,12,GPIO9*%
%TO.N,GP9_2*%
X116170000Y-72910000D03*
D11*
X117070000Y-72910000D03*
D12*
%TO.P,U2,11,GPIO8*%
%TO.N,GP8_2*%
X116170000Y-70370000D03*
D11*
X117070000Y-70370000D03*
D12*
%TO.P,U2,10,GPIO7*%
%TO.N,GP7_2*%
X116170000Y-67830000D03*
D11*
X117070000Y-67830000D03*
D12*
%TO.P,U2,9,GPIO6*%
%TO.N,GP6_2*%
X116170000Y-65290000D03*
D11*
X117070000Y-65290000D03*
D12*
%TO.P,U2,8,GND*%
%TO.N,GND*%
X116170000Y-62750000D03*
D13*
X117070000Y-62750000D03*
D12*
%TO.P,U2,7,GPIO5*%
%TO.N,GP5_2*%
X116170000Y-60210000D03*
D11*
X117070000Y-60210000D03*
D12*
%TO.P,U2,6,GPIO4*%
%TO.N,GP4_2*%
X116170000Y-57670000D03*
D11*
X117070000Y-57670000D03*
D12*
%TO.P,U2,5,GPIO3*%
%TO.N,GP3_2*%
X116170000Y-55130000D03*
D11*
X117070000Y-55130000D03*
D12*
%TO.P,U2,4,GPIO2*%
%TO.N,GP2_2*%
X116170000Y-52590000D03*
D11*
X117070000Y-52590000D03*
D12*
%TO.P,U2,3,GND*%
%TO.N,GND*%
X116170000Y-50050000D03*
D13*
X117070000Y-50050000D03*
D12*
%TO.P,U2,2,GPIO1*%
%TO.N,GP1_2*%
X116170000Y-47510000D03*
D11*
X117070000Y-47510000D03*
D12*
%TO.P,U2,1,GPIO0*%
%TO.N,GP0_2*%
X116170000Y-44970000D03*
D11*
X117070000Y-44970000D03*
%TD*%
D10*
%TO.P,SW4,1,1*%
%TO.N,GP12_2*%
X105300000Y-35350000D03*
X111800000Y-35350000D03*
%TO.P,SW4,2,2*%
%TO.N,GND*%
X105300000Y-39850000D03*
X111800000Y-39850000D03*
%TD*%
%TO.P,SW1,1,1*%
%TO.N,GP6_2*%
X76050000Y-35350000D03*
X82550000Y-35350000D03*
%TO.P,SW1,2,2*%
%TO.N,GND*%
X76050000Y-39850000D03*
X82550000Y-39850000D03*
%TD*%
D15*
%TO.P,J2,1*%
%TO.N,GND*%
X83110000Y-69930000D03*
D16*
%TO.P,J2,2*%
%TO.N,GP10_2*%
X84890000Y-68914000D03*
%TO.P,J2,3*%
%TO.N,GP11_2*%
X83110000Y-67898000D03*
%TO.P,J2,4*%
%TO.N,GP8_2*%
X84890000Y-66882000D03*
%TO.P,J2,5*%
%TO.N,GP0_2*%
X83110000Y-65866000D03*
%TO.P,J2,6*%
%TO.N,GP1_2*%
X84890000Y-64850000D03*
%TO.P,J2,7*%
%TO.N,GP2_2*%
X83110000Y-63834000D03*
%TO.P,J2,8*%
%TO.N,5VCC_2*%
X84890000Y-62818000D03*
D17*
%TO.P,J2,SH*%
%TO.N,N/C*%
X84000000Y-74500000D03*
X84000000Y-58240000D03*
%TD*%
D22*
%TO.N,GND*%
X119400000Y-51300000D03*
%TO.N,GP6_2*%
X108700000Y-62300000D03*
%TO.N,GP9_2*%
X111400000Y-64000000D03*
%TO.N,GP12_2*%
X110475000Y-63900000D03*
%TO.N,GP13_2*%
X119900000Y-83700000D03*
%TO.N,GP10_2*%
X86500000Y-85100000D03*
X85700000Y-71900000D03*
X86100000Y-76800000D03*
%TO.N,GP3_2*%
X83300000Y-91700000D03*
%TO.N,GP8_2*%
X78100000Y-88400000D03*
%TO.N,GP11_2*%
X94400000Y-63500000D03*
X92800000Y-57800000D03*
%TO.N,GP10_2*%
X96000000Y-68100000D03*
%TO.N,GP8_2*%
X96000000Y-67000000D03*
%TO.N,GP19*%
X111000000Y-106000000D03*
%TD*%
D23*
%TO.N,GND*%
X119400000Y-60420000D02*
X119400000Y-51300000D01*
X117070000Y-62750000D02*
X119400000Y-60420000D01*
X117070000Y-75450000D02*
X118245000Y-74275000D01*
X118245000Y-74275000D02*
X118245000Y-63925000D01*
X118245000Y-63925000D02*
X117070000Y-62750000D01*
X117070000Y-88150000D02*
X120475000Y-84745000D01*
X120475000Y-84745000D02*
X120475000Y-78855000D01*
X120475000Y-78855000D02*
X117070000Y-75450000D01*
X134850000Y-88150000D02*
X117070000Y-88150000D01*
%TO.N,GP6_2*%
X112470000Y-62300000D02*
X115460000Y-65290000D01*
X108700000Y-62300000D02*
X112470000Y-62300000D01*
X115460000Y-65290000D02*
X117070000Y-65290000D01*
%TO.N,GP9_2*%
X111700000Y-69150000D02*
X115460000Y-72910000D01*
X111400000Y-64000000D02*
X111700000Y-64300000D01*
X111700000Y-64300000D02*
X111700000Y-69150000D01*
X115460000Y-72910000D02*
X117070000Y-72910000D01*
%TO.N,GP12_2*%
X110475000Y-63900000D02*
X110400000Y-63975000D01*
X110400000Y-63975000D02*
X110400000Y-78010000D01*
X110400000Y-78010000D02*
X115460000Y-83070000D01*
X115460000Y-83070000D02*
X117070000Y-83070000D01*
%TO.N,GP13_2*%
X119900000Y-83700000D02*
X118980000Y-83700000D01*
X118980000Y-83700000D02*
X117070000Y-85610000D01*
D24*
%TO.N,5VCC_2*%
X106080000Y-47400000D02*
X110060000Y-43420000D01*
X130320000Y-43420000D02*
X134410000Y-47510000D01*
X110060000Y-43420000D02*
X130320000Y-43420000D01*
X134410000Y-47510000D02*
X134850000Y-47510000D01*
D23*
%TO.N,GP10_2*%
X85700000Y-69724000D02*
X84890000Y-68914000D01*
X86500000Y-85100000D02*
X86500000Y-77200000D01*
X86500000Y-77200000D02*
X86100000Y-76800000D01*
X85700000Y-71900000D02*
X85700000Y-69724000D01*
%TO.N,GP3_2*%
X81600000Y-90900000D02*
X82400000Y-91700000D01*
X81600000Y-87376000D02*
X81600000Y-90900000D01*
X83110000Y-85866000D02*
X81600000Y-87376000D01*
X82400000Y-91700000D02*
X83300000Y-91700000D01*
%TO.N,GP8_2*%
X78100000Y-88400000D02*
X78100000Y-93078427D01*
X78100000Y-93078427D02*
X79741573Y-94720000D01*
X79741573Y-94720000D02*
X81480000Y-94720000D01*
X81480000Y-94720000D02*
X85965000Y-90235000D01*
X85965000Y-90235000D02*
X85965000Y-87957000D01*
X85965000Y-87957000D02*
X84890000Y-86882000D01*
%TO.N,GP11_2*%
X94400000Y-59400000D02*
X94400000Y-63500000D01*
X92800000Y-57800000D02*
X94400000Y-59400000D01*
%TO.N,GP10_2*%
X95186000Y-68914000D02*
X96000000Y-68100000D01*
X84890000Y-68914000D02*
X95186000Y-68914000D01*
%TO.N,GP8_2*%
X95882000Y-66882000D02*
X96000000Y-67000000D01*
X84890000Y-66882000D02*
X95882000Y-66882000D01*
%TO.N,GP0_2*%
X83110000Y-65866000D02*
X81398427Y-67577573D01*
X81398427Y-67577573D02*
X81398427Y-70323427D01*
X81398427Y-70323427D02*
X84100000Y-73025000D01*
X84100000Y-73025000D02*
X92485000Y-73025000D01*
X118245000Y-46145000D02*
X117070000Y-44970000D01*
X92485000Y-73025000D02*
X114285000Y-51225000D01*
X114285000Y-51225000D02*
X118245000Y-51225000D01*
X118245000Y-51225000D02*
X118245000Y-46145000D01*
%TO.N,GP1_2*%
X84890000Y-64850000D02*
X98120000Y-64850000D01*
X98120000Y-64850000D02*
X115460000Y-47510000D01*
X115460000Y-47510000D02*
X117070000Y-47510000D01*
%TO.N,GP2_2*%
X83110000Y-63834000D02*
X78570000Y-68374000D01*
X78570000Y-73548427D02*
X80996573Y-75975000D01*
X78570000Y-68374000D02*
X78570000Y-73548427D01*
X91725000Y-75975000D02*
X115110000Y-52590000D01*
X80996573Y-75975000D02*
X91725000Y-75975000D01*
X115110000Y-52590000D02*
X117070000Y-52590000D01*
D25*
%TO.N,5VCC_2*%
X84372000Y-62300000D02*
X78900000Y-62300000D01*
X78900000Y-62300000D02*
X73200000Y-68000000D01*
X73200000Y-75655204D02*
X80144796Y-82600000D01*
X84672000Y-82600000D02*
X84831000Y-82759000D01*
X73200000Y-68000000D02*
X73200000Y-75655204D01*
X80144796Y-82600000D02*
X84672000Y-82600000D01*
D23*
X84831000Y-82759000D02*
X84890000Y-82818000D01*
X84890000Y-62818000D02*
X84372000Y-62300000D01*
D24*
%TO.N,5VCC_1*%
X108275000Y-148400000D02*
X71000000Y-111125000D01*
X71000000Y-111125000D02*
X71000000Y-56800000D01*
X71000000Y-56800000D02*
X73600000Y-54200000D01*
X73600000Y-54200000D02*
X103030000Y-54200000D01*
X103030000Y-54200000D02*
X106080000Y-51150000D01*
%TO.N,GND*%
X115050000Y-39850000D02*
X121550000Y-39850000D01*
D23*
%TO.N,GP6_2*%
X82550000Y-35350000D02*
X76050000Y-35350000D01*
%TO.N,GP7_2*%
X92300000Y-35350000D02*
X85800000Y-35350000D01*
D26*
%TO.N,5V*%
X95920000Y-51150000D02*
X95920000Y-47400000D01*
D23*
X95430000Y-51640000D02*
X95920000Y-51150000D01*
D26*
X78500000Y-51640000D02*
X95430000Y-51640000D01*
D23*
%TO.N,GND*%
X134900000Y-121480000D02*
X117120000Y-121480000D01*
D24*
X76050000Y-39850000D02*
X82550000Y-39850000D01*
X111800000Y-39850000D02*
X115050000Y-39850000D01*
X82550000Y-39850000D02*
X85800000Y-39850000D01*
X92300000Y-39850000D02*
X95550000Y-39850000D01*
X85800000Y-39850000D02*
X92300000Y-39850000D01*
D23*
X118295000Y-120305000D02*
X117120000Y-121480000D01*
X108275000Y-145860000D02*
X116100000Y-145860000D01*
X118295000Y-109955000D02*
X118295000Y-120305000D01*
X116100000Y-145860000D02*
X117120000Y-146880000D01*
X117120000Y-108780000D02*
X118295000Y-109955000D01*
D24*
X78500000Y-42300000D02*
X76050000Y-39850000D01*
X95550000Y-39850000D02*
X102050000Y-39850000D01*
X102050000Y-39850000D02*
X105300000Y-39850000D01*
X78500000Y-46560000D02*
X78500000Y-42300000D01*
X105300000Y-39850000D02*
X111800000Y-39850000D01*
D23*
%TO.N,GP8*%
X113595000Y-138000000D02*
X123460000Y-138000000D01*
X108275000Y-143320000D02*
X113595000Y-138000000D01*
X123460000Y-138000000D02*
X134900000Y-126560000D01*
%TO.N,GP19*%
X111000000Y-109350000D02*
X111000000Y-106000000D01*
X117120000Y-113860000D02*
X115510000Y-113860000D01*
X115510000Y-113860000D02*
X111000000Y-109350000D01*
%TO.N,GP10*%
X109925000Y-108525000D02*
X109925000Y-138441701D01*
X108300000Y-106900000D02*
X110135000Y-105065000D01*
X106815698Y-138684302D02*
X106815698Y-137159302D01*
X108761701Y-139605000D02*
X107736396Y-139605000D01*
X108300000Y-106900000D02*
X109925000Y-108525000D01*
X106815698Y-137159302D02*
X108275000Y-135700000D01*
X109925000Y-138441701D02*
X108761701Y-139605000D01*
X121025000Y-105065000D02*
X134900000Y-118940000D01*
X110135000Y-105065000D02*
X121025000Y-105065000D01*
X107736396Y-139605000D02*
X106815698Y-138684302D01*
%TO.N,GP11*%
X109475000Y-110615000D02*
X108300000Y-109440000D01*
X132996396Y-116400000D02*
X134900000Y-116400000D01*
X109475000Y-137040000D02*
X109475000Y-110615000D01*
X108786701Y-105725000D02*
X111986701Y-102525000D01*
X108275000Y-138240000D02*
X109475000Y-137040000D01*
X107813299Y-105725000D02*
X108786701Y-105725000D01*
X119121396Y-102525000D02*
X132996396Y-116400000D01*
X107125000Y-106413299D02*
X107813299Y-105725000D01*
X108300000Y-109440000D02*
X107125000Y-108265000D01*
X111986701Y-102525000D02*
X119121396Y-102525000D01*
X107125000Y-108265000D02*
X107125000Y-106413299D01*
%TO.N,GP12*%
X106675000Y-110355000D02*
X106675000Y-103825000D01*
X106675000Y-103825000D02*
X109995000Y-100505000D01*
X106217045Y-114062955D02*
X108300000Y-111980000D01*
X109995000Y-100505000D02*
X136005000Y-100505000D01*
X136005000Y-100505000D02*
X137875000Y-102375000D01*
X137875000Y-102375000D02*
X137875000Y-112495000D01*
X108275000Y-140780000D02*
X106217045Y-138722045D01*
X136510000Y-113860000D02*
X134900000Y-113860000D01*
X137875000Y-112495000D02*
X136510000Y-113860000D01*
X108300000Y-111980000D02*
X106675000Y-110355000D01*
X106217045Y-138722045D02*
X106217045Y-114062955D01*
%TO.N,GP13*%
X111705000Y-100955000D02*
X127375000Y-100955000D01*
X127375000Y-100955000D02*
X127375000Y-105105000D01*
X133590000Y-111320000D02*
X134900000Y-111320000D01*
X127375000Y-105105000D02*
X133590000Y-111320000D01*
X108300000Y-104360000D02*
X111705000Y-100955000D01*
%TO.N,GP9_2*%
X102050000Y-35350000D02*
X95550000Y-35350000D01*
%TO.N,GP12_2*%
X111800000Y-35350000D02*
X105300000Y-35350000D01*
%TO.N,GP13_2*%
X121550000Y-35350000D02*
X115050000Y-35350000D01*
D25*
%TO.N,5VCC_1*%
X108275000Y-148400000D02*
X116100000Y-148400000D01*
X116100000Y-148400000D02*
X117120000Y-149420000D01*
%TD*%
M02*
