%TF.GenerationSoftware,KiCad,Pcbnew,7.0.7*%
%TF.CreationDate,2025-01-13T16:20:25+01:00*%
%TF.ProjectId,PICO board v4.0,5049434f-2062-46f6-9172-642076342e30,rev?*%
%TF.SameCoordinates,Original*%
%TF.FileFunction,Drillmap*%
%TF.FilePolarity,Positive*%
%FSLAX45Y45*%
G04 Gerber Fmt 4.5, Leading zero omitted, Abs format (unit mm)*
G04 Created by KiCad (PCBNEW 7.0.7) date 2025-01-13 16:20:25*
%MOMM*%
%LPD*%
G01*
G04 APERTURE LIST*
%ADD10C,0.200000*%
%ADD11C,0.100000*%
%ADD12C,0.030000*%
%ADD13C,0.089000*%
%ADD14C,0.102000*%
%ADD15C,0.110000*%
%ADD16C,0.152000*%
%ADD17C,0.157000*%
G04 APERTURE END LIST*
D10*
X7430000Y-12930000D02*
G75*
G03*
X7430000Y-12930000I-137500J0D01*
G01*
X7437500Y-15750000D02*
G75*
G03*
X7437500Y-15750000I-137500J0D01*
G01*
X10910000Y-15230000D02*
G75*
G03*
X10910000Y-15230000I-137500J0D01*
G01*
D11*
X7300000Y-3300000D02*
X13800000Y-3300000D01*
X6950000Y-15750000D02*
G75*
G03*
X7300000Y-16100000I350000J0D01*
G01*
D10*
X7412500Y-12350000D02*
G75*
G03*
X7412500Y-12350000I-137500J0D01*
G01*
D11*
X7300000Y-3300000D02*
G75*
G03*
X6950000Y-3650000I0J-350000D01*
G01*
X7300000Y-16100000D02*
X13800000Y-16100000D01*
D10*
X10910000Y-12930000D02*
G75*
G03*
X10910000Y-12930000I-137500J0D01*
G01*
X10912500Y-10050000D02*
G75*
G03*
X10912500Y-10050000I-137500J0D01*
G01*
D11*
X6950000Y-3650000D02*
X6950000Y-15750000D01*
X14150000Y-3650000D02*
X14150000Y-15750000D01*
X14150000Y-3650000D02*
G75*
G03*
X13800000Y-3300000I-350000J0D01*
G01*
D10*
X7410000Y-15230000D02*
G75*
G03*
X7410000Y-15230000I-137500J0D01*
G01*
X7437500Y-3650000D02*
G75*
G03*
X7437500Y-3650000I-137500J0D01*
G01*
D11*
X13800000Y-16100000D02*
G75*
G03*
X14150000Y-15750000I0J350000D01*
G01*
D10*
X13937500Y-3650000D02*
G75*
G03*
X13937500Y-3650000I-137500J0D01*
G01*
X7432500Y-10050000D02*
G75*
G03*
X7432500Y-10050000I-137500J0D01*
G01*
X10912500Y-12350000D02*
G75*
G03*
X10912500Y-12350000I-137500J0D01*
G01*
X13937500Y-15750000D02*
G75*
G03*
X13937500Y-15750000I-137500J0D01*
G01*
D12*
X7795000Y-8825000D02*
X7825000Y-8855000D01*
X7825000Y-8825000D02*
X7795000Y-8855000D01*
X8315000Y-9155000D02*
X8345000Y-9185000D01*
X8345000Y-9155000D02*
X8315000Y-9185000D01*
X8555000Y-7175000D02*
X8585000Y-7205000D01*
X8585000Y-7175000D02*
X8555000Y-7205000D01*
X8595000Y-7665000D02*
X8625000Y-7695000D01*
X8625000Y-7665000D02*
X8595000Y-7695000D01*
X8635000Y-8495000D02*
X8665000Y-8525000D01*
X8665000Y-8495000D02*
X8635000Y-8525000D01*
X9265000Y-5765000D02*
X9295000Y-5795000D01*
X9295000Y-5765000D02*
X9265000Y-5795000D01*
X9425000Y-6335000D02*
X9455000Y-6365000D01*
X9455000Y-6335000D02*
X9425000Y-6365000D01*
X9585000Y-6685000D02*
X9615000Y-6715000D01*
X9615000Y-6685000D02*
X9585000Y-6715000D01*
X9585000Y-6795000D02*
X9615000Y-6825000D01*
X9615000Y-6795000D02*
X9585000Y-6825000D01*
X10855000Y-6215000D02*
X10885000Y-6245000D01*
X10885000Y-6215000D02*
X10855000Y-6245000D01*
X11032500Y-6375000D02*
X11062500Y-6405000D01*
X11062500Y-6375000D02*
X11032500Y-6405000D01*
X11085000Y-10585000D02*
X11115000Y-10615000D01*
X11115000Y-10585000D02*
X11085000Y-10615000D01*
X11125000Y-6385000D02*
X11155000Y-6415000D01*
X11155000Y-6385000D02*
X11125000Y-6415000D01*
X11925000Y-5115000D02*
X11955000Y-5145000D01*
X11955000Y-5115000D02*
X11925000Y-5145000D01*
X11975000Y-8355000D02*
X12005000Y-8385000D01*
X12005000Y-8355000D02*
X11975000Y-8385000D01*
D13*
X8355500Y-6383400D02*
G75*
G03*
X8355500Y-6383400I-44500J0D01*
G01*
X8355500Y-6586600D02*
G75*
G03*
X8355500Y-6586600I-44500J0D01*
G01*
X8355500Y-6789800D02*
G75*
G03*
X8355500Y-6789800I-44500J0D01*
G01*
X8355500Y-6993000D02*
G75*
G03*
X8355500Y-6993000I-44500J0D01*
G01*
X8355500Y-8383400D02*
G75*
G03*
X8355500Y-8383400I-44500J0D01*
G01*
X8355500Y-8586600D02*
G75*
G03*
X8355500Y-8586600I-44500J0D01*
G01*
X8355500Y-8789800D02*
G75*
G03*
X8355500Y-8789800I-44500J0D01*
G01*
X8355500Y-8993000D02*
G75*
G03*
X8355500Y-8993000I-44500J0D01*
G01*
X8533500Y-6281800D02*
G75*
G03*
X8533500Y-6281800I-44500J0D01*
G01*
X8533500Y-6485000D02*
G75*
G03*
X8533500Y-6485000I-44500J0D01*
G01*
X8533500Y-6688200D02*
G75*
G03*
X8533500Y-6688200I-44500J0D01*
G01*
X8533500Y-6891400D02*
G75*
G03*
X8533500Y-6891400I-44500J0D01*
G01*
X8533500Y-8281800D02*
G75*
G03*
X8533500Y-8281800I-44500J0D01*
G01*
X8533500Y-8485000D02*
G75*
G03*
X8533500Y-8485000I-44500J0D01*
G01*
X8533500Y-8688200D02*
G75*
G03*
X8533500Y-8688200I-44500J0D01*
G01*
X8533500Y-8891400D02*
G75*
G03*
X8533500Y-8891400I-44500J0D01*
G01*
D11*
X10827500Y-13266000D02*
X10827500Y-13366000D01*
X10777500Y-13316000D02*
X10877500Y-13316000D01*
X10827500Y-13520000D02*
X10827500Y-13620000D01*
X10777500Y-13570000D02*
X10877500Y-13570000D01*
X10827500Y-13774000D02*
X10827500Y-13874000D01*
X10777500Y-13824000D02*
X10877500Y-13824000D01*
X10827500Y-14028000D02*
X10827500Y-14128000D01*
X10777500Y-14078000D02*
X10877500Y-14078000D01*
X10827500Y-14282000D02*
X10827500Y-14382000D01*
X10777500Y-14332000D02*
X10877500Y-14332000D01*
X10827500Y-14536000D02*
X10827500Y-14636000D01*
X10777500Y-14586000D02*
X10877500Y-14586000D01*
X10827500Y-14790000D02*
X10827500Y-14890000D01*
X10777500Y-14840000D02*
X10877500Y-14840000D01*
X10830000Y-10386000D02*
X10830000Y-10486000D01*
X10780000Y-10436000D02*
X10880000Y-10436000D01*
X10830000Y-10640000D02*
X10830000Y-10740000D01*
X10780000Y-10690000D02*
X10880000Y-10690000D01*
X10830000Y-10894000D02*
X10830000Y-10994000D01*
X10780000Y-10944000D02*
X10880000Y-10944000D01*
X10830000Y-11148000D02*
X10830000Y-11248000D01*
X10780000Y-11198000D02*
X10880000Y-11198000D01*
X10830000Y-11402000D02*
X10830000Y-11502000D01*
X10780000Y-11452000D02*
X10880000Y-11452000D01*
X10830000Y-11656000D02*
X10830000Y-11756000D01*
X10780000Y-11706000D02*
X10880000Y-11706000D01*
X10830000Y-11910000D02*
X10830000Y-12010000D01*
X10780000Y-11960000D02*
X10880000Y-11960000D01*
D14*
X11743063Y-4533063D02*
X11743063Y-4460937D01*
X11670937Y-4460937D01*
X11670937Y-4533063D01*
X11743063Y-4533063D01*
X11743063Y-4787063D02*
X11743063Y-4714937D01*
X11670937Y-4714937D01*
X11670937Y-4787063D01*
X11743063Y-4787063D01*
X11743063Y-5041063D02*
X11743063Y-4968937D01*
X11670937Y-4968937D01*
X11670937Y-5041063D01*
X11743063Y-5041063D01*
X11743063Y-5295063D02*
X11743063Y-5222937D01*
X11670937Y-5222937D01*
X11670937Y-5295063D01*
X11743063Y-5295063D01*
X11743063Y-5549063D02*
X11743063Y-5476937D01*
X11670937Y-5476937D01*
X11670937Y-5549063D01*
X11743063Y-5549063D01*
X11743063Y-5803063D02*
X11743063Y-5730937D01*
X11670937Y-5730937D01*
X11670937Y-5803063D01*
X11743063Y-5803063D01*
X11743063Y-6057063D02*
X11743063Y-5984937D01*
X11670937Y-5984937D01*
X11670937Y-6057063D01*
X11743063Y-6057063D01*
X11743063Y-6311063D02*
X11743063Y-6238937D01*
X11670937Y-6238937D01*
X11670937Y-6311063D01*
X11743063Y-6311063D01*
X11743063Y-6565063D02*
X11743063Y-6492937D01*
X11670937Y-6492937D01*
X11670937Y-6565063D01*
X11743063Y-6565063D01*
X11743063Y-6819063D02*
X11743063Y-6746937D01*
X11670937Y-6746937D01*
X11670937Y-6819063D01*
X11743063Y-6819063D01*
X11743063Y-7073063D02*
X11743063Y-7000937D01*
X11670937Y-7000937D01*
X11670937Y-7073063D01*
X11743063Y-7073063D01*
X11743063Y-7327063D02*
X11743063Y-7254937D01*
X11670937Y-7254937D01*
X11670937Y-7327063D01*
X11743063Y-7327063D01*
X11743063Y-7581063D02*
X11743063Y-7508937D01*
X11670937Y-7508937D01*
X11670937Y-7581063D01*
X11743063Y-7581063D01*
X11743063Y-7835063D02*
X11743063Y-7762937D01*
X11670937Y-7762937D01*
X11670937Y-7835063D01*
X11743063Y-7835063D01*
X11743063Y-8089063D02*
X11743063Y-8016937D01*
X11670937Y-8016937D01*
X11670937Y-8089063D01*
X11743063Y-8089063D01*
X11743063Y-8343063D02*
X11743063Y-8270937D01*
X11670937Y-8270937D01*
X11670937Y-8343063D01*
X11743063Y-8343063D01*
X11743063Y-8597063D02*
X11743063Y-8524937D01*
X11670937Y-8524937D01*
X11670937Y-8597063D01*
X11743063Y-8597063D01*
X11743063Y-8851063D02*
X11743063Y-8778937D01*
X11670937Y-8778937D01*
X11670937Y-8851063D01*
X11743063Y-8851063D01*
X11743063Y-9105063D02*
X11743063Y-9032937D01*
X11670937Y-9032937D01*
X11670937Y-9105063D01*
X11743063Y-9105063D01*
X11743063Y-9359063D02*
X11743063Y-9286937D01*
X11670937Y-9286937D01*
X11670937Y-9359063D01*
X11743063Y-9359063D01*
X11748063Y-10406063D02*
X11748063Y-10333937D01*
X11675937Y-10333937D01*
X11675937Y-10406063D01*
X11748063Y-10406063D01*
X11748063Y-10660063D02*
X11748063Y-10587937D01*
X11675937Y-10587937D01*
X11675937Y-10660063D01*
X11748063Y-10660063D01*
X11748063Y-10914063D02*
X11748063Y-10841937D01*
X11675937Y-10841937D01*
X11675937Y-10914063D01*
X11748063Y-10914063D01*
X11748063Y-11168063D02*
X11748063Y-11095937D01*
X11675937Y-11095937D01*
X11675937Y-11168063D01*
X11748063Y-11168063D01*
X11748063Y-11422063D02*
X11748063Y-11349937D01*
X11675937Y-11349937D01*
X11675937Y-11422063D01*
X11748063Y-11422063D01*
X11748063Y-11676063D02*
X11748063Y-11603937D01*
X11675937Y-11603937D01*
X11675937Y-11676063D01*
X11748063Y-11676063D01*
X11748063Y-11930063D02*
X11748063Y-11857937D01*
X11675937Y-11857937D01*
X11675937Y-11930063D01*
X11748063Y-11930063D01*
X11748063Y-12184063D02*
X11748063Y-12111937D01*
X11675937Y-12111937D01*
X11675937Y-12184063D01*
X11748063Y-12184063D01*
X11748063Y-12438063D02*
X11748063Y-12365937D01*
X11675937Y-12365937D01*
X11675937Y-12438063D01*
X11748063Y-12438063D01*
X11748063Y-12692063D02*
X11748063Y-12619937D01*
X11675937Y-12619937D01*
X11675937Y-12692063D01*
X11748063Y-12692063D01*
X11748063Y-12946063D02*
X11748063Y-12873937D01*
X11675937Y-12873937D01*
X11675937Y-12946063D01*
X11748063Y-12946063D01*
X11748063Y-13200063D02*
X11748063Y-13127937D01*
X11675937Y-13127937D01*
X11675937Y-13200063D01*
X11748063Y-13200063D01*
X11748063Y-13454063D02*
X11748063Y-13381937D01*
X11675937Y-13381937D01*
X11675937Y-13454063D01*
X11748063Y-13454063D01*
X11748063Y-13708063D02*
X11748063Y-13635937D01*
X11675937Y-13635937D01*
X11675937Y-13708063D01*
X11748063Y-13708063D01*
X11748063Y-13962063D02*
X11748063Y-13889937D01*
X11675937Y-13889937D01*
X11675937Y-13962063D01*
X11748063Y-13962063D01*
X11748063Y-14216063D02*
X11748063Y-14143937D01*
X11675937Y-14143937D01*
X11675937Y-14216063D01*
X11748063Y-14216063D01*
X11748063Y-14470063D02*
X11748063Y-14397937D01*
X11675937Y-14397937D01*
X11675937Y-14470063D01*
X11748063Y-14470063D01*
X11748063Y-14724063D02*
X11748063Y-14651937D01*
X11675937Y-14651937D01*
X11675937Y-14724063D01*
X11748063Y-14724063D01*
X11748063Y-14978063D02*
X11748063Y-14905937D01*
X11675937Y-14905937D01*
X11675937Y-14978063D01*
X11748063Y-14978063D01*
X11748063Y-15232063D02*
X11748063Y-15159937D01*
X11675937Y-15159937D01*
X11675937Y-15232063D01*
X11748063Y-15232063D01*
X12378063Y-9336063D02*
X12378063Y-9263937D01*
X12305937Y-9263937D01*
X12305937Y-9336063D01*
X12378063Y-9336063D01*
X12383063Y-10429063D02*
X12383063Y-10356937D01*
X12310937Y-10356937D01*
X12310937Y-10429063D01*
X12383063Y-10429063D01*
X12632063Y-9336063D02*
X12632063Y-9263937D01*
X12559937Y-9263937D01*
X12559937Y-9336063D01*
X12632063Y-9336063D01*
X12637063Y-10429063D02*
X12637063Y-10356937D01*
X12564937Y-10356937D01*
X12564937Y-10429063D01*
X12637063Y-10429063D01*
X12886063Y-9336063D02*
X12886063Y-9263937D01*
X12813937Y-9263937D01*
X12813937Y-9336063D01*
X12886063Y-9336063D01*
X12891063Y-10429063D02*
X12891063Y-10356937D01*
X12818937Y-10356937D01*
X12818937Y-10429063D01*
X12891063Y-10429063D01*
X13521063Y-4533063D02*
X13521063Y-4460937D01*
X13448937Y-4460937D01*
X13448937Y-4533063D01*
X13521063Y-4533063D01*
X13521063Y-4787063D02*
X13521063Y-4714937D01*
X13448937Y-4714937D01*
X13448937Y-4787063D01*
X13521063Y-4787063D01*
X13521063Y-5041063D02*
X13521063Y-4968937D01*
X13448937Y-4968937D01*
X13448937Y-5041063D01*
X13521063Y-5041063D01*
X13521063Y-5295063D02*
X13521063Y-5222937D01*
X13448937Y-5222937D01*
X13448937Y-5295063D01*
X13521063Y-5295063D01*
X13521063Y-5549063D02*
X13521063Y-5476937D01*
X13448937Y-5476937D01*
X13448937Y-5549063D01*
X13521063Y-5549063D01*
X13521063Y-5803063D02*
X13521063Y-5730937D01*
X13448937Y-5730937D01*
X13448937Y-5803063D01*
X13521063Y-5803063D01*
X13521063Y-6057063D02*
X13521063Y-5984937D01*
X13448937Y-5984937D01*
X13448937Y-6057063D01*
X13521063Y-6057063D01*
X13521063Y-6311063D02*
X13521063Y-6238937D01*
X13448937Y-6238937D01*
X13448937Y-6311063D01*
X13521063Y-6311063D01*
X13521063Y-6565063D02*
X13521063Y-6492937D01*
X13448937Y-6492937D01*
X13448937Y-6565063D01*
X13521063Y-6565063D01*
X13521063Y-6819063D02*
X13521063Y-6746937D01*
X13448937Y-6746937D01*
X13448937Y-6819063D01*
X13521063Y-6819063D01*
X13521063Y-7073063D02*
X13521063Y-7000937D01*
X13448937Y-7000937D01*
X13448937Y-7073063D01*
X13521063Y-7073063D01*
X13521063Y-7327063D02*
X13521063Y-7254937D01*
X13448937Y-7254937D01*
X13448937Y-7327063D01*
X13521063Y-7327063D01*
X13521063Y-7581063D02*
X13521063Y-7508937D01*
X13448937Y-7508937D01*
X13448937Y-7581063D01*
X13521063Y-7581063D01*
X13521063Y-7835063D02*
X13521063Y-7762937D01*
X13448937Y-7762937D01*
X13448937Y-7835063D01*
X13521063Y-7835063D01*
X13521063Y-8089063D02*
X13521063Y-8016937D01*
X13448937Y-8016937D01*
X13448937Y-8089063D01*
X13521063Y-8089063D01*
X13521063Y-8343063D02*
X13521063Y-8270937D01*
X13448937Y-8270937D01*
X13448937Y-8343063D01*
X13521063Y-8343063D01*
X13521063Y-8597063D02*
X13521063Y-8524937D01*
X13448937Y-8524937D01*
X13448937Y-8597063D01*
X13521063Y-8597063D01*
X13521063Y-8851063D02*
X13521063Y-8778937D01*
X13448937Y-8778937D01*
X13448937Y-8851063D01*
X13521063Y-8851063D01*
X13521063Y-9105063D02*
X13521063Y-9032937D01*
X13448937Y-9032937D01*
X13448937Y-9105063D01*
X13521063Y-9105063D01*
X13521063Y-9359063D02*
X13521063Y-9286937D01*
X13448937Y-9286937D01*
X13448937Y-9359063D01*
X13521063Y-9359063D01*
X13526063Y-10406063D02*
X13526063Y-10333937D01*
X13453937Y-10333937D01*
X13453937Y-10406063D01*
X13526063Y-10406063D01*
X13526063Y-10660063D02*
X13526063Y-10587937D01*
X13453937Y-10587937D01*
X13453937Y-10660063D01*
X13526063Y-10660063D01*
X13526063Y-10914063D02*
X13526063Y-10841937D01*
X13453937Y-10841937D01*
X13453937Y-10914063D01*
X13526063Y-10914063D01*
X13526063Y-11168063D02*
X13526063Y-11095937D01*
X13453937Y-11095937D01*
X13453937Y-11168063D01*
X13526063Y-11168063D01*
X13526063Y-11422063D02*
X13526063Y-11349937D01*
X13453937Y-11349937D01*
X13453937Y-11422063D01*
X13526063Y-11422063D01*
X13526063Y-11676063D02*
X13526063Y-11603937D01*
X13453937Y-11603937D01*
X13453937Y-11676063D01*
X13526063Y-11676063D01*
X13526063Y-11930063D02*
X13526063Y-11857937D01*
X13453937Y-11857937D01*
X13453937Y-11930063D01*
X13526063Y-11930063D01*
X13526063Y-12184063D02*
X13526063Y-12111937D01*
X13453937Y-12111937D01*
X13453937Y-12184063D01*
X13526063Y-12184063D01*
X13526063Y-12438063D02*
X13526063Y-12365937D01*
X13453937Y-12365937D01*
X13453937Y-12438063D01*
X13526063Y-12438063D01*
X13526063Y-12692063D02*
X13526063Y-12619937D01*
X13453937Y-12619937D01*
X13453937Y-12692063D01*
X13526063Y-12692063D01*
X13526063Y-12946063D02*
X13526063Y-12873937D01*
X13453937Y-12873937D01*
X13453937Y-12946063D01*
X13526063Y-12946063D01*
X13526063Y-13200063D02*
X13526063Y-13127937D01*
X13453937Y-13127937D01*
X13453937Y-13200063D01*
X13526063Y-13200063D01*
X13526063Y-13454063D02*
X13526063Y-13381937D01*
X13453937Y-13381937D01*
X13453937Y-13454063D01*
X13526063Y-13454063D01*
X13526063Y-13708063D02*
X13526063Y-13635937D01*
X13453937Y-13635937D01*
X13453937Y-13708063D01*
X13526063Y-13708063D01*
X13526063Y-13962063D02*
X13526063Y-13889937D01*
X13453937Y-13889937D01*
X13453937Y-13962063D01*
X13526063Y-13962063D01*
X13526063Y-14216063D02*
X13526063Y-14143937D01*
X13453937Y-14143937D01*
X13453937Y-14216063D01*
X13526063Y-14216063D01*
X13526063Y-14470063D02*
X13526063Y-14397937D01*
X13453937Y-14397937D01*
X13453937Y-14470063D01*
X13526063Y-14470063D01*
X13526063Y-14724063D02*
X13526063Y-14651937D01*
X13453937Y-14651937D01*
X13453937Y-14724063D01*
X13526063Y-14724063D01*
X13526063Y-14978063D02*
X13526063Y-14905937D01*
X13453937Y-14905937D01*
X13453937Y-14978063D01*
X13526063Y-14978063D01*
X13526063Y-15232063D02*
X13526063Y-15159937D01*
X13453937Y-15159937D01*
X13453937Y-15232063D01*
X13526063Y-15232063D01*
D15*
X7605000Y-3590000D02*
X7660000Y-3535000D01*
X7605000Y-3480000D01*
X7550000Y-3535000D01*
X7605000Y-3590000D01*
X7605000Y-4040000D02*
X7660000Y-3985000D01*
X7605000Y-3930000D01*
X7550000Y-3985000D01*
X7605000Y-4040000D01*
X8255000Y-3590000D02*
X8310000Y-3535000D01*
X8255000Y-3480000D01*
X8200000Y-3535000D01*
X8255000Y-3590000D01*
X8255000Y-4040000D02*
X8310000Y-3985000D01*
X8255000Y-3930000D01*
X8200000Y-3985000D01*
X8255000Y-4040000D01*
X8580000Y-3590000D02*
X8635000Y-3535000D01*
X8580000Y-3480000D01*
X8525000Y-3535000D01*
X8580000Y-3590000D01*
X8580000Y-4040000D02*
X8635000Y-3985000D01*
X8580000Y-3930000D01*
X8525000Y-3985000D01*
X8580000Y-4040000D01*
X9230000Y-3590000D02*
X9285000Y-3535000D01*
X9230000Y-3480000D01*
X9175000Y-3535000D01*
X9230000Y-3590000D01*
X9230000Y-4040000D02*
X9285000Y-3985000D01*
X9230000Y-3930000D01*
X9175000Y-3985000D01*
X9230000Y-4040000D01*
X9555000Y-3590000D02*
X9610000Y-3535000D01*
X9555000Y-3480000D01*
X9500000Y-3535000D01*
X9555000Y-3590000D01*
X9555000Y-4040000D02*
X9610000Y-3985000D01*
X9555000Y-3930000D01*
X9500000Y-3985000D01*
X9555000Y-4040000D01*
X9592000Y-4795000D02*
X9647000Y-4740000D01*
X9592000Y-4685000D01*
X9537000Y-4740000D01*
X9592000Y-4795000D01*
X9592000Y-5170000D02*
X9647000Y-5115000D01*
X9592000Y-5060000D01*
X9537000Y-5115000D01*
X9592000Y-5170000D01*
X10205000Y-3590000D02*
X10260000Y-3535000D01*
X10205000Y-3480000D01*
X10150000Y-3535000D01*
X10205000Y-3590000D01*
X10205000Y-4040000D02*
X10260000Y-3985000D01*
X10205000Y-3930000D01*
X10150000Y-3985000D01*
X10205000Y-4040000D01*
X10530000Y-3590000D02*
X10585000Y-3535000D01*
X10530000Y-3480000D01*
X10475000Y-3535000D01*
X10530000Y-3590000D01*
X10530000Y-4040000D02*
X10585000Y-3985000D01*
X10530000Y-3930000D01*
X10475000Y-3985000D01*
X10530000Y-4040000D01*
X10608000Y-4795000D02*
X10663000Y-4740000D01*
X10608000Y-4685000D01*
X10553000Y-4740000D01*
X10608000Y-4795000D01*
X10608000Y-5170000D02*
X10663000Y-5115000D01*
X10608000Y-5060000D01*
X10553000Y-5115000D01*
X10608000Y-5170000D01*
X11180000Y-3590000D02*
X11235000Y-3535000D01*
X11180000Y-3480000D01*
X11125000Y-3535000D01*
X11180000Y-3590000D01*
X11180000Y-4040000D02*
X11235000Y-3985000D01*
X11180000Y-3930000D01*
X11125000Y-3985000D01*
X11180000Y-4040000D01*
X11505000Y-3590000D02*
X11560000Y-3535000D01*
X11505000Y-3480000D01*
X11450000Y-3535000D01*
X11505000Y-3590000D01*
X11505000Y-4040000D02*
X11560000Y-3985000D01*
X11505000Y-3930000D01*
X11450000Y-3985000D01*
X11505000Y-4040000D01*
X12155000Y-3590000D02*
X12210000Y-3535000D01*
X12155000Y-3480000D01*
X12100000Y-3535000D01*
X12155000Y-3590000D01*
X12155000Y-4040000D02*
X12210000Y-3985000D01*
X12155000Y-3930000D01*
X12100000Y-3985000D01*
X12155000Y-4040000D01*
D16*
X7774000Y-4580000D02*
X7926000Y-4732000D01*
X7926000Y-4580000D02*
X7774000Y-4732000D01*
X7926000Y-4656000D02*
G75*
G03*
X7926000Y-4656000I-76000J0D01*
G01*
X7774000Y-5088000D02*
X7926000Y-5240000D01*
X7926000Y-5088000D02*
X7774000Y-5240000D01*
X7926000Y-5164000D02*
G75*
G03*
X7926000Y-5164000I-76000J0D01*
G01*
D17*
X8321500Y-5745500D02*
X8478500Y-5902500D01*
X8478500Y-5745500D02*
X8321500Y-5902500D01*
X8400000Y-5745500D02*
X8400000Y-5902500D01*
X8321500Y-5824000D02*
X8478500Y-5824000D01*
X8321500Y-7371500D02*
X8478500Y-7528500D01*
X8478500Y-7371500D02*
X8321500Y-7528500D01*
X8400000Y-7371500D02*
X8400000Y-7528500D01*
X8321500Y-7450000D02*
X8478500Y-7450000D01*
X8321500Y-7745500D02*
X8478500Y-7902500D01*
X8478500Y-7745500D02*
X8321500Y-7902500D01*
X8400000Y-7745500D02*
X8400000Y-7902500D01*
X8321500Y-7824000D02*
X8478500Y-7824000D01*
X8321500Y-9371500D02*
X8478500Y-9528500D01*
X8478500Y-9371500D02*
X8321500Y-9528500D01*
X8400000Y-9371500D02*
X8400000Y-9528500D01*
X8321500Y-9450000D02*
X8478500Y-9450000D01*
D10*
X7205777Y-16416484D02*
X7205777Y-16216484D01*
X7205777Y-16216484D02*
X7253396Y-16216484D01*
X7253396Y-16216484D02*
X7281967Y-16226008D01*
X7281967Y-16226008D02*
X7301015Y-16245055D01*
X7301015Y-16245055D02*
X7310539Y-16264103D01*
X7310539Y-16264103D02*
X7320062Y-16302198D01*
X7320062Y-16302198D02*
X7320062Y-16330769D01*
X7320062Y-16330769D02*
X7310539Y-16368865D01*
X7310539Y-16368865D02*
X7301015Y-16387912D01*
X7301015Y-16387912D02*
X7281967Y-16406960D01*
X7281967Y-16406960D02*
X7253396Y-16416484D01*
X7253396Y-16416484D02*
X7205777Y-16416484D01*
X7405777Y-16416484D02*
X7405777Y-16283150D01*
X7405777Y-16321246D02*
X7415301Y-16302198D01*
X7415301Y-16302198D02*
X7424824Y-16292674D01*
X7424824Y-16292674D02*
X7443872Y-16283150D01*
X7443872Y-16283150D02*
X7462920Y-16283150D01*
X7529586Y-16416484D02*
X7529586Y-16283150D01*
X7529586Y-16216484D02*
X7520062Y-16226008D01*
X7520062Y-16226008D02*
X7529586Y-16235531D01*
X7529586Y-16235531D02*
X7539110Y-16226008D01*
X7539110Y-16226008D02*
X7529586Y-16216484D01*
X7529586Y-16216484D02*
X7529586Y-16235531D01*
X7653396Y-16416484D02*
X7634348Y-16406960D01*
X7634348Y-16406960D02*
X7624824Y-16387912D01*
X7624824Y-16387912D02*
X7624824Y-16216484D01*
X7758158Y-16416484D02*
X7739110Y-16406960D01*
X7739110Y-16406960D02*
X7729586Y-16387912D01*
X7729586Y-16387912D02*
X7729586Y-16216484D01*
X7986729Y-16416484D02*
X7986729Y-16216484D01*
X7986729Y-16216484D02*
X8053396Y-16359341D01*
X8053396Y-16359341D02*
X8120062Y-16216484D01*
X8120062Y-16216484D02*
X8120062Y-16416484D01*
X8301015Y-16416484D02*
X8301015Y-16311722D01*
X8301015Y-16311722D02*
X8291491Y-16292674D01*
X8291491Y-16292674D02*
X8272443Y-16283150D01*
X8272443Y-16283150D02*
X8234348Y-16283150D01*
X8234348Y-16283150D02*
X8215301Y-16292674D01*
X8301015Y-16406960D02*
X8281967Y-16416484D01*
X8281967Y-16416484D02*
X8234348Y-16416484D01*
X8234348Y-16416484D02*
X8215301Y-16406960D01*
X8215301Y-16406960D02*
X8205777Y-16387912D01*
X8205777Y-16387912D02*
X8205777Y-16368865D01*
X8205777Y-16368865D02*
X8215301Y-16349817D01*
X8215301Y-16349817D02*
X8234348Y-16340293D01*
X8234348Y-16340293D02*
X8281967Y-16340293D01*
X8281967Y-16340293D02*
X8301015Y-16330769D01*
X8396253Y-16283150D02*
X8396253Y-16483150D01*
X8396253Y-16292674D02*
X8415301Y-16283150D01*
X8415301Y-16283150D02*
X8453396Y-16283150D01*
X8453396Y-16283150D02*
X8472444Y-16292674D01*
X8472444Y-16292674D02*
X8481967Y-16302198D01*
X8481967Y-16302198D02*
X8491491Y-16321246D01*
X8491491Y-16321246D02*
X8491491Y-16378388D01*
X8491491Y-16378388D02*
X8481967Y-16397436D01*
X8481967Y-16397436D02*
X8472444Y-16406960D01*
X8472444Y-16406960D02*
X8453396Y-16416484D01*
X8453396Y-16416484D02*
X8415301Y-16416484D01*
X8415301Y-16416484D02*
X8396253Y-16406960D01*
X8577205Y-16397436D02*
X8586729Y-16406960D01*
X8586729Y-16406960D02*
X8577205Y-16416484D01*
X8577205Y-16416484D02*
X8567682Y-16406960D01*
X8567682Y-16406960D02*
X8577205Y-16397436D01*
X8577205Y-16397436D02*
X8577205Y-16416484D01*
X8577205Y-16292674D02*
X8586729Y-16302198D01*
X8586729Y-16302198D02*
X8577205Y-16311722D01*
X8577205Y-16311722D02*
X8567682Y-16302198D01*
X8567682Y-16302198D02*
X8577205Y-16292674D01*
X8577205Y-16292674D02*
X8577205Y-16311722D01*
D12*
X6915000Y-16730000D02*
X6945000Y-16760000D01*
X6945000Y-16730000D02*
X6915000Y-16760000D01*
D10*
X7243872Y-16636484D02*
X7262920Y-16636484D01*
X7262920Y-16636484D02*
X7281967Y-16646008D01*
X7281967Y-16646008D02*
X7291491Y-16655531D01*
X7291491Y-16655531D02*
X7301015Y-16674579D01*
X7301015Y-16674579D02*
X7310539Y-16712674D01*
X7310539Y-16712674D02*
X7310539Y-16760293D01*
X7310539Y-16760293D02*
X7301015Y-16798389D01*
X7301015Y-16798389D02*
X7291491Y-16817436D01*
X7291491Y-16817436D02*
X7281967Y-16826960D01*
X7281967Y-16826960D02*
X7262920Y-16836484D01*
X7262920Y-16836484D02*
X7243872Y-16836484D01*
X7243872Y-16836484D02*
X7224824Y-16826960D01*
X7224824Y-16826960D02*
X7215301Y-16817436D01*
X7215301Y-16817436D02*
X7205777Y-16798389D01*
X7205777Y-16798389D02*
X7196253Y-16760293D01*
X7196253Y-16760293D02*
X7196253Y-16712674D01*
X7196253Y-16712674D02*
X7205777Y-16674579D01*
X7205777Y-16674579D02*
X7215301Y-16655531D01*
X7215301Y-16655531D02*
X7224824Y-16646008D01*
X7224824Y-16646008D02*
X7243872Y-16636484D01*
X7396253Y-16817436D02*
X7405777Y-16826960D01*
X7405777Y-16826960D02*
X7396253Y-16836484D01*
X7396253Y-16836484D02*
X7386729Y-16826960D01*
X7386729Y-16826960D02*
X7396253Y-16817436D01*
X7396253Y-16817436D02*
X7396253Y-16836484D01*
X7472443Y-16636484D02*
X7596253Y-16636484D01*
X7596253Y-16636484D02*
X7529586Y-16712674D01*
X7529586Y-16712674D02*
X7558158Y-16712674D01*
X7558158Y-16712674D02*
X7577205Y-16722198D01*
X7577205Y-16722198D02*
X7586729Y-16731722D01*
X7586729Y-16731722D02*
X7596253Y-16750769D01*
X7596253Y-16750769D02*
X7596253Y-16798389D01*
X7596253Y-16798389D02*
X7586729Y-16817436D01*
X7586729Y-16817436D02*
X7577205Y-16826960D01*
X7577205Y-16826960D02*
X7558158Y-16836484D01*
X7558158Y-16836484D02*
X7501015Y-16836484D01*
X7501015Y-16836484D02*
X7481967Y-16826960D01*
X7481967Y-16826960D02*
X7472443Y-16817436D01*
X7720062Y-16636484D02*
X7739110Y-16636484D01*
X7739110Y-16636484D02*
X7758158Y-16646008D01*
X7758158Y-16646008D02*
X7767682Y-16655531D01*
X7767682Y-16655531D02*
X7777205Y-16674579D01*
X7777205Y-16674579D02*
X7786729Y-16712674D01*
X7786729Y-16712674D02*
X7786729Y-16760293D01*
X7786729Y-16760293D02*
X7777205Y-16798389D01*
X7777205Y-16798389D02*
X7767682Y-16817436D01*
X7767682Y-16817436D02*
X7758158Y-16826960D01*
X7758158Y-16826960D02*
X7739110Y-16836484D01*
X7739110Y-16836484D02*
X7720062Y-16836484D01*
X7720062Y-16836484D02*
X7701015Y-16826960D01*
X7701015Y-16826960D02*
X7691491Y-16817436D01*
X7691491Y-16817436D02*
X7681967Y-16798389D01*
X7681967Y-16798389D02*
X7672443Y-16760293D01*
X7672443Y-16760293D02*
X7672443Y-16712674D01*
X7672443Y-16712674D02*
X7681967Y-16674579D01*
X7681967Y-16674579D02*
X7691491Y-16655531D01*
X7691491Y-16655531D02*
X7701015Y-16646008D01*
X7701015Y-16646008D02*
X7720062Y-16636484D01*
X7910539Y-16636484D02*
X7929586Y-16636484D01*
X7929586Y-16636484D02*
X7948634Y-16646008D01*
X7948634Y-16646008D02*
X7958158Y-16655531D01*
X7958158Y-16655531D02*
X7967682Y-16674579D01*
X7967682Y-16674579D02*
X7977205Y-16712674D01*
X7977205Y-16712674D02*
X7977205Y-16760293D01*
X7977205Y-16760293D02*
X7967682Y-16798389D01*
X7967682Y-16798389D02*
X7958158Y-16817436D01*
X7958158Y-16817436D02*
X7948634Y-16826960D01*
X7948634Y-16826960D02*
X7929586Y-16836484D01*
X7929586Y-16836484D02*
X7910539Y-16836484D01*
X7910539Y-16836484D02*
X7891491Y-16826960D01*
X7891491Y-16826960D02*
X7881967Y-16817436D01*
X7881967Y-16817436D02*
X7872443Y-16798389D01*
X7872443Y-16798389D02*
X7862920Y-16760293D01*
X7862920Y-16760293D02*
X7862920Y-16712674D01*
X7862920Y-16712674D02*
X7872443Y-16674579D01*
X7872443Y-16674579D02*
X7881967Y-16655531D01*
X7881967Y-16655531D02*
X7891491Y-16646008D01*
X7891491Y-16646008D02*
X7910539Y-16636484D01*
X8062920Y-16836484D02*
X8062920Y-16703150D01*
X8062920Y-16722198D02*
X8072443Y-16712674D01*
X8072443Y-16712674D02*
X8091491Y-16703150D01*
X8091491Y-16703150D02*
X8120063Y-16703150D01*
X8120063Y-16703150D02*
X8139110Y-16712674D01*
X8139110Y-16712674D02*
X8148634Y-16731722D01*
X8148634Y-16731722D02*
X8148634Y-16836484D01*
X8148634Y-16731722D02*
X8158158Y-16712674D01*
X8158158Y-16712674D02*
X8177205Y-16703150D01*
X8177205Y-16703150D02*
X8205777Y-16703150D01*
X8205777Y-16703150D02*
X8224824Y-16712674D01*
X8224824Y-16712674D02*
X8234348Y-16731722D01*
X8234348Y-16731722D02*
X8234348Y-16836484D01*
X8329586Y-16836484D02*
X8329586Y-16703150D01*
X8329586Y-16722198D02*
X8339110Y-16712674D01*
X8339110Y-16712674D02*
X8358158Y-16703150D01*
X8358158Y-16703150D02*
X8386729Y-16703150D01*
X8386729Y-16703150D02*
X8405777Y-16712674D01*
X8405777Y-16712674D02*
X8415301Y-16731722D01*
X8415301Y-16731722D02*
X8415301Y-16836484D01*
X8415301Y-16731722D02*
X8424825Y-16712674D01*
X8424825Y-16712674D02*
X8443872Y-16703150D01*
X8443872Y-16703150D02*
X8472444Y-16703150D01*
X8472444Y-16703150D02*
X8491491Y-16712674D01*
X8491491Y-16712674D02*
X8501015Y-16731722D01*
X8501015Y-16731722D02*
X8501015Y-16836484D01*
X8891491Y-16626960D02*
X8720063Y-16884103D01*
X9148634Y-16636484D02*
X9167682Y-16636484D01*
X9167682Y-16636484D02*
X9186729Y-16646008D01*
X9186729Y-16646008D02*
X9196253Y-16655531D01*
X9196253Y-16655531D02*
X9205777Y-16674579D01*
X9205777Y-16674579D02*
X9215301Y-16712674D01*
X9215301Y-16712674D02*
X9215301Y-16760293D01*
X9215301Y-16760293D02*
X9205777Y-16798389D01*
X9205777Y-16798389D02*
X9196253Y-16817436D01*
X9196253Y-16817436D02*
X9186729Y-16826960D01*
X9186729Y-16826960D02*
X9167682Y-16836484D01*
X9167682Y-16836484D02*
X9148634Y-16836484D01*
X9148634Y-16836484D02*
X9129587Y-16826960D01*
X9129587Y-16826960D02*
X9120063Y-16817436D01*
X9120063Y-16817436D02*
X9110539Y-16798389D01*
X9110539Y-16798389D02*
X9101015Y-16760293D01*
X9101015Y-16760293D02*
X9101015Y-16712674D01*
X9101015Y-16712674D02*
X9110539Y-16674579D01*
X9110539Y-16674579D02*
X9120063Y-16655531D01*
X9120063Y-16655531D02*
X9129587Y-16646008D01*
X9129587Y-16646008D02*
X9148634Y-16636484D01*
X9301015Y-16817436D02*
X9310539Y-16826960D01*
X9310539Y-16826960D02*
X9301015Y-16836484D01*
X9301015Y-16836484D02*
X9291491Y-16826960D01*
X9291491Y-16826960D02*
X9301015Y-16817436D01*
X9301015Y-16817436D02*
X9301015Y-16836484D01*
X9434348Y-16636484D02*
X9453396Y-16636484D01*
X9453396Y-16636484D02*
X9472444Y-16646008D01*
X9472444Y-16646008D02*
X9481968Y-16655531D01*
X9481968Y-16655531D02*
X9491491Y-16674579D01*
X9491491Y-16674579D02*
X9501015Y-16712674D01*
X9501015Y-16712674D02*
X9501015Y-16760293D01*
X9501015Y-16760293D02*
X9491491Y-16798389D01*
X9491491Y-16798389D02*
X9481968Y-16817436D01*
X9481968Y-16817436D02*
X9472444Y-16826960D01*
X9472444Y-16826960D02*
X9453396Y-16836484D01*
X9453396Y-16836484D02*
X9434348Y-16836484D01*
X9434348Y-16836484D02*
X9415301Y-16826960D01*
X9415301Y-16826960D02*
X9405777Y-16817436D01*
X9405777Y-16817436D02*
X9396253Y-16798389D01*
X9396253Y-16798389D02*
X9386729Y-16760293D01*
X9386729Y-16760293D02*
X9386729Y-16712674D01*
X9386729Y-16712674D02*
X9396253Y-16674579D01*
X9396253Y-16674579D02*
X9405777Y-16655531D01*
X9405777Y-16655531D02*
X9415301Y-16646008D01*
X9415301Y-16646008D02*
X9434348Y-16636484D01*
X9691491Y-16836484D02*
X9577206Y-16836484D01*
X9634348Y-16836484D02*
X9634348Y-16636484D01*
X9634348Y-16636484D02*
X9615301Y-16665055D01*
X9615301Y-16665055D02*
X9596253Y-16684103D01*
X9596253Y-16684103D02*
X9577206Y-16693627D01*
X9881968Y-16836484D02*
X9767682Y-16836484D01*
X9824825Y-16836484D02*
X9824825Y-16636484D01*
X9824825Y-16636484D02*
X9805777Y-16665055D01*
X9805777Y-16665055D02*
X9786729Y-16684103D01*
X9786729Y-16684103D02*
X9767682Y-16693627D01*
X9996253Y-16722198D02*
X9977206Y-16712674D01*
X9977206Y-16712674D02*
X9967682Y-16703150D01*
X9967682Y-16703150D02*
X9958158Y-16684103D01*
X9958158Y-16684103D02*
X9958158Y-16674579D01*
X9958158Y-16674579D02*
X9967682Y-16655531D01*
X9967682Y-16655531D02*
X9977206Y-16646008D01*
X9977206Y-16646008D02*
X9996253Y-16636484D01*
X9996253Y-16636484D02*
X10034349Y-16636484D01*
X10034349Y-16636484D02*
X10053396Y-16646008D01*
X10053396Y-16646008D02*
X10062920Y-16655531D01*
X10062920Y-16655531D02*
X10072444Y-16674579D01*
X10072444Y-16674579D02*
X10072444Y-16684103D01*
X10072444Y-16684103D02*
X10062920Y-16703150D01*
X10062920Y-16703150D02*
X10053396Y-16712674D01*
X10053396Y-16712674D02*
X10034349Y-16722198D01*
X10034349Y-16722198D02*
X9996253Y-16722198D01*
X9996253Y-16722198D02*
X9977206Y-16731722D01*
X9977206Y-16731722D02*
X9967682Y-16741246D01*
X9967682Y-16741246D02*
X9958158Y-16760293D01*
X9958158Y-16760293D02*
X9958158Y-16798389D01*
X9958158Y-16798389D02*
X9967682Y-16817436D01*
X9967682Y-16817436D02*
X9977206Y-16826960D01*
X9977206Y-16826960D02*
X9996253Y-16836484D01*
X9996253Y-16836484D02*
X10034349Y-16836484D01*
X10034349Y-16836484D02*
X10053396Y-16826960D01*
X10053396Y-16826960D02*
X10062920Y-16817436D01*
X10062920Y-16817436D02*
X10072444Y-16798389D01*
X10072444Y-16798389D02*
X10072444Y-16760293D01*
X10072444Y-16760293D02*
X10062920Y-16741246D01*
X10062920Y-16741246D02*
X10053396Y-16731722D01*
X10053396Y-16731722D02*
X10034349Y-16722198D01*
X10148634Y-16636484D02*
X10148634Y-16674579D01*
X10224825Y-16636484D02*
X10224825Y-16674579D01*
X10520063Y-16912674D02*
X10510539Y-16903150D01*
X10510539Y-16903150D02*
X10491491Y-16874579D01*
X10491491Y-16874579D02*
X10481968Y-16855531D01*
X10481968Y-16855531D02*
X10472444Y-16826960D01*
X10472444Y-16826960D02*
X10462920Y-16779341D01*
X10462920Y-16779341D02*
X10462920Y-16741246D01*
X10462920Y-16741246D02*
X10472444Y-16693627D01*
X10472444Y-16693627D02*
X10481968Y-16665055D01*
X10481968Y-16665055D02*
X10491491Y-16646008D01*
X10491491Y-16646008D02*
X10510539Y-16617436D01*
X10510539Y-16617436D02*
X10520063Y-16607912D01*
X10701015Y-16836484D02*
X10586730Y-16836484D01*
X10643872Y-16836484D02*
X10643872Y-16636484D01*
X10643872Y-16636484D02*
X10624825Y-16665055D01*
X10624825Y-16665055D02*
X10605777Y-16684103D01*
X10605777Y-16684103D02*
X10586730Y-16693627D01*
X10881968Y-16636484D02*
X10786730Y-16636484D01*
X10786730Y-16636484D02*
X10777206Y-16731722D01*
X10777206Y-16731722D02*
X10786730Y-16722198D01*
X10786730Y-16722198D02*
X10805777Y-16712674D01*
X10805777Y-16712674D02*
X10853396Y-16712674D01*
X10853396Y-16712674D02*
X10872444Y-16722198D01*
X10872444Y-16722198D02*
X10881968Y-16731722D01*
X10881968Y-16731722D02*
X10891491Y-16750769D01*
X10891491Y-16750769D02*
X10891491Y-16798389D01*
X10891491Y-16798389D02*
X10881968Y-16817436D01*
X10881968Y-16817436D02*
X10872444Y-16826960D01*
X10872444Y-16826960D02*
X10853396Y-16836484D01*
X10853396Y-16836484D02*
X10805777Y-16836484D01*
X10805777Y-16836484D02*
X10786730Y-16826960D01*
X10786730Y-16826960D02*
X10777206Y-16817436D01*
X11129587Y-16836484D02*
X11129587Y-16636484D01*
X11215301Y-16836484D02*
X11215301Y-16731722D01*
X11215301Y-16731722D02*
X11205777Y-16712674D01*
X11205777Y-16712674D02*
X11186730Y-16703150D01*
X11186730Y-16703150D02*
X11158158Y-16703150D01*
X11158158Y-16703150D02*
X11139111Y-16712674D01*
X11139111Y-16712674D02*
X11129587Y-16722198D01*
X11339110Y-16836484D02*
X11320063Y-16826960D01*
X11320063Y-16826960D02*
X11310539Y-16817436D01*
X11310539Y-16817436D02*
X11301015Y-16798389D01*
X11301015Y-16798389D02*
X11301015Y-16741246D01*
X11301015Y-16741246D02*
X11310539Y-16722198D01*
X11310539Y-16722198D02*
X11320063Y-16712674D01*
X11320063Y-16712674D02*
X11339110Y-16703150D01*
X11339110Y-16703150D02*
X11367682Y-16703150D01*
X11367682Y-16703150D02*
X11386730Y-16712674D01*
X11386730Y-16712674D02*
X11396253Y-16722198D01*
X11396253Y-16722198D02*
X11405777Y-16741246D01*
X11405777Y-16741246D02*
X11405777Y-16798389D01*
X11405777Y-16798389D02*
X11396253Y-16817436D01*
X11396253Y-16817436D02*
X11386730Y-16826960D01*
X11386730Y-16826960D02*
X11367682Y-16836484D01*
X11367682Y-16836484D02*
X11339110Y-16836484D01*
X11520063Y-16836484D02*
X11501015Y-16826960D01*
X11501015Y-16826960D02*
X11491491Y-16807912D01*
X11491491Y-16807912D02*
X11491491Y-16636484D01*
X11672444Y-16826960D02*
X11653396Y-16836484D01*
X11653396Y-16836484D02*
X11615301Y-16836484D01*
X11615301Y-16836484D02*
X11596253Y-16826960D01*
X11596253Y-16826960D02*
X11586730Y-16807912D01*
X11586730Y-16807912D02*
X11586730Y-16731722D01*
X11586730Y-16731722D02*
X11596253Y-16712674D01*
X11596253Y-16712674D02*
X11615301Y-16703150D01*
X11615301Y-16703150D02*
X11653396Y-16703150D01*
X11653396Y-16703150D02*
X11672444Y-16712674D01*
X11672444Y-16712674D02*
X11681968Y-16731722D01*
X11681968Y-16731722D02*
X11681968Y-16750769D01*
X11681968Y-16750769D02*
X11586730Y-16769817D01*
X11758158Y-16826960D02*
X11777206Y-16836484D01*
X11777206Y-16836484D02*
X11815301Y-16836484D01*
X11815301Y-16836484D02*
X11834349Y-16826960D01*
X11834349Y-16826960D02*
X11843872Y-16807912D01*
X11843872Y-16807912D02*
X11843872Y-16798389D01*
X11843872Y-16798389D02*
X11834349Y-16779341D01*
X11834349Y-16779341D02*
X11815301Y-16769817D01*
X11815301Y-16769817D02*
X11786730Y-16769817D01*
X11786730Y-16769817D02*
X11767682Y-16760293D01*
X11767682Y-16760293D02*
X11758158Y-16741246D01*
X11758158Y-16741246D02*
X11758158Y-16731722D01*
X11758158Y-16731722D02*
X11767682Y-16712674D01*
X11767682Y-16712674D02*
X11786730Y-16703150D01*
X11786730Y-16703150D02*
X11815301Y-16703150D01*
X11815301Y-16703150D02*
X11834349Y-16712674D01*
X11910539Y-16912674D02*
X11920063Y-16903150D01*
X11920063Y-16903150D02*
X11939111Y-16874579D01*
X11939111Y-16874579D02*
X11948634Y-16855531D01*
X11948634Y-16855531D02*
X11958158Y-16826960D01*
X11958158Y-16826960D02*
X11967682Y-16779341D01*
X11967682Y-16779341D02*
X11967682Y-16741246D01*
X11967682Y-16741246D02*
X11958158Y-16693627D01*
X11958158Y-16693627D02*
X11948634Y-16665055D01*
X11948634Y-16665055D02*
X11939111Y-16646008D01*
X11939111Y-16646008D02*
X11920063Y-16617436D01*
X11920063Y-16617436D02*
X11910539Y-16607912D01*
D13*
X6945000Y-17009000D02*
G75*
G03*
X6945000Y-17009000I-44500J0D01*
G01*
D10*
X7243872Y-16900484D02*
X7262920Y-16900484D01*
X7262920Y-16900484D02*
X7281967Y-16910008D01*
X7281967Y-16910008D02*
X7291491Y-16919531D01*
X7291491Y-16919531D02*
X7301015Y-16938579D01*
X7301015Y-16938579D02*
X7310539Y-16976674D01*
X7310539Y-16976674D02*
X7310539Y-17024293D01*
X7310539Y-17024293D02*
X7301015Y-17062389D01*
X7301015Y-17062389D02*
X7291491Y-17081436D01*
X7291491Y-17081436D02*
X7281967Y-17090960D01*
X7281967Y-17090960D02*
X7262920Y-17100484D01*
X7262920Y-17100484D02*
X7243872Y-17100484D01*
X7243872Y-17100484D02*
X7224824Y-17090960D01*
X7224824Y-17090960D02*
X7215301Y-17081436D01*
X7215301Y-17081436D02*
X7205777Y-17062389D01*
X7205777Y-17062389D02*
X7196253Y-17024293D01*
X7196253Y-17024293D02*
X7196253Y-16976674D01*
X7196253Y-16976674D02*
X7205777Y-16938579D01*
X7205777Y-16938579D02*
X7215301Y-16919531D01*
X7215301Y-16919531D02*
X7224824Y-16910008D01*
X7224824Y-16910008D02*
X7243872Y-16900484D01*
X7396253Y-17081436D02*
X7405777Y-17090960D01*
X7405777Y-17090960D02*
X7396253Y-17100484D01*
X7396253Y-17100484D02*
X7386729Y-17090960D01*
X7386729Y-17090960D02*
X7396253Y-17081436D01*
X7396253Y-17081436D02*
X7396253Y-17100484D01*
X7520062Y-16986198D02*
X7501015Y-16976674D01*
X7501015Y-16976674D02*
X7491491Y-16967150D01*
X7491491Y-16967150D02*
X7481967Y-16948103D01*
X7481967Y-16948103D02*
X7481967Y-16938579D01*
X7481967Y-16938579D02*
X7491491Y-16919531D01*
X7491491Y-16919531D02*
X7501015Y-16910008D01*
X7501015Y-16910008D02*
X7520062Y-16900484D01*
X7520062Y-16900484D02*
X7558158Y-16900484D01*
X7558158Y-16900484D02*
X7577205Y-16910008D01*
X7577205Y-16910008D02*
X7586729Y-16919531D01*
X7586729Y-16919531D02*
X7596253Y-16938579D01*
X7596253Y-16938579D02*
X7596253Y-16948103D01*
X7596253Y-16948103D02*
X7586729Y-16967150D01*
X7586729Y-16967150D02*
X7577205Y-16976674D01*
X7577205Y-16976674D02*
X7558158Y-16986198D01*
X7558158Y-16986198D02*
X7520062Y-16986198D01*
X7520062Y-16986198D02*
X7501015Y-16995722D01*
X7501015Y-16995722D02*
X7491491Y-17005246D01*
X7491491Y-17005246D02*
X7481967Y-17024293D01*
X7481967Y-17024293D02*
X7481967Y-17062389D01*
X7481967Y-17062389D02*
X7491491Y-17081436D01*
X7491491Y-17081436D02*
X7501015Y-17090960D01*
X7501015Y-17090960D02*
X7520062Y-17100484D01*
X7520062Y-17100484D02*
X7558158Y-17100484D01*
X7558158Y-17100484D02*
X7577205Y-17090960D01*
X7577205Y-17090960D02*
X7586729Y-17081436D01*
X7586729Y-17081436D02*
X7596253Y-17062389D01*
X7596253Y-17062389D02*
X7596253Y-17024293D01*
X7596253Y-17024293D02*
X7586729Y-17005246D01*
X7586729Y-17005246D02*
X7577205Y-16995722D01*
X7577205Y-16995722D02*
X7558158Y-16986198D01*
X7691491Y-17100484D02*
X7729586Y-17100484D01*
X7729586Y-17100484D02*
X7748634Y-17090960D01*
X7748634Y-17090960D02*
X7758158Y-17081436D01*
X7758158Y-17081436D02*
X7777205Y-17052865D01*
X7777205Y-17052865D02*
X7786729Y-17014770D01*
X7786729Y-17014770D02*
X7786729Y-16938579D01*
X7786729Y-16938579D02*
X7777205Y-16919531D01*
X7777205Y-16919531D02*
X7767682Y-16910008D01*
X7767682Y-16910008D02*
X7748634Y-16900484D01*
X7748634Y-16900484D02*
X7710539Y-16900484D01*
X7710539Y-16900484D02*
X7691491Y-16910008D01*
X7691491Y-16910008D02*
X7681967Y-16919531D01*
X7681967Y-16919531D02*
X7672443Y-16938579D01*
X7672443Y-16938579D02*
X7672443Y-16986198D01*
X7672443Y-16986198D02*
X7681967Y-17005246D01*
X7681967Y-17005246D02*
X7691491Y-17014770D01*
X7691491Y-17014770D02*
X7710539Y-17024293D01*
X7710539Y-17024293D02*
X7748634Y-17024293D01*
X7748634Y-17024293D02*
X7767682Y-17014770D01*
X7767682Y-17014770D02*
X7777205Y-17005246D01*
X7777205Y-17005246D02*
X7786729Y-16986198D01*
X7910539Y-16900484D02*
X7929586Y-16900484D01*
X7929586Y-16900484D02*
X7948634Y-16910008D01*
X7948634Y-16910008D02*
X7958158Y-16919531D01*
X7958158Y-16919531D02*
X7967682Y-16938579D01*
X7967682Y-16938579D02*
X7977205Y-16976674D01*
X7977205Y-16976674D02*
X7977205Y-17024293D01*
X7977205Y-17024293D02*
X7967682Y-17062389D01*
X7967682Y-17062389D02*
X7958158Y-17081436D01*
X7958158Y-17081436D02*
X7948634Y-17090960D01*
X7948634Y-17090960D02*
X7929586Y-17100484D01*
X7929586Y-17100484D02*
X7910539Y-17100484D01*
X7910539Y-17100484D02*
X7891491Y-17090960D01*
X7891491Y-17090960D02*
X7881967Y-17081436D01*
X7881967Y-17081436D02*
X7872443Y-17062389D01*
X7872443Y-17062389D02*
X7862920Y-17024293D01*
X7862920Y-17024293D02*
X7862920Y-16976674D01*
X7862920Y-16976674D02*
X7872443Y-16938579D01*
X7872443Y-16938579D02*
X7881967Y-16919531D01*
X7881967Y-16919531D02*
X7891491Y-16910008D01*
X7891491Y-16910008D02*
X7910539Y-16900484D01*
X8062920Y-17100484D02*
X8062920Y-16967150D01*
X8062920Y-16986198D02*
X8072443Y-16976674D01*
X8072443Y-16976674D02*
X8091491Y-16967150D01*
X8091491Y-16967150D02*
X8120063Y-16967150D01*
X8120063Y-16967150D02*
X8139110Y-16976674D01*
X8139110Y-16976674D02*
X8148634Y-16995722D01*
X8148634Y-16995722D02*
X8148634Y-17100484D01*
X8148634Y-16995722D02*
X8158158Y-16976674D01*
X8158158Y-16976674D02*
X8177205Y-16967150D01*
X8177205Y-16967150D02*
X8205777Y-16967150D01*
X8205777Y-16967150D02*
X8224824Y-16976674D01*
X8224824Y-16976674D02*
X8234348Y-16995722D01*
X8234348Y-16995722D02*
X8234348Y-17100484D01*
X8329586Y-17100484D02*
X8329586Y-16967150D01*
X8329586Y-16986198D02*
X8339110Y-16976674D01*
X8339110Y-16976674D02*
X8358158Y-16967150D01*
X8358158Y-16967150D02*
X8386729Y-16967150D01*
X8386729Y-16967150D02*
X8405777Y-16976674D01*
X8405777Y-16976674D02*
X8415301Y-16995722D01*
X8415301Y-16995722D02*
X8415301Y-17100484D01*
X8415301Y-16995722D02*
X8424825Y-16976674D01*
X8424825Y-16976674D02*
X8443872Y-16967150D01*
X8443872Y-16967150D02*
X8472444Y-16967150D01*
X8472444Y-16967150D02*
X8491491Y-16976674D01*
X8491491Y-16976674D02*
X8501015Y-16995722D01*
X8501015Y-16995722D02*
X8501015Y-17100484D01*
X8891491Y-16890960D02*
X8720063Y-17148103D01*
X9148634Y-16900484D02*
X9167682Y-16900484D01*
X9167682Y-16900484D02*
X9186729Y-16910008D01*
X9186729Y-16910008D02*
X9196253Y-16919531D01*
X9196253Y-16919531D02*
X9205777Y-16938579D01*
X9205777Y-16938579D02*
X9215301Y-16976674D01*
X9215301Y-16976674D02*
X9215301Y-17024293D01*
X9215301Y-17024293D02*
X9205777Y-17062389D01*
X9205777Y-17062389D02*
X9196253Y-17081436D01*
X9196253Y-17081436D02*
X9186729Y-17090960D01*
X9186729Y-17090960D02*
X9167682Y-17100484D01*
X9167682Y-17100484D02*
X9148634Y-17100484D01*
X9148634Y-17100484D02*
X9129587Y-17090960D01*
X9129587Y-17090960D02*
X9120063Y-17081436D01*
X9120063Y-17081436D02*
X9110539Y-17062389D01*
X9110539Y-17062389D02*
X9101015Y-17024293D01*
X9101015Y-17024293D02*
X9101015Y-16976674D01*
X9101015Y-16976674D02*
X9110539Y-16938579D01*
X9110539Y-16938579D02*
X9120063Y-16919531D01*
X9120063Y-16919531D02*
X9129587Y-16910008D01*
X9129587Y-16910008D02*
X9148634Y-16900484D01*
X9301015Y-17081436D02*
X9310539Y-17090960D01*
X9310539Y-17090960D02*
X9301015Y-17100484D01*
X9301015Y-17100484D02*
X9291491Y-17090960D01*
X9291491Y-17090960D02*
X9301015Y-17081436D01*
X9301015Y-17081436D02*
X9301015Y-17100484D01*
X9434348Y-16900484D02*
X9453396Y-16900484D01*
X9453396Y-16900484D02*
X9472444Y-16910008D01*
X9472444Y-16910008D02*
X9481968Y-16919531D01*
X9481968Y-16919531D02*
X9491491Y-16938579D01*
X9491491Y-16938579D02*
X9501015Y-16976674D01*
X9501015Y-16976674D02*
X9501015Y-17024293D01*
X9501015Y-17024293D02*
X9491491Y-17062389D01*
X9491491Y-17062389D02*
X9481968Y-17081436D01*
X9481968Y-17081436D02*
X9472444Y-17090960D01*
X9472444Y-17090960D02*
X9453396Y-17100484D01*
X9453396Y-17100484D02*
X9434348Y-17100484D01*
X9434348Y-17100484D02*
X9415301Y-17090960D01*
X9415301Y-17090960D02*
X9405777Y-17081436D01*
X9405777Y-17081436D02*
X9396253Y-17062389D01*
X9396253Y-17062389D02*
X9386729Y-17024293D01*
X9386729Y-17024293D02*
X9386729Y-16976674D01*
X9386729Y-16976674D02*
X9396253Y-16938579D01*
X9396253Y-16938579D02*
X9405777Y-16919531D01*
X9405777Y-16919531D02*
X9415301Y-16910008D01*
X9415301Y-16910008D02*
X9434348Y-16900484D01*
X9567682Y-16900484D02*
X9691491Y-16900484D01*
X9691491Y-16900484D02*
X9624825Y-16976674D01*
X9624825Y-16976674D02*
X9653396Y-16976674D01*
X9653396Y-16976674D02*
X9672444Y-16986198D01*
X9672444Y-16986198D02*
X9681968Y-16995722D01*
X9681968Y-16995722D02*
X9691491Y-17014770D01*
X9691491Y-17014770D02*
X9691491Y-17062389D01*
X9691491Y-17062389D02*
X9681968Y-17081436D01*
X9681968Y-17081436D02*
X9672444Y-17090960D01*
X9672444Y-17090960D02*
X9653396Y-17100484D01*
X9653396Y-17100484D02*
X9596253Y-17100484D01*
X9596253Y-17100484D02*
X9577206Y-17090960D01*
X9577206Y-17090960D02*
X9567682Y-17081436D01*
X9872444Y-16900484D02*
X9777206Y-16900484D01*
X9777206Y-16900484D02*
X9767682Y-16995722D01*
X9767682Y-16995722D02*
X9777206Y-16986198D01*
X9777206Y-16986198D02*
X9796253Y-16976674D01*
X9796253Y-16976674D02*
X9843872Y-16976674D01*
X9843872Y-16976674D02*
X9862920Y-16986198D01*
X9862920Y-16986198D02*
X9872444Y-16995722D01*
X9872444Y-16995722D02*
X9881968Y-17014770D01*
X9881968Y-17014770D02*
X9881968Y-17062389D01*
X9881968Y-17062389D02*
X9872444Y-17081436D01*
X9872444Y-17081436D02*
X9862920Y-17090960D01*
X9862920Y-17090960D02*
X9843872Y-17100484D01*
X9843872Y-17100484D02*
X9796253Y-17100484D01*
X9796253Y-17100484D02*
X9777206Y-17090960D01*
X9777206Y-17090960D02*
X9767682Y-17081436D01*
X10005777Y-16900484D02*
X10024825Y-16900484D01*
X10024825Y-16900484D02*
X10043872Y-16910008D01*
X10043872Y-16910008D02*
X10053396Y-16919531D01*
X10053396Y-16919531D02*
X10062920Y-16938579D01*
X10062920Y-16938579D02*
X10072444Y-16976674D01*
X10072444Y-16976674D02*
X10072444Y-17024293D01*
X10072444Y-17024293D02*
X10062920Y-17062389D01*
X10062920Y-17062389D02*
X10053396Y-17081436D01*
X10053396Y-17081436D02*
X10043872Y-17090960D01*
X10043872Y-17090960D02*
X10024825Y-17100484D01*
X10024825Y-17100484D02*
X10005777Y-17100484D01*
X10005777Y-17100484D02*
X9986729Y-17090960D01*
X9986729Y-17090960D02*
X9977206Y-17081436D01*
X9977206Y-17081436D02*
X9967682Y-17062389D01*
X9967682Y-17062389D02*
X9958158Y-17024293D01*
X9958158Y-17024293D02*
X9958158Y-16976674D01*
X9958158Y-16976674D02*
X9967682Y-16938579D01*
X9967682Y-16938579D02*
X9977206Y-16919531D01*
X9977206Y-16919531D02*
X9986729Y-16910008D01*
X9986729Y-16910008D02*
X10005777Y-16900484D01*
X10148634Y-16900484D02*
X10148634Y-16938579D01*
X10224825Y-16900484D02*
X10224825Y-16938579D01*
X10520063Y-17176674D02*
X10510539Y-17167150D01*
X10510539Y-17167150D02*
X10491491Y-17138579D01*
X10491491Y-17138579D02*
X10481968Y-17119531D01*
X10481968Y-17119531D02*
X10472444Y-17090960D01*
X10472444Y-17090960D02*
X10462920Y-17043341D01*
X10462920Y-17043341D02*
X10462920Y-17005246D01*
X10462920Y-17005246D02*
X10472444Y-16957627D01*
X10472444Y-16957627D02*
X10481968Y-16929055D01*
X10481968Y-16929055D02*
X10491491Y-16910008D01*
X10491491Y-16910008D02*
X10510539Y-16881436D01*
X10510539Y-16881436D02*
X10520063Y-16871912D01*
X10701015Y-17100484D02*
X10586730Y-17100484D01*
X10643872Y-17100484D02*
X10643872Y-16900484D01*
X10643872Y-16900484D02*
X10624825Y-16929055D01*
X10624825Y-16929055D02*
X10605777Y-16948103D01*
X10605777Y-16948103D02*
X10586730Y-16957627D01*
X10872444Y-16900484D02*
X10834349Y-16900484D01*
X10834349Y-16900484D02*
X10815301Y-16910008D01*
X10815301Y-16910008D02*
X10805777Y-16919531D01*
X10805777Y-16919531D02*
X10786730Y-16948103D01*
X10786730Y-16948103D02*
X10777206Y-16986198D01*
X10777206Y-16986198D02*
X10777206Y-17062389D01*
X10777206Y-17062389D02*
X10786730Y-17081436D01*
X10786730Y-17081436D02*
X10796253Y-17090960D01*
X10796253Y-17090960D02*
X10815301Y-17100484D01*
X10815301Y-17100484D02*
X10853396Y-17100484D01*
X10853396Y-17100484D02*
X10872444Y-17090960D01*
X10872444Y-17090960D02*
X10881968Y-17081436D01*
X10881968Y-17081436D02*
X10891491Y-17062389D01*
X10891491Y-17062389D02*
X10891491Y-17014770D01*
X10891491Y-17014770D02*
X10881968Y-16995722D01*
X10881968Y-16995722D02*
X10872444Y-16986198D01*
X10872444Y-16986198D02*
X10853396Y-16976674D01*
X10853396Y-16976674D02*
X10815301Y-16976674D01*
X10815301Y-16976674D02*
X10796253Y-16986198D01*
X10796253Y-16986198D02*
X10786730Y-16995722D01*
X10786730Y-16995722D02*
X10777206Y-17014770D01*
X11129587Y-17100484D02*
X11129587Y-16900484D01*
X11215301Y-17100484D02*
X11215301Y-16995722D01*
X11215301Y-16995722D02*
X11205777Y-16976674D01*
X11205777Y-16976674D02*
X11186730Y-16967150D01*
X11186730Y-16967150D02*
X11158158Y-16967150D01*
X11158158Y-16967150D02*
X11139111Y-16976674D01*
X11139111Y-16976674D02*
X11129587Y-16986198D01*
X11339110Y-17100484D02*
X11320063Y-17090960D01*
X11320063Y-17090960D02*
X11310539Y-17081436D01*
X11310539Y-17081436D02*
X11301015Y-17062389D01*
X11301015Y-17062389D02*
X11301015Y-17005246D01*
X11301015Y-17005246D02*
X11310539Y-16986198D01*
X11310539Y-16986198D02*
X11320063Y-16976674D01*
X11320063Y-16976674D02*
X11339110Y-16967150D01*
X11339110Y-16967150D02*
X11367682Y-16967150D01*
X11367682Y-16967150D02*
X11386730Y-16976674D01*
X11386730Y-16976674D02*
X11396253Y-16986198D01*
X11396253Y-16986198D02*
X11405777Y-17005246D01*
X11405777Y-17005246D02*
X11405777Y-17062389D01*
X11405777Y-17062389D02*
X11396253Y-17081436D01*
X11396253Y-17081436D02*
X11386730Y-17090960D01*
X11386730Y-17090960D02*
X11367682Y-17100484D01*
X11367682Y-17100484D02*
X11339110Y-17100484D01*
X11520063Y-17100484D02*
X11501015Y-17090960D01*
X11501015Y-17090960D02*
X11491491Y-17071912D01*
X11491491Y-17071912D02*
X11491491Y-16900484D01*
X11672444Y-17090960D02*
X11653396Y-17100484D01*
X11653396Y-17100484D02*
X11615301Y-17100484D01*
X11615301Y-17100484D02*
X11596253Y-17090960D01*
X11596253Y-17090960D02*
X11586730Y-17071912D01*
X11586730Y-17071912D02*
X11586730Y-16995722D01*
X11586730Y-16995722D02*
X11596253Y-16976674D01*
X11596253Y-16976674D02*
X11615301Y-16967150D01*
X11615301Y-16967150D02*
X11653396Y-16967150D01*
X11653396Y-16967150D02*
X11672444Y-16976674D01*
X11672444Y-16976674D02*
X11681968Y-16995722D01*
X11681968Y-16995722D02*
X11681968Y-17014770D01*
X11681968Y-17014770D02*
X11586730Y-17033817D01*
X11758158Y-17090960D02*
X11777206Y-17100484D01*
X11777206Y-17100484D02*
X11815301Y-17100484D01*
X11815301Y-17100484D02*
X11834349Y-17090960D01*
X11834349Y-17090960D02*
X11843872Y-17071912D01*
X11843872Y-17071912D02*
X11843872Y-17062389D01*
X11843872Y-17062389D02*
X11834349Y-17043341D01*
X11834349Y-17043341D02*
X11815301Y-17033817D01*
X11815301Y-17033817D02*
X11786730Y-17033817D01*
X11786730Y-17033817D02*
X11767682Y-17024293D01*
X11767682Y-17024293D02*
X11758158Y-17005246D01*
X11758158Y-17005246D02*
X11758158Y-16995722D01*
X11758158Y-16995722D02*
X11767682Y-16976674D01*
X11767682Y-16976674D02*
X11786730Y-16967150D01*
X11786730Y-16967150D02*
X11815301Y-16967150D01*
X11815301Y-16967150D02*
X11834349Y-16976674D01*
X11910539Y-17176674D02*
X11920063Y-17167150D01*
X11920063Y-17167150D02*
X11939111Y-17138579D01*
X11939111Y-17138579D02*
X11948634Y-17119531D01*
X11948634Y-17119531D02*
X11958158Y-17090960D01*
X11958158Y-17090960D02*
X11967682Y-17043341D01*
X11967682Y-17043341D02*
X11967682Y-17005246D01*
X11967682Y-17005246D02*
X11958158Y-16957627D01*
X11958158Y-16957627D02*
X11948634Y-16929055D01*
X11948634Y-16929055D02*
X11939111Y-16910008D01*
X11939111Y-16910008D02*
X11920063Y-16881436D01*
X11920063Y-16881436D02*
X11910539Y-16871912D01*
D11*
X6895000Y-17223000D02*
X6895000Y-17323000D01*
X6845000Y-17273000D02*
X6945000Y-17273000D01*
D10*
X7310539Y-17364484D02*
X7196253Y-17364484D01*
X7253396Y-17364484D02*
X7253396Y-17164484D01*
X7253396Y-17164484D02*
X7234348Y-17193055D01*
X7234348Y-17193055D02*
X7215301Y-17212103D01*
X7215301Y-17212103D02*
X7196253Y-17221627D01*
X7396253Y-17345436D02*
X7405777Y-17354960D01*
X7405777Y-17354960D02*
X7396253Y-17364484D01*
X7396253Y-17364484D02*
X7386729Y-17354960D01*
X7386729Y-17354960D02*
X7396253Y-17345436D01*
X7396253Y-17345436D02*
X7396253Y-17364484D01*
X7529586Y-17164484D02*
X7548634Y-17164484D01*
X7548634Y-17164484D02*
X7567682Y-17174008D01*
X7567682Y-17174008D02*
X7577205Y-17183531D01*
X7577205Y-17183531D02*
X7586729Y-17202579D01*
X7586729Y-17202579D02*
X7596253Y-17240674D01*
X7596253Y-17240674D02*
X7596253Y-17288293D01*
X7596253Y-17288293D02*
X7586729Y-17326389D01*
X7586729Y-17326389D02*
X7577205Y-17345436D01*
X7577205Y-17345436D02*
X7567682Y-17354960D01*
X7567682Y-17354960D02*
X7548634Y-17364484D01*
X7548634Y-17364484D02*
X7529586Y-17364484D01*
X7529586Y-17364484D02*
X7510539Y-17354960D01*
X7510539Y-17354960D02*
X7501015Y-17345436D01*
X7501015Y-17345436D02*
X7491491Y-17326389D01*
X7491491Y-17326389D02*
X7481967Y-17288293D01*
X7481967Y-17288293D02*
X7481967Y-17240674D01*
X7481967Y-17240674D02*
X7491491Y-17202579D01*
X7491491Y-17202579D02*
X7501015Y-17183531D01*
X7501015Y-17183531D02*
X7510539Y-17174008D01*
X7510539Y-17174008D02*
X7529586Y-17164484D01*
X7720062Y-17164484D02*
X7739110Y-17164484D01*
X7739110Y-17164484D02*
X7758158Y-17174008D01*
X7758158Y-17174008D02*
X7767682Y-17183531D01*
X7767682Y-17183531D02*
X7777205Y-17202579D01*
X7777205Y-17202579D02*
X7786729Y-17240674D01*
X7786729Y-17240674D02*
X7786729Y-17288293D01*
X7786729Y-17288293D02*
X7777205Y-17326389D01*
X7777205Y-17326389D02*
X7767682Y-17345436D01*
X7767682Y-17345436D02*
X7758158Y-17354960D01*
X7758158Y-17354960D02*
X7739110Y-17364484D01*
X7739110Y-17364484D02*
X7720062Y-17364484D01*
X7720062Y-17364484D02*
X7701015Y-17354960D01*
X7701015Y-17354960D02*
X7691491Y-17345436D01*
X7691491Y-17345436D02*
X7681967Y-17326389D01*
X7681967Y-17326389D02*
X7672443Y-17288293D01*
X7672443Y-17288293D02*
X7672443Y-17240674D01*
X7672443Y-17240674D02*
X7681967Y-17202579D01*
X7681967Y-17202579D02*
X7691491Y-17183531D01*
X7691491Y-17183531D02*
X7701015Y-17174008D01*
X7701015Y-17174008D02*
X7720062Y-17164484D01*
X7910539Y-17164484D02*
X7929586Y-17164484D01*
X7929586Y-17164484D02*
X7948634Y-17174008D01*
X7948634Y-17174008D02*
X7958158Y-17183531D01*
X7958158Y-17183531D02*
X7967682Y-17202579D01*
X7967682Y-17202579D02*
X7977205Y-17240674D01*
X7977205Y-17240674D02*
X7977205Y-17288293D01*
X7977205Y-17288293D02*
X7967682Y-17326389D01*
X7967682Y-17326389D02*
X7958158Y-17345436D01*
X7958158Y-17345436D02*
X7948634Y-17354960D01*
X7948634Y-17354960D02*
X7929586Y-17364484D01*
X7929586Y-17364484D02*
X7910539Y-17364484D01*
X7910539Y-17364484D02*
X7891491Y-17354960D01*
X7891491Y-17354960D02*
X7881967Y-17345436D01*
X7881967Y-17345436D02*
X7872443Y-17326389D01*
X7872443Y-17326389D02*
X7862920Y-17288293D01*
X7862920Y-17288293D02*
X7862920Y-17240674D01*
X7862920Y-17240674D02*
X7872443Y-17202579D01*
X7872443Y-17202579D02*
X7881967Y-17183531D01*
X7881967Y-17183531D02*
X7891491Y-17174008D01*
X7891491Y-17174008D02*
X7910539Y-17164484D01*
X8062920Y-17364484D02*
X8062920Y-17231150D01*
X8062920Y-17250198D02*
X8072443Y-17240674D01*
X8072443Y-17240674D02*
X8091491Y-17231150D01*
X8091491Y-17231150D02*
X8120063Y-17231150D01*
X8120063Y-17231150D02*
X8139110Y-17240674D01*
X8139110Y-17240674D02*
X8148634Y-17259722D01*
X8148634Y-17259722D02*
X8148634Y-17364484D01*
X8148634Y-17259722D02*
X8158158Y-17240674D01*
X8158158Y-17240674D02*
X8177205Y-17231150D01*
X8177205Y-17231150D02*
X8205777Y-17231150D01*
X8205777Y-17231150D02*
X8224824Y-17240674D01*
X8224824Y-17240674D02*
X8234348Y-17259722D01*
X8234348Y-17259722D02*
X8234348Y-17364484D01*
X8329586Y-17364484D02*
X8329586Y-17231150D01*
X8329586Y-17250198D02*
X8339110Y-17240674D01*
X8339110Y-17240674D02*
X8358158Y-17231150D01*
X8358158Y-17231150D02*
X8386729Y-17231150D01*
X8386729Y-17231150D02*
X8405777Y-17240674D01*
X8405777Y-17240674D02*
X8415301Y-17259722D01*
X8415301Y-17259722D02*
X8415301Y-17364484D01*
X8415301Y-17259722D02*
X8424825Y-17240674D01*
X8424825Y-17240674D02*
X8443872Y-17231150D01*
X8443872Y-17231150D02*
X8472444Y-17231150D01*
X8472444Y-17231150D02*
X8491491Y-17240674D01*
X8491491Y-17240674D02*
X8501015Y-17259722D01*
X8501015Y-17259722D02*
X8501015Y-17364484D01*
X8891491Y-17154960D02*
X8720063Y-17412103D01*
X9148634Y-17164484D02*
X9167682Y-17164484D01*
X9167682Y-17164484D02*
X9186729Y-17174008D01*
X9186729Y-17174008D02*
X9196253Y-17183531D01*
X9196253Y-17183531D02*
X9205777Y-17202579D01*
X9205777Y-17202579D02*
X9215301Y-17240674D01*
X9215301Y-17240674D02*
X9215301Y-17288293D01*
X9215301Y-17288293D02*
X9205777Y-17326389D01*
X9205777Y-17326389D02*
X9196253Y-17345436D01*
X9196253Y-17345436D02*
X9186729Y-17354960D01*
X9186729Y-17354960D02*
X9167682Y-17364484D01*
X9167682Y-17364484D02*
X9148634Y-17364484D01*
X9148634Y-17364484D02*
X9129587Y-17354960D01*
X9129587Y-17354960D02*
X9120063Y-17345436D01*
X9120063Y-17345436D02*
X9110539Y-17326389D01*
X9110539Y-17326389D02*
X9101015Y-17288293D01*
X9101015Y-17288293D02*
X9101015Y-17240674D01*
X9101015Y-17240674D02*
X9110539Y-17202579D01*
X9110539Y-17202579D02*
X9120063Y-17183531D01*
X9120063Y-17183531D02*
X9129587Y-17174008D01*
X9129587Y-17174008D02*
X9148634Y-17164484D01*
X9301015Y-17345436D02*
X9310539Y-17354960D01*
X9310539Y-17354960D02*
X9301015Y-17364484D01*
X9301015Y-17364484D02*
X9291491Y-17354960D01*
X9291491Y-17354960D02*
X9301015Y-17345436D01*
X9301015Y-17345436D02*
X9301015Y-17364484D01*
X9434348Y-17164484D02*
X9453396Y-17164484D01*
X9453396Y-17164484D02*
X9472444Y-17174008D01*
X9472444Y-17174008D02*
X9481968Y-17183531D01*
X9481968Y-17183531D02*
X9491491Y-17202579D01*
X9491491Y-17202579D02*
X9501015Y-17240674D01*
X9501015Y-17240674D02*
X9501015Y-17288293D01*
X9501015Y-17288293D02*
X9491491Y-17326389D01*
X9491491Y-17326389D02*
X9481968Y-17345436D01*
X9481968Y-17345436D02*
X9472444Y-17354960D01*
X9472444Y-17354960D02*
X9453396Y-17364484D01*
X9453396Y-17364484D02*
X9434348Y-17364484D01*
X9434348Y-17364484D02*
X9415301Y-17354960D01*
X9415301Y-17354960D02*
X9405777Y-17345436D01*
X9405777Y-17345436D02*
X9396253Y-17326389D01*
X9396253Y-17326389D02*
X9386729Y-17288293D01*
X9386729Y-17288293D02*
X9386729Y-17240674D01*
X9386729Y-17240674D02*
X9396253Y-17202579D01*
X9396253Y-17202579D02*
X9405777Y-17183531D01*
X9405777Y-17183531D02*
X9415301Y-17174008D01*
X9415301Y-17174008D02*
X9434348Y-17164484D01*
X9567682Y-17164484D02*
X9691491Y-17164484D01*
X9691491Y-17164484D02*
X9624825Y-17240674D01*
X9624825Y-17240674D02*
X9653396Y-17240674D01*
X9653396Y-17240674D02*
X9672444Y-17250198D01*
X9672444Y-17250198D02*
X9681968Y-17259722D01*
X9681968Y-17259722D02*
X9691491Y-17278770D01*
X9691491Y-17278770D02*
X9691491Y-17326389D01*
X9691491Y-17326389D02*
X9681968Y-17345436D01*
X9681968Y-17345436D02*
X9672444Y-17354960D01*
X9672444Y-17354960D02*
X9653396Y-17364484D01*
X9653396Y-17364484D02*
X9596253Y-17364484D01*
X9596253Y-17364484D02*
X9577206Y-17354960D01*
X9577206Y-17354960D02*
X9567682Y-17345436D01*
X9786729Y-17364484D02*
X9824825Y-17364484D01*
X9824825Y-17364484D02*
X9843872Y-17354960D01*
X9843872Y-17354960D02*
X9853396Y-17345436D01*
X9853396Y-17345436D02*
X9872444Y-17316865D01*
X9872444Y-17316865D02*
X9881968Y-17278770D01*
X9881968Y-17278770D02*
X9881968Y-17202579D01*
X9881968Y-17202579D02*
X9872444Y-17183531D01*
X9872444Y-17183531D02*
X9862920Y-17174008D01*
X9862920Y-17174008D02*
X9843872Y-17164484D01*
X9843872Y-17164484D02*
X9805777Y-17164484D01*
X9805777Y-17164484D02*
X9786729Y-17174008D01*
X9786729Y-17174008D02*
X9777206Y-17183531D01*
X9777206Y-17183531D02*
X9767682Y-17202579D01*
X9767682Y-17202579D02*
X9767682Y-17250198D01*
X9767682Y-17250198D02*
X9777206Y-17269246D01*
X9777206Y-17269246D02*
X9786729Y-17278770D01*
X9786729Y-17278770D02*
X9805777Y-17288293D01*
X9805777Y-17288293D02*
X9843872Y-17288293D01*
X9843872Y-17288293D02*
X9862920Y-17278770D01*
X9862920Y-17278770D02*
X9872444Y-17269246D01*
X9872444Y-17269246D02*
X9881968Y-17250198D01*
X10053396Y-17231150D02*
X10053396Y-17364484D01*
X10005777Y-17154960D02*
X9958158Y-17297817D01*
X9958158Y-17297817D02*
X10081968Y-17297817D01*
X10148634Y-17164484D02*
X10148634Y-17202579D01*
X10224825Y-17164484D02*
X10224825Y-17202579D01*
X10520063Y-17440674D02*
X10510539Y-17431150D01*
X10510539Y-17431150D02*
X10491491Y-17402579D01*
X10491491Y-17402579D02*
X10481968Y-17383531D01*
X10481968Y-17383531D02*
X10472444Y-17354960D01*
X10472444Y-17354960D02*
X10462920Y-17307341D01*
X10462920Y-17307341D02*
X10462920Y-17269246D01*
X10462920Y-17269246D02*
X10472444Y-17221627D01*
X10472444Y-17221627D02*
X10481968Y-17193055D01*
X10481968Y-17193055D02*
X10491491Y-17174008D01*
X10491491Y-17174008D02*
X10510539Y-17145436D01*
X10510539Y-17145436D02*
X10520063Y-17135912D01*
X10701015Y-17364484D02*
X10586730Y-17364484D01*
X10643872Y-17364484D02*
X10643872Y-17164484D01*
X10643872Y-17164484D02*
X10624825Y-17193055D01*
X10624825Y-17193055D02*
X10605777Y-17212103D01*
X10605777Y-17212103D02*
X10586730Y-17221627D01*
X10872444Y-17231150D02*
X10872444Y-17364484D01*
X10824825Y-17154960D02*
X10777206Y-17297817D01*
X10777206Y-17297817D02*
X10901015Y-17297817D01*
X11129587Y-17364484D02*
X11129587Y-17164484D01*
X11215301Y-17364484D02*
X11215301Y-17259722D01*
X11215301Y-17259722D02*
X11205777Y-17240674D01*
X11205777Y-17240674D02*
X11186730Y-17231150D01*
X11186730Y-17231150D02*
X11158158Y-17231150D01*
X11158158Y-17231150D02*
X11139111Y-17240674D01*
X11139111Y-17240674D02*
X11129587Y-17250198D01*
X11339110Y-17364484D02*
X11320063Y-17354960D01*
X11320063Y-17354960D02*
X11310539Y-17345436D01*
X11310539Y-17345436D02*
X11301015Y-17326389D01*
X11301015Y-17326389D02*
X11301015Y-17269246D01*
X11301015Y-17269246D02*
X11310539Y-17250198D01*
X11310539Y-17250198D02*
X11320063Y-17240674D01*
X11320063Y-17240674D02*
X11339110Y-17231150D01*
X11339110Y-17231150D02*
X11367682Y-17231150D01*
X11367682Y-17231150D02*
X11386730Y-17240674D01*
X11386730Y-17240674D02*
X11396253Y-17250198D01*
X11396253Y-17250198D02*
X11405777Y-17269246D01*
X11405777Y-17269246D02*
X11405777Y-17326389D01*
X11405777Y-17326389D02*
X11396253Y-17345436D01*
X11396253Y-17345436D02*
X11386730Y-17354960D01*
X11386730Y-17354960D02*
X11367682Y-17364484D01*
X11367682Y-17364484D02*
X11339110Y-17364484D01*
X11520063Y-17364484D02*
X11501015Y-17354960D01*
X11501015Y-17354960D02*
X11491491Y-17335912D01*
X11491491Y-17335912D02*
X11491491Y-17164484D01*
X11672444Y-17354960D02*
X11653396Y-17364484D01*
X11653396Y-17364484D02*
X11615301Y-17364484D01*
X11615301Y-17364484D02*
X11596253Y-17354960D01*
X11596253Y-17354960D02*
X11586730Y-17335912D01*
X11586730Y-17335912D02*
X11586730Y-17259722D01*
X11586730Y-17259722D02*
X11596253Y-17240674D01*
X11596253Y-17240674D02*
X11615301Y-17231150D01*
X11615301Y-17231150D02*
X11653396Y-17231150D01*
X11653396Y-17231150D02*
X11672444Y-17240674D01*
X11672444Y-17240674D02*
X11681968Y-17259722D01*
X11681968Y-17259722D02*
X11681968Y-17278770D01*
X11681968Y-17278770D02*
X11586730Y-17297817D01*
X11758158Y-17354960D02*
X11777206Y-17364484D01*
X11777206Y-17364484D02*
X11815301Y-17364484D01*
X11815301Y-17364484D02*
X11834349Y-17354960D01*
X11834349Y-17354960D02*
X11843872Y-17335912D01*
X11843872Y-17335912D02*
X11843872Y-17326389D01*
X11843872Y-17326389D02*
X11834349Y-17307341D01*
X11834349Y-17307341D02*
X11815301Y-17297817D01*
X11815301Y-17297817D02*
X11786730Y-17297817D01*
X11786730Y-17297817D02*
X11767682Y-17288293D01*
X11767682Y-17288293D02*
X11758158Y-17269246D01*
X11758158Y-17269246D02*
X11758158Y-17259722D01*
X11758158Y-17259722D02*
X11767682Y-17240674D01*
X11767682Y-17240674D02*
X11786730Y-17231150D01*
X11786730Y-17231150D02*
X11815301Y-17231150D01*
X11815301Y-17231150D02*
X11834349Y-17240674D01*
X11910539Y-17440674D02*
X11920063Y-17431150D01*
X11920063Y-17431150D02*
X11939111Y-17402579D01*
X11939111Y-17402579D02*
X11948634Y-17383531D01*
X11948634Y-17383531D02*
X11958158Y-17354960D01*
X11958158Y-17354960D02*
X11967682Y-17307341D01*
X11967682Y-17307341D02*
X11967682Y-17269246D01*
X11967682Y-17269246D02*
X11958158Y-17221627D01*
X11958158Y-17221627D02*
X11948634Y-17193055D01*
X11948634Y-17193055D02*
X11939111Y-17174008D01*
X11939111Y-17174008D02*
X11920063Y-17145436D01*
X11920063Y-17145436D02*
X11910539Y-17135912D01*
D14*
X6930063Y-17573063D02*
X6930063Y-17500937D01*
X6857937Y-17500937D01*
X6857937Y-17573063D01*
X6930063Y-17573063D01*
D10*
X7310539Y-17628484D02*
X7196253Y-17628484D01*
X7253396Y-17628484D02*
X7253396Y-17428484D01*
X7253396Y-17428484D02*
X7234348Y-17457055D01*
X7234348Y-17457055D02*
X7215301Y-17476103D01*
X7215301Y-17476103D02*
X7196253Y-17485627D01*
X7396253Y-17609436D02*
X7405777Y-17618960D01*
X7405777Y-17618960D02*
X7396253Y-17628484D01*
X7396253Y-17628484D02*
X7386729Y-17618960D01*
X7386729Y-17618960D02*
X7396253Y-17609436D01*
X7396253Y-17609436D02*
X7396253Y-17628484D01*
X7529586Y-17428484D02*
X7548634Y-17428484D01*
X7548634Y-17428484D02*
X7567682Y-17438008D01*
X7567682Y-17438008D02*
X7577205Y-17447531D01*
X7577205Y-17447531D02*
X7586729Y-17466579D01*
X7586729Y-17466579D02*
X7596253Y-17504674D01*
X7596253Y-17504674D02*
X7596253Y-17552293D01*
X7596253Y-17552293D02*
X7586729Y-17590389D01*
X7586729Y-17590389D02*
X7577205Y-17609436D01*
X7577205Y-17609436D02*
X7567682Y-17618960D01*
X7567682Y-17618960D02*
X7548634Y-17628484D01*
X7548634Y-17628484D02*
X7529586Y-17628484D01*
X7529586Y-17628484D02*
X7510539Y-17618960D01*
X7510539Y-17618960D02*
X7501015Y-17609436D01*
X7501015Y-17609436D02*
X7491491Y-17590389D01*
X7491491Y-17590389D02*
X7481967Y-17552293D01*
X7481967Y-17552293D02*
X7481967Y-17504674D01*
X7481967Y-17504674D02*
X7491491Y-17466579D01*
X7491491Y-17466579D02*
X7501015Y-17447531D01*
X7501015Y-17447531D02*
X7510539Y-17438008D01*
X7510539Y-17438008D02*
X7529586Y-17428484D01*
X7672443Y-17447531D02*
X7681967Y-17438008D01*
X7681967Y-17438008D02*
X7701015Y-17428484D01*
X7701015Y-17428484D02*
X7748634Y-17428484D01*
X7748634Y-17428484D02*
X7767682Y-17438008D01*
X7767682Y-17438008D02*
X7777205Y-17447531D01*
X7777205Y-17447531D02*
X7786729Y-17466579D01*
X7786729Y-17466579D02*
X7786729Y-17485627D01*
X7786729Y-17485627D02*
X7777205Y-17514198D01*
X7777205Y-17514198D02*
X7662920Y-17628484D01*
X7662920Y-17628484D02*
X7786729Y-17628484D01*
X7910539Y-17428484D02*
X7929586Y-17428484D01*
X7929586Y-17428484D02*
X7948634Y-17438008D01*
X7948634Y-17438008D02*
X7958158Y-17447531D01*
X7958158Y-17447531D02*
X7967682Y-17466579D01*
X7967682Y-17466579D02*
X7977205Y-17504674D01*
X7977205Y-17504674D02*
X7977205Y-17552293D01*
X7977205Y-17552293D02*
X7967682Y-17590389D01*
X7967682Y-17590389D02*
X7958158Y-17609436D01*
X7958158Y-17609436D02*
X7948634Y-17618960D01*
X7948634Y-17618960D02*
X7929586Y-17628484D01*
X7929586Y-17628484D02*
X7910539Y-17628484D01*
X7910539Y-17628484D02*
X7891491Y-17618960D01*
X7891491Y-17618960D02*
X7881967Y-17609436D01*
X7881967Y-17609436D02*
X7872443Y-17590389D01*
X7872443Y-17590389D02*
X7862920Y-17552293D01*
X7862920Y-17552293D02*
X7862920Y-17504674D01*
X7862920Y-17504674D02*
X7872443Y-17466579D01*
X7872443Y-17466579D02*
X7881967Y-17447531D01*
X7881967Y-17447531D02*
X7891491Y-17438008D01*
X7891491Y-17438008D02*
X7910539Y-17428484D01*
X8062920Y-17628484D02*
X8062920Y-17495150D01*
X8062920Y-17514198D02*
X8072443Y-17504674D01*
X8072443Y-17504674D02*
X8091491Y-17495150D01*
X8091491Y-17495150D02*
X8120063Y-17495150D01*
X8120063Y-17495150D02*
X8139110Y-17504674D01*
X8139110Y-17504674D02*
X8148634Y-17523722D01*
X8148634Y-17523722D02*
X8148634Y-17628484D01*
X8148634Y-17523722D02*
X8158158Y-17504674D01*
X8158158Y-17504674D02*
X8177205Y-17495150D01*
X8177205Y-17495150D02*
X8205777Y-17495150D01*
X8205777Y-17495150D02*
X8224824Y-17504674D01*
X8224824Y-17504674D02*
X8234348Y-17523722D01*
X8234348Y-17523722D02*
X8234348Y-17628484D01*
X8329586Y-17628484D02*
X8329586Y-17495150D01*
X8329586Y-17514198D02*
X8339110Y-17504674D01*
X8339110Y-17504674D02*
X8358158Y-17495150D01*
X8358158Y-17495150D02*
X8386729Y-17495150D01*
X8386729Y-17495150D02*
X8405777Y-17504674D01*
X8405777Y-17504674D02*
X8415301Y-17523722D01*
X8415301Y-17523722D02*
X8415301Y-17628484D01*
X8415301Y-17523722D02*
X8424825Y-17504674D01*
X8424825Y-17504674D02*
X8443872Y-17495150D01*
X8443872Y-17495150D02*
X8472444Y-17495150D01*
X8472444Y-17495150D02*
X8491491Y-17504674D01*
X8491491Y-17504674D02*
X8501015Y-17523722D01*
X8501015Y-17523722D02*
X8501015Y-17628484D01*
X8891491Y-17418960D02*
X8720063Y-17676103D01*
X9148634Y-17428484D02*
X9167682Y-17428484D01*
X9167682Y-17428484D02*
X9186729Y-17438008D01*
X9186729Y-17438008D02*
X9196253Y-17447531D01*
X9196253Y-17447531D02*
X9205777Y-17466579D01*
X9205777Y-17466579D02*
X9215301Y-17504674D01*
X9215301Y-17504674D02*
X9215301Y-17552293D01*
X9215301Y-17552293D02*
X9205777Y-17590389D01*
X9205777Y-17590389D02*
X9196253Y-17609436D01*
X9196253Y-17609436D02*
X9186729Y-17618960D01*
X9186729Y-17618960D02*
X9167682Y-17628484D01*
X9167682Y-17628484D02*
X9148634Y-17628484D01*
X9148634Y-17628484D02*
X9129587Y-17618960D01*
X9129587Y-17618960D02*
X9120063Y-17609436D01*
X9120063Y-17609436D02*
X9110539Y-17590389D01*
X9110539Y-17590389D02*
X9101015Y-17552293D01*
X9101015Y-17552293D02*
X9101015Y-17504674D01*
X9101015Y-17504674D02*
X9110539Y-17466579D01*
X9110539Y-17466579D02*
X9120063Y-17447531D01*
X9120063Y-17447531D02*
X9129587Y-17438008D01*
X9129587Y-17438008D02*
X9148634Y-17428484D01*
X9301015Y-17609436D02*
X9310539Y-17618960D01*
X9310539Y-17618960D02*
X9301015Y-17628484D01*
X9301015Y-17628484D02*
X9291491Y-17618960D01*
X9291491Y-17618960D02*
X9301015Y-17609436D01*
X9301015Y-17609436D02*
X9301015Y-17628484D01*
X9434348Y-17428484D02*
X9453396Y-17428484D01*
X9453396Y-17428484D02*
X9472444Y-17438008D01*
X9472444Y-17438008D02*
X9481968Y-17447531D01*
X9481968Y-17447531D02*
X9491491Y-17466579D01*
X9491491Y-17466579D02*
X9501015Y-17504674D01*
X9501015Y-17504674D02*
X9501015Y-17552293D01*
X9501015Y-17552293D02*
X9491491Y-17590389D01*
X9491491Y-17590389D02*
X9481968Y-17609436D01*
X9481968Y-17609436D02*
X9472444Y-17618960D01*
X9472444Y-17618960D02*
X9453396Y-17628484D01*
X9453396Y-17628484D02*
X9434348Y-17628484D01*
X9434348Y-17628484D02*
X9415301Y-17618960D01*
X9415301Y-17618960D02*
X9405777Y-17609436D01*
X9405777Y-17609436D02*
X9396253Y-17590389D01*
X9396253Y-17590389D02*
X9386729Y-17552293D01*
X9386729Y-17552293D02*
X9386729Y-17504674D01*
X9386729Y-17504674D02*
X9396253Y-17466579D01*
X9396253Y-17466579D02*
X9405777Y-17447531D01*
X9405777Y-17447531D02*
X9415301Y-17438008D01*
X9415301Y-17438008D02*
X9434348Y-17428484D01*
X9672444Y-17495150D02*
X9672444Y-17628484D01*
X9624825Y-17418960D02*
X9577206Y-17561817D01*
X9577206Y-17561817D02*
X9701015Y-17561817D01*
X9815301Y-17428484D02*
X9834349Y-17428484D01*
X9834349Y-17428484D02*
X9853396Y-17438008D01*
X9853396Y-17438008D02*
X9862920Y-17447531D01*
X9862920Y-17447531D02*
X9872444Y-17466579D01*
X9872444Y-17466579D02*
X9881968Y-17504674D01*
X9881968Y-17504674D02*
X9881968Y-17552293D01*
X9881968Y-17552293D02*
X9872444Y-17590389D01*
X9872444Y-17590389D02*
X9862920Y-17609436D01*
X9862920Y-17609436D02*
X9853396Y-17618960D01*
X9853396Y-17618960D02*
X9834349Y-17628484D01*
X9834349Y-17628484D02*
X9815301Y-17628484D01*
X9815301Y-17628484D02*
X9796253Y-17618960D01*
X9796253Y-17618960D02*
X9786729Y-17609436D01*
X9786729Y-17609436D02*
X9777206Y-17590389D01*
X9777206Y-17590389D02*
X9767682Y-17552293D01*
X9767682Y-17552293D02*
X9767682Y-17504674D01*
X9767682Y-17504674D02*
X9777206Y-17466579D01*
X9777206Y-17466579D02*
X9786729Y-17447531D01*
X9786729Y-17447531D02*
X9796253Y-17438008D01*
X9796253Y-17438008D02*
X9815301Y-17428484D01*
X9958158Y-17447531D02*
X9967682Y-17438008D01*
X9967682Y-17438008D02*
X9986729Y-17428484D01*
X9986729Y-17428484D02*
X10034349Y-17428484D01*
X10034349Y-17428484D02*
X10053396Y-17438008D01*
X10053396Y-17438008D02*
X10062920Y-17447531D01*
X10062920Y-17447531D02*
X10072444Y-17466579D01*
X10072444Y-17466579D02*
X10072444Y-17485627D01*
X10072444Y-17485627D02*
X10062920Y-17514198D01*
X10062920Y-17514198D02*
X9948634Y-17628484D01*
X9948634Y-17628484D02*
X10072444Y-17628484D01*
X10148634Y-17428484D02*
X10148634Y-17466579D01*
X10224825Y-17428484D02*
X10224825Y-17466579D01*
X10520063Y-17704674D02*
X10510539Y-17695150D01*
X10510539Y-17695150D02*
X10491491Y-17666579D01*
X10491491Y-17666579D02*
X10481968Y-17647531D01*
X10481968Y-17647531D02*
X10472444Y-17618960D01*
X10472444Y-17618960D02*
X10462920Y-17571341D01*
X10462920Y-17571341D02*
X10462920Y-17533246D01*
X10462920Y-17533246D02*
X10472444Y-17485627D01*
X10472444Y-17485627D02*
X10481968Y-17457055D01*
X10481968Y-17457055D02*
X10491491Y-17438008D01*
X10491491Y-17438008D02*
X10510539Y-17409436D01*
X10510539Y-17409436D02*
X10520063Y-17399912D01*
X10624825Y-17514198D02*
X10605777Y-17504674D01*
X10605777Y-17504674D02*
X10596253Y-17495150D01*
X10596253Y-17495150D02*
X10586730Y-17476103D01*
X10586730Y-17476103D02*
X10586730Y-17466579D01*
X10586730Y-17466579D02*
X10596253Y-17447531D01*
X10596253Y-17447531D02*
X10605777Y-17438008D01*
X10605777Y-17438008D02*
X10624825Y-17428484D01*
X10624825Y-17428484D02*
X10662920Y-17428484D01*
X10662920Y-17428484D02*
X10681968Y-17438008D01*
X10681968Y-17438008D02*
X10691491Y-17447531D01*
X10691491Y-17447531D02*
X10701015Y-17466579D01*
X10701015Y-17466579D02*
X10701015Y-17476103D01*
X10701015Y-17476103D02*
X10691491Y-17495150D01*
X10691491Y-17495150D02*
X10681968Y-17504674D01*
X10681968Y-17504674D02*
X10662920Y-17514198D01*
X10662920Y-17514198D02*
X10624825Y-17514198D01*
X10624825Y-17514198D02*
X10605777Y-17523722D01*
X10605777Y-17523722D02*
X10596253Y-17533246D01*
X10596253Y-17533246D02*
X10586730Y-17552293D01*
X10586730Y-17552293D02*
X10586730Y-17590389D01*
X10586730Y-17590389D02*
X10596253Y-17609436D01*
X10596253Y-17609436D02*
X10605777Y-17618960D01*
X10605777Y-17618960D02*
X10624825Y-17628484D01*
X10624825Y-17628484D02*
X10662920Y-17628484D01*
X10662920Y-17628484D02*
X10681968Y-17618960D01*
X10681968Y-17618960D02*
X10691491Y-17609436D01*
X10691491Y-17609436D02*
X10701015Y-17590389D01*
X10701015Y-17590389D02*
X10701015Y-17552293D01*
X10701015Y-17552293D02*
X10691491Y-17533246D01*
X10691491Y-17533246D02*
X10681968Y-17523722D01*
X10681968Y-17523722D02*
X10662920Y-17514198D01*
X10872444Y-17428484D02*
X10834349Y-17428484D01*
X10834349Y-17428484D02*
X10815301Y-17438008D01*
X10815301Y-17438008D02*
X10805777Y-17447531D01*
X10805777Y-17447531D02*
X10786730Y-17476103D01*
X10786730Y-17476103D02*
X10777206Y-17514198D01*
X10777206Y-17514198D02*
X10777206Y-17590389D01*
X10777206Y-17590389D02*
X10786730Y-17609436D01*
X10786730Y-17609436D02*
X10796253Y-17618960D01*
X10796253Y-17618960D02*
X10815301Y-17628484D01*
X10815301Y-17628484D02*
X10853396Y-17628484D01*
X10853396Y-17628484D02*
X10872444Y-17618960D01*
X10872444Y-17618960D02*
X10881968Y-17609436D01*
X10881968Y-17609436D02*
X10891491Y-17590389D01*
X10891491Y-17590389D02*
X10891491Y-17542770D01*
X10891491Y-17542770D02*
X10881968Y-17523722D01*
X10881968Y-17523722D02*
X10872444Y-17514198D01*
X10872444Y-17514198D02*
X10853396Y-17504674D01*
X10853396Y-17504674D02*
X10815301Y-17504674D01*
X10815301Y-17504674D02*
X10796253Y-17514198D01*
X10796253Y-17514198D02*
X10786730Y-17523722D01*
X10786730Y-17523722D02*
X10777206Y-17542770D01*
X11129587Y-17628484D02*
X11129587Y-17428484D01*
X11215301Y-17628484D02*
X11215301Y-17523722D01*
X11215301Y-17523722D02*
X11205777Y-17504674D01*
X11205777Y-17504674D02*
X11186730Y-17495150D01*
X11186730Y-17495150D02*
X11158158Y-17495150D01*
X11158158Y-17495150D02*
X11139111Y-17504674D01*
X11139111Y-17504674D02*
X11129587Y-17514198D01*
X11339110Y-17628484D02*
X11320063Y-17618960D01*
X11320063Y-17618960D02*
X11310539Y-17609436D01*
X11310539Y-17609436D02*
X11301015Y-17590389D01*
X11301015Y-17590389D02*
X11301015Y-17533246D01*
X11301015Y-17533246D02*
X11310539Y-17514198D01*
X11310539Y-17514198D02*
X11320063Y-17504674D01*
X11320063Y-17504674D02*
X11339110Y-17495150D01*
X11339110Y-17495150D02*
X11367682Y-17495150D01*
X11367682Y-17495150D02*
X11386730Y-17504674D01*
X11386730Y-17504674D02*
X11396253Y-17514198D01*
X11396253Y-17514198D02*
X11405777Y-17533246D01*
X11405777Y-17533246D02*
X11405777Y-17590389D01*
X11405777Y-17590389D02*
X11396253Y-17609436D01*
X11396253Y-17609436D02*
X11386730Y-17618960D01*
X11386730Y-17618960D02*
X11367682Y-17628484D01*
X11367682Y-17628484D02*
X11339110Y-17628484D01*
X11520063Y-17628484D02*
X11501015Y-17618960D01*
X11501015Y-17618960D02*
X11491491Y-17599912D01*
X11491491Y-17599912D02*
X11491491Y-17428484D01*
X11672444Y-17618960D02*
X11653396Y-17628484D01*
X11653396Y-17628484D02*
X11615301Y-17628484D01*
X11615301Y-17628484D02*
X11596253Y-17618960D01*
X11596253Y-17618960D02*
X11586730Y-17599912D01*
X11586730Y-17599912D02*
X11586730Y-17523722D01*
X11586730Y-17523722D02*
X11596253Y-17504674D01*
X11596253Y-17504674D02*
X11615301Y-17495150D01*
X11615301Y-17495150D02*
X11653396Y-17495150D01*
X11653396Y-17495150D02*
X11672444Y-17504674D01*
X11672444Y-17504674D02*
X11681968Y-17523722D01*
X11681968Y-17523722D02*
X11681968Y-17542770D01*
X11681968Y-17542770D02*
X11586730Y-17561817D01*
X11758158Y-17618960D02*
X11777206Y-17628484D01*
X11777206Y-17628484D02*
X11815301Y-17628484D01*
X11815301Y-17628484D02*
X11834349Y-17618960D01*
X11834349Y-17618960D02*
X11843872Y-17599912D01*
X11843872Y-17599912D02*
X11843872Y-17590389D01*
X11843872Y-17590389D02*
X11834349Y-17571341D01*
X11834349Y-17571341D02*
X11815301Y-17561817D01*
X11815301Y-17561817D02*
X11786730Y-17561817D01*
X11786730Y-17561817D02*
X11767682Y-17552293D01*
X11767682Y-17552293D02*
X11758158Y-17533246D01*
X11758158Y-17533246D02*
X11758158Y-17523722D01*
X11758158Y-17523722D02*
X11767682Y-17504674D01*
X11767682Y-17504674D02*
X11786730Y-17495150D01*
X11786730Y-17495150D02*
X11815301Y-17495150D01*
X11815301Y-17495150D02*
X11834349Y-17504674D01*
X11910539Y-17704674D02*
X11920063Y-17695150D01*
X11920063Y-17695150D02*
X11939111Y-17666579D01*
X11939111Y-17666579D02*
X11948634Y-17647531D01*
X11948634Y-17647531D02*
X11958158Y-17618960D01*
X11958158Y-17618960D02*
X11967682Y-17571341D01*
X11967682Y-17571341D02*
X11967682Y-17533246D01*
X11967682Y-17533246D02*
X11958158Y-17485627D01*
X11958158Y-17485627D02*
X11948634Y-17457055D01*
X11948634Y-17457055D02*
X11939111Y-17438008D01*
X11939111Y-17438008D02*
X11920063Y-17409436D01*
X11920063Y-17409436D02*
X11910539Y-17399912D01*
D15*
X6890000Y-17856000D02*
X6945000Y-17801000D01*
X6890000Y-17746000D01*
X6835000Y-17801000D01*
X6890000Y-17856000D01*
D10*
X7310539Y-17892484D02*
X7196253Y-17892484D01*
X7253396Y-17892484D02*
X7253396Y-17692484D01*
X7253396Y-17692484D02*
X7234348Y-17721055D01*
X7234348Y-17721055D02*
X7215301Y-17740103D01*
X7215301Y-17740103D02*
X7196253Y-17749627D01*
X7396253Y-17873436D02*
X7405777Y-17882960D01*
X7405777Y-17882960D02*
X7396253Y-17892484D01*
X7396253Y-17892484D02*
X7386729Y-17882960D01*
X7386729Y-17882960D02*
X7396253Y-17873436D01*
X7396253Y-17873436D02*
X7396253Y-17892484D01*
X7596253Y-17892484D02*
X7481967Y-17892484D01*
X7539110Y-17892484D02*
X7539110Y-17692484D01*
X7539110Y-17692484D02*
X7520062Y-17721055D01*
X7520062Y-17721055D02*
X7501015Y-17740103D01*
X7501015Y-17740103D02*
X7481967Y-17749627D01*
X7720062Y-17692484D02*
X7739110Y-17692484D01*
X7739110Y-17692484D02*
X7758158Y-17702008D01*
X7758158Y-17702008D02*
X7767682Y-17711531D01*
X7767682Y-17711531D02*
X7777205Y-17730579D01*
X7777205Y-17730579D02*
X7786729Y-17768674D01*
X7786729Y-17768674D02*
X7786729Y-17816293D01*
X7786729Y-17816293D02*
X7777205Y-17854389D01*
X7777205Y-17854389D02*
X7767682Y-17873436D01*
X7767682Y-17873436D02*
X7758158Y-17882960D01*
X7758158Y-17882960D02*
X7739110Y-17892484D01*
X7739110Y-17892484D02*
X7720062Y-17892484D01*
X7720062Y-17892484D02*
X7701015Y-17882960D01*
X7701015Y-17882960D02*
X7691491Y-17873436D01*
X7691491Y-17873436D02*
X7681967Y-17854389D01*
X7681967Y-17854389D02*
X7672443Y-17816293D01*
X7672443Y-17816293D02*
X7672443Y-17768674D01*
X7672443Y-17768674D02*
X7681967Y-17730579D01*
X7681967Y-17730579D02*
X7691491Y-17711531D01*
X7691491Y-17711531D02*
X7701015Y-17702008D01*
X7701015Y-17702008D02*
X7720062Y-17692484D01*
X7910539Y-17692484D02*
X7929586Y-17692484D01*
X7929586Y-17692484D02*
X7948634Y-17702008D01*
X7948634Y-17702008D02*
X7958158Y-17711531D01*
X7958158Y-17711531D02*
X7967682Y-17730579D01*
X7967682Y-17730579D02*
X7977205Y-17768674D01*
X7977205Y-17768674D02*
X7977205Y-17816293D01*
X7977205Y-17816293D02*
X7967682Y-17854389D01*
X7967682Y-17854389D02*
X7958158Y-17873436D01*
X7958158Y-17873436D02*
X7948634Y-17882960D01*
X7948634Y-17882960D02*
X7929586Y-17892484D01*
X7929586Y-17892484D02*
X7910539Y-17892484D01*
X7910539Y-17892484D02*
X7891491Y-17882960D01*
X7891491Y-17882960D02*
X7881967Y-17873436D01*
X7881967Y-17873436D02*
X7872443Y-17854389D01*
X7872443Y-17854389D02*
X7862920Y-17816293D01*
X7862920Y-17816293D02*
X7862920Y-17768674D01*
X7862920Y-17768674D02*
X7872443Y-17730579D01*
X7872443Y-17730579D02*
X7881967Y-17711531D01*
X7881967Y-17711531D02*
X7891491Y-17702008D01*
X7891491Y-17702008D02*
X7910539Y-17692484D01*
X8062920Y-17892484D02*
X8062920Y-17759150D01*
X8062920Y-17778198D02*
X8072443Y-17768674D01*
X8072443Y-17768674D02*
X8091491Y-17759150D01*
X8091491Y-17759150D02*
X8120063Y-17759150D01*
X8120063Y-17759150D02*
X8139110Y-17768674D01*
X8139110Y-17768674D02*
X8148634Y-17787722D01*
X8148634Y-17787722D02*
X8148634Y-17892484D01*
X8148634Y-17787722D02*
X8158158Y-17768674D01*
X8158158Y-17768674D02*
X8177205Y-17759150D01*
X8177205Y-17759150D02*
X8205777Y-17759150D01*
X8205777Y-17759150D02*
X8224824Y-17768674D01*
X8224824Y-17768674D02*
X8234348Y-17787722D01*
X8234348Y-17787722D02*
X8234348Y-17892484D01*
X8329586Y-17892484D02*
X8329586Y-17759150D01*
X8329586Y-17778198D02*
X8339110Y-17768674D01*
X8339110Y-17768674D02*
X8358158Y-17759150D01*
X8358158Y-17759150D02*
X8386729Y-17759150D01*
X8386729Y-17759150D02*
X8405777Y-17768674D01*
X8405777Y-17768674D02*
X8415301Y-17787722D01*
X8415301Y-17787722D02*
X8415301Y-17892484D01*
X8415301Y-17787722D02*
X8424825Y-17768674D01*
X8424825Y-17768674D02*
X8443872Y-17759150D01*
X8443872Y-17759150D02*
X8472444Y-17759150D01*
X8472444Y-17759150D02*
X8491491Y-17768674D01*
X8491491Y-17768674D02*
X8501015Y-17787722D01*
X8501015Y-17787722D02*
X8501015Y-17892484D01*
X8891491Y-17682960D02*
X8720063Y-17940103D01*
X9148634Y-17692484D02*
X9167682Y-17692484D01*
X9167682Y-17692484D02*
X9186729Y-17702008D01*
X9186729Y-17702008D02*
X9196253Y-17711531D01*
X9196253Y-17711531D02*
X9205777Y-17730579D01*
X9205777Y-17730579D02*
X9215301Y-17768674D01*
X9215301Y-17768674D02*
X9215301Y-17816293D01*
X9215301Y-17816293D02*
X9205777Y-17854389D01*
X9205777Y-17854389D02*
X9196253Y-17873436D01*
X9196253Y-17873436D02*
X9186729Y-17882960D01*
X9186729Y-17882960D02*
X9167682Y-17892484D01*
X9167682Y-17892484D02*
X9148634Y-17892484D01*
X9148634Y-17892484D02*
X9129587Y-17882960D01*
X9129587Y-17882960D02*
X9120063Y-17873436D01*
X9120063Y-17873436D02*
X9110539Y-17854389D01*
X9110539Y-17854389D02*
X9101015Y-17816293D01*
X9101015Y-17816293D02*
X9101015Y-17768674D01*
X9101015Y-17768674D02*
X9110539Y-17730579D01*
X9110539Y-17730579D02*
X9120063Y-17711531D01*
X9120063Y-17711531D02*
X9129587Y-17702008D01*
X9129587Y-17702008D02*
X9148634Y-17692484D01*
X9301015Y-17873436D02*
X9310539Y-17882960D01*
X9310539Y-17882960D02*
X9301015Y-17892484D01*
X9301015Y-17892484D02*
X9291491Y-17882960D01*
X9291491Y-17882960D02*
X9301015Y-17873436D01*
X9301015Y-17873436D02*
X9301015Y-17892484D01*
X9434348Y-17692484D02*
X9453396Y-17692484D01*
X9453396Y-17692484D02*
X9472444Y-17702008D01*
X9472444Y-17702008D02*
X9481968Y-17711531D01*
X9481968Y-17711531D02*
X9491491Y-17730579D01*
X9491491Y-17730579D02*
X9501015Y-17768674D01*
X9501015Y-17768674D02*
X9501015Y-17816293D01*
X9501015Y-17816293D02*
X9491491Y-17854389D01*
X9491491Y-17854389D02*
X9481968Y-17873436D01*
X9481968Y-17873436D02*
X9472444Y-17882960D01*
X9472444Y-17882960D02*
X9453396Y-17892484D01*
X9453396Y-17892484D02*
X9434348Y-17892484D01*
X9434348Y-17892484D02*
X9415301Y-17882960D01*
X9415301Y-17882960D02*
X9405777Y-17873436D01*
X9405777Y-17873436D02*
X9396253Y-17854389D01*
X9396253Y-17854389D02*
X9386729Y-17816293D01*
X9386729Y-17816293D02*
X9386729Y-17768674D01*
X9386729Y-17768674D02*
X9396253Y-17730579D01*
X9396253Y-17730579D02*
X9405777Y-17711531D01*
X9405777Y-17711531D02*
X9415301Y-17702008D01*
X9415301Y-17702008D02*
X9434348Y-17692484D01*
X9672444Y-17759150D02*
X9672444Y-17892484D01*
X9624825Y-17682960D02*
X9577206Y-17825817D01*
X9577206Y-17825817D02*
X9701015Y-17825817D01*
X9758158Y-17692484D02*
X9881968Y-17692484D01*
X9881968Y-17692484D02*
X9815301Y-17768674D01*
X9815301Y-17768674D02*
X9843872Y-17768674D01*
X9843872Y-17768674D02*
X9862920Y-17778198D01*
X9862920Y-17778198D02*
X9872444Y-17787722D01*
X9872444Y-17787722D02*
X9881968Y-17806770D01*
X9881968Y-17806770D02*
X9881968Y-17854389D01*
X9881968Y-17854389D02*
X9872444Y-17873436D01*
X9872444Y-17873436D02*
X9862920Y-17882960D01*
X9862920Y-17882960D02*
X9843872Y-17892484D01*
X9843872Y-17892484D02*
X9786729Y-17892484D01*
X9786729Y-17892484D02*
X9767682Y-17882960D01*
X9767682Y-17882960D02*
X9758158Y-17873436D01*
X9948634Y-17692484D02*
X10072444Y-17692484D01*
X10072444Y-17692484D02*
X10005777Y-17768674D01*
X10005777Y-17768674D02*
X10034349Y-17768674D01*
X10034349Y-17768674D02*
X10053396Y-17778198D01*
X10053396Y-17778198D02*
X10062920Y-17787722D01*
X10062920Y-17787722D02*
X10072444Y-17806770D01*
X10072444Y-17806770D02*
X10072444Y-17854389D01*
X10072444Y-17854389D02*
X10062920Y-17873436D01*
X10062920Y-17873436D02*
X10053396Y-17882960D01*
X10053396Y-17882960D02*
X10034349Y-17892484D01*
X10034349Y-17892484D02*
X9977206Y-17892484D01*
X9977206Y-17892484D02*
X9958158Y-17882960D01*
X9958158Y-17882960D02*
X9948634Y-17873436D01*
X10148634Y-17692484D02*
X10148634Y-17730579D01*
X10224825Y-17692484D02*
X10224825Y-17730579D01*
X10520063Y-17968674D02*
X10510539Y-17959150D01*
X10510539Y-17959150D02*
X10491491Y-17930579D01*
X10491491Y-17930579D02*
X10481968Y-17911531D01*
X10481968Y-17911531D02*
X10472444Y-17882960D01*
X10472444Y-17882960D02*
X10462920Y-17835341D01*
X10462920Y-17835341D02*
X10462920Y-17797246D01*
X10462920Y-17797246D02*
X10472444Y-17749627D01*
X10472444Y-17749627D02*
X10481968Y-17721055D01*
X10481968Y-17721055D02*
X10491491Y-17702008D01*
X10491491Y-17702008D02*
X10510539Y-17673436D01*
X10510539Y-17673436D02*
X10520063Y-17663912D01*
X10586730Y-17711531D02*
X10596253Y-17702008D01*
X10596253Y-17702008D02*
X10615301Y-17692484D01*
X10615301Y-17692484D02*
X10662920Y-17692484D01*
X10662920Y-17692484D02*
X10681968Y-17702008D01*
X10681968Y-17702008D02*
X10691491Y-17711531D01*
X10691491Y-17711531D02*
X10701015Y-17730579D01*
X10701015Y-17730579D02*
X10701015Y-17749627D01*
X10701015Y-17749627D02*
X10691491Y-17778198D01*
X10691491Y-17778198D02*
X10577206Y-17892484D01*
X10577206Y-17892484D02*
X10701015Y-17892484D01*
X10872444Y-17759150D02*
X10872444Y-17892484D01*
X10824825Y-17682960D02*
X10777206Y-17825817D01*
X10777206Y-17825817D02*
X10901015Y-17825817D01*
X11129587Y-17892484D02*
X11129587Y-17692484D01*
X11215301Y-17892484D02*
X11215301Y-17787722D01*
X11215301Y-17787722D02*
X11205777Y-17768674D01*
X11205777Y-17768674D02*
X11186730Y-17759150D01*
X11186730Y-17759150D02*
X11158158Y-17759150D01*
X11158158Y-17759150D02*
X11139111Y-17768674D01*
X11139111Y-17768674D02*
X11129587Y-17778198D01*
X11339110Y-17892484D02*
X11320063Y-17882960D01*
X11320063Y-17882960D02*
X11310539Y-17873436D01*
X11310539Y-17873436D02*
X11301015Y-17854389D01*
X11301015Y-17854389D02*
X11301015Y-17797246D01*
X11301015Y-17797246D02*
X11310539Y-17778198D01*
X11310539Y-17778198D02*
X11320063Y-17768674D01*
X11320063Y-17768674D02*
X11339110Y-17759150D01*
X11339110Y-17759150D02*
X11367682Y-17759150D01*
X11367682Y-17759150D02*
X11386730Y-17768674D01*
X11386730Y-17768674D02*
X11396253Y-17778198D01*
X11396253Y-17778198D02*
X11405777Y-17797246D01*
X11405777Y-17797246D02*
X11405777Y-17854389D01*
X11405777Y-17854389D02*
X11396253Y-17873436D01*
X11396253Y-17873436D02*
X11386730Y-17882960D01*
X11386730Y-17882960D02*
X11367682Y-17892484D01*
X11367682Y-17892484D02*
X11339110Y-17892484D01*
X11520063Y-17892484D02*
X11501015Y-17882960D01*
X11501015Y-17882960D02*
X11491491Y-17863912D01*
X11491491Y-17863912D02*
X11491491Y-17692484D01*
X11672444Y-17882960D02*
X11653396Y-17892484D01*
X11653396Y-17892484D02*
X11615301Y-17892484D01*
X11615301Y-17892484D02*
X11596253Y-17882960D01*
X11596253Y-17882960D02*
X11586730Y-17863912D01*
X11586730Y-17863912D02*
X11586730Y-17787722D01*
X11586730Y-17787722D02*
X11596253Y-17768674D01*
X11596253Y-17768674D02*
X11615301Y-17759150D01*
X11615301Y-17759150D02*
X11653396Y-17759150D01*
X11653396Y-17759150D02*
X11672444Y-17768674D01*
X11672444Y-17768674D02*
X11681968Y-17787722D01*
X11681968Y-17787722D02*
X11681968Y-17806770D01*
X11681968Y-17806770D02*
X11586730Y-17825817D01*
X11758158Y-17882960D02*
X11777206Y-17892484D01*
X11777206Y-17892484D02*
X11815301Y-17892484D01*
X11815301Y-17892484D02*
X11834349Y-17882960D01*
X11834349Y-17882960D02*
X11843872Y-17863912D01*
X11843872Y-17863912D02*
X11843872Y-17854389D01*
X11843872Y-17854389D02*
X11834349Y-17835341D01*
X11834349Y-17835341D02*
X11815301Y-17825817D01*
X11815301Y-17825817D02*
X11786730Y-17825817D01*
X11786730Y-17825817D02*
X11767682Y-17816293D01*
X11767682Y-17816293D02*
X11758158Y-17797246D01*
X11758158Y-17797246D02*
X11758158Y-17787722D01*
X11758158Y-17787722D02*
X11767682Y-17768674D01*
X11767682Y-17768674D02*
X11786730Y-17759150D01*
X11786730Y-17759150D02*
X11815301Y-17759150D01*
X11815301Y-17759150D02*
X11834349Y-17768674D01*
X11910539Y-17968674D02*
X11920063Y-17959150D01*
X11920063Y-17959150D02*
X11939111Y-17930579D01*
X11939111Y-17930579D02*
X11948634Y-17911531D01*
X11948634Y-17911531D02*
X11958158Y-17882960D01*
X11958158Y-17882960D02*
X11967682Y-17835341D01*
X11967682Y-17835341D02*
X11967682Y-17797246D01*
X11967682Y-17797246D02*
X11958158Y-17749627D01*
X11958158Y-17749627D02*
X11948634Y-17721055D01*
X11948634Y-17721055D02*
X11939111Y-17702008D01*
X11939111Y-17702008D02*
X11920063Y-17673436D01*
X11920063Y-17673436D02*
X11910539Y-17663912D01*
D16*
X6793000Y-17989000D02*
X6945000Y-18141000D01*
X6945000Y-17989000D02*
X6793000Y-18141000D01*
X6945000Y-18065000D02*
G75*
G03*
X6945000Y-18065000I-76000J0D01*
G01*
D10*
X7310539Y-18156484D02*
X7196253Y-18156484D01*
X7253396Y-18156484D02*
X7253396Y-17956484D01*
X7253396Y-17956484D02*
X7234348Y-17985055D01*
X7234348Y-17985055D02*
X7215301Y-18004103D01*
X7215301Y-18004103D02*
X7196253Y-18013627D01*
X7396253Y-18137436D02*
X7405777Y-18146960D01*
X7405777Y-18146960D02*
X7396253Y-18156484D01*
X7396253Y-18156484D02*
X7386729Y-18146960D01*
X7386729Y-18146960D02*
X7396253Y-18137436D01*
X7396253Y-18137436D02*
X7396253Y-18156484D01*
X7586729Y-17956484D02*
X7491491Y-17956484D01*
X7491491Y-17956484D02*
X7481967Y-18051722D01*
X7481967Y-18051722D02*
X7491491Y-18042198D01*
X7491491Y-18042198D02*
X7510539Y-18032674D01*
X7510539Y-18032674D02*
X7558158Y-18032674D01*
X7558158Y-18032674D02*
X7577205Y-18042198D01*
X7577205Y-18042198D02*
X7586729Y-18051722D01*
X7586729Y-18051722D02*
X7596253Y-18070770D01*
X7596253Y-18070770D02*
X7596253Y-18118389D01*
X7596253Y-18118389D02*
X7586729Y-18137436D01*
X7586729Y-18137436D02*
X7577205Y-18146960D01*
X7577205Y-18146960D02*
X7558158Y-18156484D01*
X7558158Y-18156484D02*
X7510539Y-18156484D01*
X7510539Y-18156484D02*
X7491491Y-18146960D01*
X7491491Y-18146960D02*
X7481967Y-18137436D01*
X7672443Y-17975531D02*
X7681967Y-17966008D01*
X7681967Y-17966008D02*
X7701015Y-17956484D01*
X7701015Y-17956484D02*
X7748634Y-17956484D01*
X7748634Y-17956484D02*
X7767682Y-17966008D01*
X7767682Y-17966008D02*
X7777205Y-17975531D01*
X7777205Y-17975531D02*
X7786729Y-17994579D01*
X7786729Y-17994579D02*
X7786729Y-18013627D01*
X7786729Y-18013627D02*
X7777205Y-18042198D01*
X7777205Y-18042198D02*
X7662920Y-18156484D01*
X7662920Y-18156484D02*
X7786729Y-18156484D01*
X7910539Y-17956484D02*
X7929586Y-17956484D01*
X7929586Y-17956484D02*
X7948634Y-17966008D01*
X7948634Y-17966008D02*
X7958158Y-17975531D01*
X7958158Y-17975531D02*
X7967682Y-17994579D01*
X7967682Y-17994579D02*
X7977205Y-18032674D01*
X7977205Y-18032674D02*
X7977205Y-18080293D01*
X7977205Y-18080293D02*
X7967682Y-18118389D01*
X7967682Y-18118389D02*
X7958158Y-18137436D01*
X7958158Y-18137436D02*
X7948634Y-18146960D01*
X7948634Y-18146960D02*
X7929586Y-18156484D01*
X7929586Y-18156484D02*
X7910539Y-18156484D01*
X7910539Y-18156484D02*
X7891491Y-18146960D01*
X7891491Y-18146960D02*
X7881967Y-18137436D01*
X7881967Y-18137436D02*
X7872443Y-18118389D01*
X7872443Y-18118389D02*
X7862920Y-18080293D01*
X7862920Y-18080293D02*
X7862920Y-18032674D01*
X7862920Y-18032674D02*
X7872443Y-17994579D01*
X7872443Y-17994579D02*
X7881967Y-17975531D01*
X7881967Y-17975531D02*
X7891491Y-17966008D01*
X7891491Y-17966008D02*
X7910539Y-17956484D01*
X8062920Y-18156484D02*
X8062920Y-18023150D01*
X8062920Y-18042198D02*
X8072443Y-18032674D01*
X8072443Y-18032674D02*
X8091491Y-18023150D01*
X8091491Y-18023150D02*
X8120063Y-18023150D01*
X8120063Y-18023150D02*
X8139110Y-18032674D01*
X8139110Y-18032674D02*
X8148634Y-18051722D01*
X8148634Y-18051722D02*
X8148634Y-18156484D01*
X8148634Y-18051722D02*
X8158158Y-18032674D01*
X8158158Y-18032674D02*
X8177205Y-18023150D01*
X8177205Y-18023150D02*
X8205777Y-18023150D01*
X8205777Y-18023150D02*
X8224824Y-18032674D01*
X8224824Y-18032674D02*
X8234348Y-18051722D01*
X8234348Y-18051722D02*
X8234348Y-18156484D01*
X8329586Y-18156484D02*
X8329586Y-18023150D01*
X8329586Y-18042198D02*
X8339110Y-18032674D01*
X8339110Y-18032674D02*
X8358158Y-18023150D01*
X8358158Y-18023150D02*
X8386729Y-18023150D01*
X8386729Y-18023150D02*
X8405777Y-18032674D01*
X8405777Y-18032674D02*
X8415301Y-18051722D01*
X8415301Y-18051722D02*
X8415301Y-18156484D01*
X8415301Y-18051722D02*
X8424825Y-18032674D01*
X8424825Y-18032674D02*
X8443872Y-18023150D01*
X8443872Y-18023150D02*
X8472444Y-18023150D01*
X8472444Y-18023150D02*
X8491491Y-18032674D01*
X8491491Y-18032674D02*
X8501015Y-18051722D01*
X8501015Y-18051722D02*
X8501015Y-18156484D01*
X8891491Y-17946960D02*
X8720063Y-18204103D01*
X9148634Y-17956484D02*
X9167682Y-17956484D01*
X9167682Y-17956484D02*
X9186729Y-17966008D01*
X9186729Y-17966008D02*
X9196253Y-17975531D01*
X9196253Y-17975531D02*
X9205777Y-17994579D01*
X9205777Y-17994579D02*
X9215301Y-18032674D01*
X9215301Y-18032674D02*
X9215301Y-18080293D01*
X9215301Y-18080293D02*
X9205777Y-18118389D01*
X9205777Y-18118389D02*
X9196253Y-18137436D01*
X9196253Y-18137436D02*
X9186729Y-18146960D01*
X9186729Y-18146960D02*
X9167682Y-18156484D01*
X9167682Y-18156484D02*
X9148634Y-18156484D01*
X9148634Y-18156484D02*
X9129587Y-18146960D01*
X9129587Y-18146960D02*
X9120063Y-18137436D01*
X9120063Y-18137436D02*
X9110539Y-18118389D01*
X9110539Y-18118389D02*
X9101015Y-18080293D01*
X9101015Y-18080293D02*
X9101015Y-18032674D01*
X9101015Y-18032674D02*
X9110539Y-17994579D01*
X9110539Y-17994579D02*
X9120063Y-17975531D01*
X9120063Y-17975531D02*
X9129587Y-17966008D01*
X9129587Y-17966008D02*
X9148634Y-17956484D01*
X9301015Y-18137436D02*
X9310539Y-18146960D01*
X9310539Y-18146960D02*
X9301015Y-18156484D01*
X9301015Y-18156484D02*
X9291491Y-18146960D01*
X9291491Y-18146960D02*
X9301015Y-18137436D01*
X9301015Y-18137436D02*
X9301015Y-18156484D01*
X9434348Y-17956484D02*
X9453396Y-17956484D01*
X9453396Y-17956484D02*
X9472444Y-17966008D01*
X9472444Y-17966008D02*
X9481968Y-17975531D01*
X9481968Y-17975531D02*
X9491491Y-17994579D01*
X9491491Y-17994579D02*
X9501015Y-18032674D01*
X9501015Y-18032674D02*
X9501015Y-18080293D01*
X9501015Y-18080293D02*
X9491491Y-18118389D01*
X9491491Y-18118389D02*
X9481968Y-18137436D01*
X9481968Y-18137436D02*
X9472444Y-18146960D01*
X9472444Y-18146960D02*
X9453396Y-18156484D01*
X9453396Y-18156484D02*
X9434348Y-18156484D01*
X9434348Y-18156484D02*
X9415301Y-18146960D01*
X9415301Y-18146960D02*
X9405777Y-18137436D01*
X9405777Y-18137436D02*
X9396253Y-18118389D01*
X9396253Y-18118389D02*
X9386729Y-18080293D01*
X9386729Y-18080293D02*
X9386729Y-18032674D01*
X9386729Y-18032674D02*
X9396253Y-17994579D01*
X9396253Y-17994579D02*
X9405777Y-17975531D01*
X9405777Y-17975531D02*
X9415301Y-17966008D01*
X9415301Y-17966008D02*
X9434348Y-17956484D01*
X9681968Y-17956484D02*
X9586729Y-17956484D01*
X9586729Y-17956484D02*
X9577206Y-18051722D01*
X9577206Y-18051722D02*
X9586729Y-18042198D01*
X9586729Y-18042198D02*
X9605777Y-18032674D01*
X9605777Y-18032674D02*
X9653396Y-18032674D01*
X9653396Y-18032674D02*
X9672444Y-18042198D01*
X9672444Y-18042198D02*
X9681968Y-18051722D01*
X9681968Y-18051722D02*
X9691491Y-18070770D01*
X9691491Y-18070770D02*
X9691491Y-18118389D01*
X9691491Y-18118389D02*
X9681968Y-18137436D01*
X9681968Y-18137436D02*
X9672444Y-18146960D01*
X9672444Y-18146960D02*
X9653396Y-18156484D01*
X9653396Y-18156484D02*
X9605777Y-18156484D01*
X9605777Y-18156484D02*
X9586729Y-18146960D01*
X9586729Y-18146960D02*
X9577206Y-18137436D01*
X9786729Y-18156484D02*
X9824825Y-18156484D01*
X9824825Y-18156484D02*
X9843872Y-18146960D01*
X9843872Y-18146960D02*
X9853396Y-18137436D01*
X9853396Y-18137436D02*
X9872444Y-18108865D01*
X9872444Y-18108865D02*
X9881968Y-18070770D01*
X9881968Y-18070770D02*
X9881968Y-17994579D01*
X9881968Y-17994579D02*
X9872444Y-17975531D01*
X9872444Y-17975531D02*
X9862920Y-17966008D01*
X9862920Y-17966008D02*
X9843872Y-17956484D01*
X9843872Y-17956484D02*
X9805777Y-17956484D01*
X9805777Y-17956484D02*
X9786729Y-17966008D01*
X9786729Y-17966008D02*
X9777206Y-17975531D01*
X9777206Y-17975531D02*
X9767682Y-17994579D01*
X9767682Y-17994579D02*
X9767682Y-18042198D01*
X9767682Y-18042198D02*
X9777206Y-18061246D01*
X9777206Y-18061246D02*
X9786729Y-18070770D01*
X9786729Y-18070770D02*
X9805777Y-18080293D01*
X9805777Y-18080293D02*
X9843872Y-18080293D01*
X9843872Y-18080293D02*
X9862920Y-18070770D01*
X9862920Y-18070770D02*
X9872444Y-18061246D01*
X9872444Y-18061246D02*
X9881968Y-18042198D01*
X9996253Y-18042198D02*
X9977206Y-18032674D01*
X9977206Y-18032674D02*
X9967682Y-18023150D01*
X9967682Y-18023150D02*
X9958158Y-18004103D01*
X9958158Y-18004103D02*
X9958158Y-17994579D01*
X9958158Y-17994579D02*
X9967682Y-17975531D01*
X9967682Y-17975531D02*
X9977206Y-17966008D01*
X9977206Y-17966008D02*
X9996253Y-17956484D01*
X9996253Y-17956484D02*
X10034349Y-17956484D01*
X10034349Y-17956484D02*
X10053396Y-17966008D01*
X10053396Y-17966008D02*
X10062920Y-17975531D01*
X10062920Y-17975531D02*
X10072444Y-17994579D01*
X10072444Y-17994579D02*
X10072444Y-18004103D01*
X10072444Y-18004103D02*
X10062920Y-18023150D01*
X10062920Y-18023150D02*
X10053396Y-18032674D01*
X10053396Y-18032674D02*
X10034349Y-18042198D01*
X10034349Y-18042198D02*
X9996253Y-18042198D01*
X9996253Y-18042198D02*
X9977206Y-18051722D01*
X9977206Y-18051722D02*
X9967682Y-18061246D01*
X9967682Y-18061246D02*
X9958158Y-18080293D01*
X9958158Y-18080293D02*
X9958158Y-18118389D01*
X9958158Y-18118389D02*
X9967682Y-18137436D01*
X9967682Y-18137436D02*
X9977206Y-18146960D01*
X9977206Y-18146960D02*
X9996253Y-18156484D01*
X9996253Y-18156484D02*
X10034349Y-18156484D01*
X10034349Y-18156484D02*
X10053396Y-18146960D01*
X10053396Y-18146960D02*
X10062920Y-18137436D01*
X10062920Y-18137436D02*
X10072444Y-18118389D01*
X10072444Y-18118389D02*
X10072444Y-18080293D01*
X10072444Y-18080293D02*
X10062920Y-18061246D01*
X10062920Y-18061246D02*
X10053396Y-18051722D01*
X10053396Y-18051722D02*
X10034349Y-18042198D01*
X10148634Y-17956484D02*
X10148634Y-17994579D01*
X10224825Y-17956484D02*
X10224825Y-17994579D01*
X10520063Y-18232674D02*
X10510539Y-18223150D01*
X10510539Y-18223150D02*
X10491491Y-18194579D01*
X10491491Y-18194579D02*
X10481968Y-18175531D01*
X10481968Y-18175531D02*
X10472444Y-18146960D01*
X10472444Y-18146960D02*
X10462920Y-18099341D01*
X10462920Y-18099341D02*
X10462920Y-18061246D01*
X10462920Y-18061246D02*
X10472444Y-18013627D01*
X10472444Y-18013627D02*
X10481968Y-17985055D01*
X10481968Y-17985055D02*
X10491491Y-17966008D01*
X10491491Y-17966008D02*
X10510539Y-17937436D01*
X10510539Y-17937436D02*
X10520063Y-17927912D01*
X10586730Y-17975531D02*
X10596253Y-17966008D01*
X10596253Y-17966008D02*
X10615301Y-17956484D01*
X10615301Y-17956484D02*
X10662920Y-17956484D01*
X10662920Y-17956484D02*
X10681968Y-17966008D01*
X10681968Y-17966008D02*
X10691491Y-17975531D01*
X10691491Y-17975531D02*
X10701015Y-17994579D01*
X10701015Y-17994579D02*
X10701015Y-18013627D01*
X10701015Y-18013627D02*
X10691491Y-18042198D01*
X10691491Y-18042198D02*
X10577206Y-18156484D01*
X10577206Y-18156484D02*
X10701015Y-18156484D01*
X10939111Y-18156484D02*
X10939111Y-17956484D01*
X11024825Y-18156484D02*
X11024825Y-18051722D01*
X11024825Y-18051722D02*
X11015301Y-18032674D01*
X11015301Y-18032674D02*
X10996253Y-18023150D01*
X10996253Y-18023150D02*
X10967682Y-18023150D01*
X10967682Y-18023150D02*
X10948634Y-18032674D01*
X10948634Y-18032674D02*
X10939111Y-18042198D01*
X11148634Y-18156484D02*
X11129587Y-18146960D01*
X11129587Y-18146960D02*
X11120063Y-18137436D01*
X11120063Y-18137436D02*
X11110539Y-18118389D01*
X11110539Y-18118389D02*
X11110539Y-18061246D01*
X11110539Y-18061246D02*
X11120063Y-18042198D01*
X11120063Y-18042198D02*
X11129587Y-18032674D01*
X11129587Y-18032674D02*
X11148634Y-18023150D01*
X11148634Y-18023150D02*
X11177206Y-18023150D01*
X11177206Y-18023150D02*
X11196253Y-18032674D01*
X11196253Y-18032674D02*
X11205777Y-18042198D01*
X11205777Y-18042198D02*
X11215301Y-18061246D01*
X11215301Y-18061246D02*
X11215301Y-18118389D01*
X11215301Y-18118389D02*
X11205777Y-18137436D01*
X11205777Y-18137436D02*
X11196253Y-18146960D01*
X11196253Y-18146960D02*
X11177206Y-18156484D01*
X11177206Y-18156484D02*
X11148634Y-18156484D01*
X11329587Y-18156484D02*
X11310539Y-18146960D01*
X11310539Y-18146960D02*
X11301015Y-18127912D01*
X11301015Y-18127912D02*
X11301015Y-17956484D01*
X11481968Y-18146960D02*
X11462920Y-18156484D01*
X11462920Y-18156484D02*
X11424825Y-18156484D01*
X11424825Y-18156484D02*
X11405777Y-18146960D01*
X11405777Y-18146960D02*
X11396253Y-18127912D01*
X11396253Y-18127912D02*
X11396253Y-18051722D01*
X11396253Y-18051722D02*
X11405777Y-18032674D01*
X11405777Y-18032674D02*
X11424825Y-18023150D01*
X11424825Y-18023150D02*
X11462920Y-18023150D01*
X11462920Y-18023150D02*
X11481968Y-18032674D01*
X11481968Y-18032674D02*
X11491491Y-18051722D01*
X11491491Y-18051722D02*
X11491491Y-18070770D01*
X11491491Y-18070770D02*
X11396253Y-18089817D01*
X11567682Y-18146960D02*
X11586730Y-18156484D01*
X11586730Y-18156484D02*
X11624825Y-18156484D01*
X11624825Y-18156484D02*
X11643872Y-18146960D01*
X11643872Y-18146960D02*
X11653396Y-18127912D01*
X11653396Y-18127912D02*
X11653396Y-18118389D01*
X11653396Y-18118389D02*
X11643872Y-18099341D01*
X11643872Y-18099341D02*
X11624825Y-18089817D01*
X11624825Y-18089817D02*
X11596253Y-18089817D01*
X11596253Y-18089817D02*
X11577206Y-18080293D01*
X11577206Y-18080293D02*
X11567682Y-18061246D01*
X11567682Y-18061246D02*
X11567682Y-18051722D01*
X11567682Y-18051722D02*
X11577206Y-18032674D01*
X11577206Y-18032674D02*
X11596253Y-18023150D01*
X11596253Y-18023150D02*
X11624825Y-18023150D01*
X11624825Y-18023150D02*
X11643872Y-18032674D01*
X11720063Y-18232674D02*
X11729587Y-18223150D01*
X11729587Y-18223150D02*
X11748634Y-18194579D01*
X11748634Y-18194579D02*
X11758158Y-18175531D01*
X11758158Y-18175531D02*
X11767682Y-18146960D01*
X11767682Y-18146960D02*
X11777206Y-18099341D01*
X11777206Y-18099341D02*
X11777206Y-18061246D01*
X11777206Y-18061246D02*
X11767682Y-18013627D01*
X11767682Y-18013627D02*
X11758158Y-17985055D01*
X11758158Y-17985055D02*
X11748634Y-17966008D01*
X11748634Y-17966008D02*
X11729587Y-17937436D01*
X11729587Y-17937436D02*
X11720063Y-17927912D01*
D17*
X6788000Y-18258500D02*
X6945000Y-18415500D01*
X6945000Y-18258500D02*
X6788000Y-18415500D01*
X6866500Y-18258500D02*
X6866500Y-18415500D01*
X6788000Y-18337000D02*
X6945000Y-18337000D01*
D10*
X7310539Y-18428484D02*
X7196253Y-18428484D01*
X7253396Y-18428484D02*
X7253396Y-18228484D01*
X7253396Y-18228484D02*
X7234348Y-18257055D01*
X7234348Y-18257055D02*
X7215301Y-18276103D01*
X7215301Y-18276103D02*
X7196253Y-18285627D01*
X7396253Y-18409436D02*
X7405777Y-18418960D01*
X7405777Y-18418960D02*
X7396253Y-18428484D01*
X7396253Y-18428484D02*
X7386729Y-18418960D01*
X7386729Y-18418960D02*
X7396253Y-18409436D01*
X7396253Y-18409436D02*
X7396253Y-18428484D01*
X7586729Y-18228484D02*
X7491491Y-18228484D01*
X7491491Y-18228484D02*
X7481967Y-18323722D01*
X7481967Y-18323722D02*
X7491491Y-18314198D01*
X7491491Y-18314198D02*
X7510539Y-18304674D01*
X7510539Y-18304674D02*
X7558158Y-18304674D01*
X7558158Y-18304674D02*
X7577205Y-18314198D01*
X7577205Y-18314198D02*
X7586729Y-18323722D01*
X7586729Y-18323722D02*
X7596253Y-18342770D01*
X7596253Y-18342770D02*
X7596253Y-18390389D01*
X7596253Y-18390389D02*
X7586729Y-18409436D01*
X7586729Y-18409436D02*
X7577205Y-18418960D01*
X7577205Y-18418960D02*
X7558158Y-18428484D01*
X7558158Y-18428484D02*
X7510539Y-18428484D01*
X7510539Y-18428484D02*
X7491491Y-18418960D01*
X7491491Y-18418960D02*
X7481967Y-18409436D01*
X7662920Y-18228484D02*
X7796253Y-18228484D01*
X7796253Y-18228484D02*
X7710539Y-18428484D01*
X7910539Y-18228484D02*
X7929586Y-18228484D01*
X7929586Y-18228484D02*
X7948634Y-18238008D01*
X7948634Y-18238008D02*
X7958158Y-18247531D01*
X7958158Y-18247531D02*
X7967682Y-18266579D01*
X7967682Y-18266579D02*
X7977205Y-18304674D01*
X7977205Y-18304674D02*
X7977205Y-18352293D01*
X7977205Y-18352293D02*
X7967682Y-18390389D01*
X7967682Y-18390389D02*
X7958158Y-18409436D01*
X7958158Y-18409436D02*
X7948634Y-18418960D01*
X7948634Y-18418960D02*
X7929586Y-18428484D01*
X7929586Y-18428484D02*
X7910539Y-18428484D01*
X7910539Y-18428484D02*
X7891491Y-18418960D01*
X7891491Y-18418960D02*
X7881967Y-18409436D01*
X7881967Y-18409436D02*
X7872443Y-18390389D01*
X7872443Y-18390389D02*
X7862920Y-18352293D01*
X7862920Y-18352293D02*
X7862920Y-18304674D01*
X7862920Y-18304674D02*
X7872443Y-18266579D01*
X7872443Y-18266579D02*
X7881967Y-18247531D01*
X7881967Y-18247531D02*
X7891491Y-18238008D01*
X7891491Y-18238008D02*
X7910539Y-18228484D01*
X8062920Y-18428484D02*
X8062920Y-18295150D01*
X8062920Y-18314198D02*
X8072443Y-18304674D01*
X8072443Y-18304674D02*
X8091491Y-18295150D01*
X8091491Y-18295150D02*
X8120063Y-18295150D01*
X8120063Y-18295150D02*
X8139110Y-18304674D01*
X8139110Y-18304674D02*
X8148634Y-18323722D01*
X8148634Y-18323722D02*
X8148634Y-18428484D01*
X8148634Y-18323722D02*
X8158158Y-18304674D01*
X8158158Y-18304674D02*
X8177205Y-18295150D01*
X8177205Y-18295150D02*
X8205777Y-18295150D01*
X8205777Y-18295150D02*
X8224824Y-18304674D01*
X8224824Y-18304674D02*
X8234348Y-18323722D01*
X8234348Y-18323722D02*
X8234348Y-18428484D01*
X8329586Y-18428484D02*
X8329586Y-18295150D01*
X8329586Y-18314198D02*
X8339110Y-18304674D01*
X8339110Y-18304674D02*
X8358158Y-18295150D01*
X8358158Y-18295150D02*
X8386729Y-18295150D01*
X8386729Y-18295150D02*
X8405777Y-18304674D01*
X8405777Y-18304674D02*
X8415301Y-18323722D01*
X8415301Y-18323722D02*
X8415301Y-18428484D01*
X8415301Y-18323722D02*
X8424825Y-18304674D01*
X8424825Y-18304674D02*
X8443872Y-18295150D01*
X8443872Y-18295150D02*
X8472444Y-18295150D01*
X8472444Y-18295150D02*
X8491491Y-18304674D01*
X8491491Y-18304674D02*
X8501015Y-18323722D01*
X8501015Y-18323722D02*
X8501015Y-18428484D01*
X8891491Y-18218960D02*
X8720063Y-18476103D01*
X9148634Y-18228484D02*
X9167682Y-18228484D01*
X9167682Y-18228484D02*
X9186729Y-18238008D01*
X9186729Y-18238008D02*
X9196253Y-18247531D01*
X9196253Y-18247531D02*
X9205777Y-18266579D01*
X9205777Y-18266579D02*
X9215301Y-18304674D01*
X9215301Y-18304674D02*
X9215301Y-18352293D01*
X9215301Y-18352293D02*
X9205777Y-18390389D01*
X9205777Y-18390389D02*
X9196253Y-18409436D01*
X9196253Y-18409436D02*
X9186729Y-18418960D01*
X9186729Y-18418960D02*
X9167682Y-18428484D01*
X9167682Y-18428484D02*
X9148634Y-18428484D01*
X9148634Y-18428484D02*
X9129587Y-18418960D01*
X9129587Y-18418960D02*
X9120063Y-18409436D01*
X9120063Y-18409436D02*
X9110539Y-18390389D01*
X9110539Y-18390389D02*
X9101015Y-18352293D01*
X9101015Y-18352293D02*
X9101015Y-18304674D01*
X9101015Y-18304674D02*
X9110539Y-18266579D01*
X9110539Y-18266579D02*
X9120063Y-18247531D01*
X9120063Y-18247531D02*
X9129587Y-18238008D01*
X9129587Y-18238008D02*
X9148634Y-18228484D01*
X9301015Y-18409436D02*
X9310539Y-18418960D01*
X9310539Y-18418960D02*
X9301015Y-18428484D01*
X9301015Y-18428484D02*
X9291491Y-18418960D01*
X9291491Y-18418960D02*
X9301015Y-18409436D01*
X9301015Y-18409436D02*
X9301015Y-18428484D01*
X9434348Y-18228484D02*
X9453396Y-18228484D01*
X9453396Y-18228484D02*
X9472444Y-18238008D01*
X9472444Y-18238008D02*
X9481968Y-18247531D01*
X9481968Y-18247531D02*
X9491491Y-18266579D01*
X9491491Y-18266579D02*
X9501015Y-18304674D01*
X9501015Y-18304674D02*
X9501015Y-18352293D01*
X9501015Y-18352293D02*
X9491491Y-18390389D01*
X9491491Y-18390389D02*
X9481968Y-18409436D01*
X9481968Y-18409436D02*
X9472444Y-18418960D01*
X9472444Y-18418960D02*
X9453396Y-18428484D01*
X9453396Y-18428484D02*
X9434348Y-18428484D01*
X9434348Y-18428484D02*
X9415301Y-18418960D01*
X9415301Y-18418960D02*
X9405777Y-18409436D01*
X9405777Y-18409436D02*
X9396253Y-18390389D01*
X9396253Y-18390389D02*
X9386729Y-18352293D01*
X9386729Y-18352293D02*
X9386729Y-18304674D01*
X9386729Y-18304674D02*
X9396253Y-18266579D01*
X9396253Y-18266579D02*
X9405777Y-18247531D01*
X9405777Y-18247531D02*
X9415301Y-18238008D01*
X9415301Y-18238008D02*
X9434348Y-18228484D01*
X9672444Y-18228484D02*
X9634348Y-18228484D01*
X9634348Y-18228484D02*
X9615301Y-18238008D01*
X9615301Y-18238008D02*
X9605777Y-18247531D01*
X9605777Y-18247531D02*
X9586729Y-18276103D01*
X9586729Y-18276103D02*
X9577206Y-18314198D01*
X9577206Y-18314198D02*
X9577206Y-18390389D01*
X9577206Y-18390389D02*
X9586729Y-18409436D01*
X9586729Y-18409436D02*
X9596253Y-18418960D01*
X9596253Y-18418960D02*
X9615301Y-18428484D01*
X9615301Y-18428484D02*
X9653396Y-18428484D01*
X9653396Y-18428484D02*
X9672444Y-18418960D01*
X9672444Y-18418960D02*
X9681968Y-18409436D01*
X9681968Y-18409436D02*
X9691491Y-18390389D01*
X9691491Y-18390389D02*
X9691491Y-18342770D01*
X9691491Y-18342770D02*
X9681968Y-18323722D01*
X9681968Y-18323722D02*
X9672444Y-18314198D01*
X9672444Y-18314198D02*
X9653396Y-18304674D01*
X9653396Y-18304674D02*
X9615301Y-18304674D01*
X9615301Y-18304674D02*
X9596253Y-18314198D01*
X9596253Y-18314198D02*
X9586729Y-18323722D01*
X9586729Y-18323722D02*
X9577206Y-18342770D01*
X9881968Y-18428484D02*
X9767682Y-18428484D01*
X9824825Y-18428484D02*
X9824825Y-18228484D01*
X9824825Y-18228484D02*
X9805777Y-18257055D01*
X9805777Y-18257055D02*
X9786729Y-18276103D01*
X9786729Y-18276103D02*
X9767682Y-18285627D01*
X9996253Y-18314198D02*
X9977206Y-18304674D01*
X9977206Y-18304674D02*
X9967682Y-18295150D01*
X9967682Y-18295150D02*
X9958158Y-18276103D01*
X9958158Y-18276103D02*
X9958158Y-18266579D01*
X9958158Y-18266579D02*
X9967682Y-18247531D01*
X9967682Y-18247531D02*
X9977206Y-18238008D01*
X9977206Y-18238008D02*
X9996253Y-18228484D01*
X9996253Y-18228484D02*
X10034349Y-18228484D01*
X10034349Y-18228484D02*
X10053396Y-18238008D01*
X10053396Y-18238008D02*
X10062920Y-18247531D01*
X10062920Y-18247531D02*
X10072444Y-18266579D01*
X10072444Y-18266579D02*
X10072444Y-18276103D01*
X10072444Y-18276103D02*
X10062920Y-18295150D01*
X10062920Y-18295150D02*
X10053396Y-18304674D01*
X10053396Y-18304674D02*
X10034349Y-18314198D01*
X10034349Y-18314198D02*
X9996253Y-18314198D01*
X9996253Y-18314198D02*
X9977206Y-18323722D01*
X9977206Y-18323722D02*
X9967682Y-18333246D01*
X9967682Y-18333246D02*
X9958158Y-18352293D01*
X9958158Y-18352293D02*
X9958158Y-18390389D01*
X9958158Y-18390389D02*
X9967682Y-18409436D01*
X9967682Y-18409436D02*
X9977206Y-18418960D01*
X9977206Y-18418960D02*
X9996253Y-18428484D01*
X9996253Y-18428484D02*
X10034349Y-18428484D01*
X10034349Y-18428484D02*
X10053396Y-18418960D01*
X10053396Y-18418960D02*
X10062920Y-18409436D01*
X10062920Y-18409436D02*
X10072444Y-18390389D01*
X10072444Y-18390389D02*
X10072444Y-18352293D01*
X10072444Y-18352293D02*
X10062920Y-18333246D01*
X10062920Y-18333246D02*
X10053396Y-18323722D01*
X10053396Y-18323722D02*
X10034349Y-18314198D01*
X10148634Y-18228484D02*
X10148634Y-18266579D01*
X10224825Y-18228484D02*
X10224825Y-18266579D01*
X10520063Y-18504674D02*
X10510539Y-18495150D01*
X10510539Y-18495150D02*
X10491491Y-18466579D01*
X10491491Y-18466579D02*
X10481968Y-18447531D01*
X10481968Y-18447531D02*
X10472444Y-18418960D01*
X10472444Y-18418960D02*
X10462920Y-18371341D01*
X10462920Y-18371341D02*
X10462920Y-18333246D01*
X10462920Y-18333246D02*
X10472444Y-18285627D01*
X10472444Y-18285627D02*
X10481968Y-18257055D01*
X10481968Y-18257055D02*
X10491491Y-18238008D01*
X10491491Y-18238008D02*
X10510539Y-18209436D01*
X10510539Y-18209436D02*
X10520063Y-18199912D01*
X10681968Y-18295150D02*
X10681968Y-18428484D01*
X10634349Y-18218960D02*
X10586730Y-18361817D01*
X10586730Y-18361817D02*
X10710539Y-18361817D01*
X10939111Y-18428484D02*
X10939111Y-18228484D01*
X11024825Y-18428484D02*
X11024825Y-18323722D01*
X11024825Y-18323722D02*
X11015301Y-18304674D01*
X11015301Y-18304674D02*
X10996253Y-18295150D01*
X10996253Y-18295150D02*
X10967682Y-18295150D01*
X10967682Y-18295150D02*
X10948634Y-18304674D01*
X10948634Y-18304674D02*
X10939111Y-18314198D01*
X11148634Y-18428484D02*
X11129587Y-18418960D01*
X11129587Y-18418960D02*
X11120063Y-18409436D01*
X11120063Y-18409436D02*
X11110539Y-18390389D01*
X11110539Y-18390389D02*
X11110539Y-18333246D01*
X11110539Y-18333246D02*
X11120063Y-18314198D01*
X11120063Y-18314198D02*
X11129587Y-18304674D01*
X11129587Y-18304674D02*
X11148634Y-18295150D01*
X11148634Y-18295150D02*
X11177206Y-18295150D01*
X11177206Y-18295150D02*
X11196253Y-18304674D01*
X11196253Y-18304674D02*
X11205777Y-18314198D01*
X11205777Y-18314198D02*
X11215301Y-18333246D01*
X11215301Y-18333246D02*
X11215301Y-18390389D01*
X11215301Y-18390389D02*
X11205777Y-18409436D01*
X11205777Y-18409436D02*
X11196253Y-18418960D01*
X11196253Y-18418960D02*
X11177206Y-18428484D01*
X11177206Y-18428484D02*
X11148634Y-18428484D01*
X11329587Y-18428484D02*
X11310539Y-18418960D01*
X11310539Y-18418960D02*
X11301015Y-18399912D01*
X11301015Y-18399912D02*
X11301015Y-18228484D01*
X11481968Y-18418960D02*
X11462920Y-18428484D01*
X11462920Y-18428484D02*
X11424825Y-18428484D01*
X11424825Y-18428484D02*
X11405777Y-18418960D01*
X11405777Y-18418960D02*
X11396253Y-18399912D01*
X11396253Y-18399912D02*
X11396253Y-18323722D01*
X11396253Y-18323722D02*
X11405777Y-18304674D01*
X11405777Y-18304674D02*
X11424825Y-18295150D01*
X11424825Y-18295150D02*
X11462920Y-18295150D01*
X11462920Y-18295150D02*
X11481968Y-18304674D01*
X11481968Y-18304674D02*
X11491491Y-18323722D01*
X11491491Y-18323722D02*
X11491491Y-18342770D01*
X11491491Y-18342770D02*
X11396253Y-18361817D01*
X11567682Y-18418960D02*
X11586730Y-18428484D01*
X11586730Y-18428484D02*
X11624825Y-18428484D01*
X11624825Y-18428484D02*
X11643872Y-18418960D01*
X11643872Y-18418960D02*
X11653396Y-18399912D01*
X11653396Y-18399912D02*
X11653396Y-18390389D01*
X11653396Y-18390389D02*
X11643872Y-18371341D01*
X11643872Y-18371341D02*
X11624825Y-18361817D01*
X11624825Y-18361817D02*
X11596253Y-18361817D01*
X11596253Y-18361817D02*
X11577206Y-18352293D01*
X11577206Y-18352293D02*
X11567682Y-18333246D01*
X11567682Y-18333246D02*
X11567682Y-18323722D01*
X11567682Y-18323722D02*
X11577206Y-18304674D01*
X11577206Y-18304674D02*
X11596253Y-18295150D01*
X11596253Y-18295150D02*
X11624825Y-18295150D01*
X11624825Y-18295150D02*
X11643872Y-18304674D01*
X11720063Y-18504674D02*
X11729587Y-18495150D01*
X11729587Y-18495150D02*
X11748634Y-18466579D01*
X11748634Y-18466579D02*
X11758158Y-18447531D01*
X11758158Y-18447531D02*
X11767682Y-18418960D01*
X11767682Y-18418960D02*
X11777206Y-18371341D01*
X11777206Y-18371341D02*
X11777206Y-18333246D01*
X11777206Y-18333246D02*
X11767682Y-18285627D01*
X11767682Y-18285627D02*
X11758158Y-18257055D01*
X11758158Y-18257055D02*
X11748634Y-18238008D01*
X11748634Y-18238008D02*
X11729587Y-18209436D01*
X11729587Y-18209436D02*
X11720063Y-18199912D01*
M02*
