%TF.GenerationSoftware,KiCad,Pcbnew,7.0.7*%
%TF.CreationDate,2025-01-13T16:20:32+01:00*%
%TF.ProjectId,PICO board v4.0,5049434f-2062-46f6-9172-642076342e30,rev?*%
%TF.SameCoordinates,Original*%
%TF.FileFunction,Copper,L2,Bot*%
%TF.FilePolarity,Positive*%
%FSLAX46Y46*%
G04 Gerber Fmt 4.6, Leading zero omitted, Abs format (unit mm)*
G04 Created by KiCad (PCBNEW 7.0.7) date 2025-01-13 16:20:32*
%MOMM*%
%LPD*%
G01*
G04 APERTURE LIST*
%TA.AperFunction,ComponentPad*%
%ADD10C,2.000000*%
%TD*%
%TA.AperFunction,ComponentPad*%
%ADD11O,1.700000X1.700000*%
%TD*%
%TA.AperFunction,ComponentPad*%
%ADD12R,1.700000X1.700000*%
%TD*%
%TA.AperFunction,ComponentPad*%
%ADD13R,1.500000X1.500000*%
%TD*%
%TA.AperFunction,ComponentPad*%
%ADD14C,1.500000*%
%TD*%
%TA.AperFunction,ComponentPad*%
%ADD15C,2.300000*%
%TD*%
%TA.AperFunction,ComponentPad*%
%ADD16R,3.000000X3.000000*%
%TD*%
%TA.AperFunction,ComponentPad*%
%ADD17C,3.000000*%
%TD*%
%TA.AperFunction,ComponentPad*%
%ADD18R,2.200000X2.200000*%
%TD*%
%TA.AperFunction,ComponentPad*%
%ADD19O,2.200000X2.200000*%
%TD*%
%TA.AperFunction,ViaPad*%
%ADD20C,0.500000*%
%TD*%
%TA.AperFunction,Conductor*%
%ADD21C,1.000000*%
%TD*%
%TA.AperFunction,Conductor*%
%ADD22C,0.250000*%
%TD*%
%TA.AperFunction,Conductor*%
%ADD23C,0.500000*%
%TD*%
G04 APERTURE END LIST*
D10*
%TO.P,SW5,1,1*%
%TO.N,GP13_2*%
X115050000Y-35350000D03*
X121550000Y-35350000D03*
%TO.P,SW5,2,2*%
%TO.N,GND*%
X115050000Y-39850000D03*
X121550000Y-39850000D03*
%TD*%
D11*
%TO.P,U1,1,GPIO0*%
%TO.N,GP0*%
X134900000Y-151960000D03*
%TO.P,U1,2,GPIO1*%
%TO.N,GP1*%
X134900000Y-149420000D03*
D12*
%TO.P,U1,3,GND*%
%TO.N,GND*%
X134900000Y-146880000D03*
D11*
%TO.P,U1,4,GPIO2*%
%TO.N,GP2*%
X134900000Y-144340000D03*
%TO.P,U1,5,GPIO3*%
%TO.N,GP3*%
X134900000Y-141800000D03*
%TO.P,U1,6,GPIO4*%
%TO.N,GP4*%
X134900000Y-139260000D03*
%TO.P,U1,7,GPIO5*%
%TO.N,GP5*%
X134900000Y-136720000D03*
D12*
%TO.P,U1,8,GND*%
%TO.N,GND*%
X134900000Y-134180000D03*
D11*
%TO.P,U1,9,GPIO6*%
%TO.N,GP6*%
X134900000Y-131640000D03*
%TO.P,U1,10,GPIO7*%
%TO.N,GP7*%
X134900000Y-129100000D03*
%TO.P,U1,11,GPIO8*%
%TO.N,GP8*%
X134900000Y-126560000D03*
%TO.P,U1,12,GPIO9*%
%TO.N,GP9*%
X134900000Y-124020000D03*
D12*
%TO.P,U1,13,GND*%
%TO.N,GND*%
X134900000Y-121480000D03*
D11*
%TO.P,U1,14,GPIO10*%
%TO.N,GP10*%
X134900000Y-118940000D03*
%TO.P,U1,15,GPIO11*%
%TO.N,GP11*%
X134900000Y-116400000D03*
%TO.P,U1,16,GPIO12*%
%TO.N,GP12*%
X134900000Y-113860000D03*
%TO.P,U1,17,GPIO13*%
%TO.N,GP13*%
X134900000Y-111320000D03*
D12*
%TO.P,U1,18,GND*%
%TO.N,GND*%
X134900000Y-108780000D03*
D11*
%TO.P,U1,19,GPIO14*%
%TO.N,GP14*%
X134900000Y-106240000D03*
%TO.P,U1,20,GPIO15*%
%TO.N,GP15*%
X134900000Y-103700000D03*
%TO.P,U1,21,GPIO16*%
%TO.N,GP16*%
X117120000Y-103700000D03*
%TO.P,U1,22,GPIO17*%
%TO.N,GP17*%
X117120000Y-106240000D03*
D12*
%TO.P,U1,23,GND*%
%TO.N,GND*%
X117120000Y-108780000D03*
D11*
%TO.P,U1,24,GPIO18*%
%TO.N,GP18*%
X117120000Y-111320000D03*
%TO.P,U1,25,GPIO19*%
%TO.N,GP19*%
X117120000Y-113860000D03*
%TO.P,U1,26,GPIO20*%
%TO.N,GP20*%
X117120000Y-116400000D03*
%TO.P,U1,27,GPIO21*%
%TO.N,GP21*%
X117120000Y-118940000D03*
D12*
%TO.P,U1,28,GND*%
%TO.N,GND*%
X117120000Y-121480000D03*
D11*
%TO.P,U1,29,GPIO22*%
%TO.N,GP22*%
X117120000Y-124020000D03*
%TO.P,U1,30,RUN*%
%TO.N,unconnected-(U1-RUN-Pad30)*%
X117120000Y-126560000D03*
%TO.P,U1,31,GPIO26_ADC0*%
%TO.N,GP26*%
X117120000Y-129100000D03*
%TO.P,U1,32,GPIO27_ADC1*%
%TO.N,GP27*%
X117120000Y-131640000D03*
D12*
%TO.P,U1,33,AGND*%
%TO.N,GND*%
X117120000Y-134180000D03*
D11*
%TO.P,U1,34,GPIO28_ADC2*%
%TO.N,GP28*%
X117120000Y-136720000D03*
%TO.P,U1,35,ADC_VREF*%
%TO.N,unconnected-(U1-ADC_VREF-Pad35)*%
X117120000Y-139260000D03*
%TO.P,U1,36,3V3*%
%TO.N,3V3*%
X117120000Y-141800000D03*
%TO.P,U1,37,3V3_EN*%
%TO.N,unconnected-(U1-3V3_EN-Pad37)*%
X117120000Y-144340000D03*
D12*
%TO.P,U1,38,GND*%
%TO.N,GND*%
X117120000Y-146880000D03*
D11*
%TO.P,U1,39,VSYS*%
%TO.N,5VCC_1*%
X117120000Y-149420000D03*
%TO.P,U1,40,VBUS*%
%TO.N,unconnected-(U1-VBUS-Pad40)*%
X117120000Y-151960000D03*
%TO.P,U1,41,SWCLK*%
%TO.N,unconnected-(U1-SWCLK-Pad41)*%
X128550000Y-103930000D03*
D12*
%TO.P,U1,42,GND*%
%TO.N,unconnected-(U1-GND-Pad42)*%
X126010000Y-103930000D03*
D11*
%TO.P,U1,43,SWDIO*%
%TO.N,unconnected-(U1-SWDIO-Pad43)*%
X123470000Y-103930000D03*
%TD*%
D12*
%TO.P,J4,1,Pin_1*%
%TO.N,5VCC_1*%
X108300000Y-119600000D03*
D11*
%TO.P,J4,2,Pin_2*%
%TO.N,GND*%
X108300000Y-117060000D03*
%TO.P,J4,3,Pin_3*%
%TO.N,GP9*%
X108300000Y-114520000D03*
%TO.P,J4,4,Pin_4*%
%TO.N,GP12*%
X108300000Y-111980000D03*
%TO.P,J4,5,Pin_5*%
%TO.N,GP11*%
X108300000Y-109440000D03*
%TO.P,J4,6,Pin_6*%
%TO.N,GP10*%
X108300000Y-106900000D03*
%TO.P,J4,7,Pin_7*%
%TO.N,GP13*%
X108300000Y-104360000D03*
%TD*%
D13*
%TO.P,J3,1*%
%TO.N,GND*%
X83110000Y-89930000D03*
D14*
%TO.P,J3,2*%
%TO.N,GP10_2*%
X84890000Y-88914000D03*
%TO.P,J3,3*%
%TO.N,GP11_2*%
X83110000Y-87898000D03*
%TO.P,J3,4*%
%TO.N,GP8_2*%
X84890000Y-86882000D03*
%TO.P,J3,5*%
%TO.N,GP3_2*%
X83110000Y-85866000D03*
%TO.P,J3,6*%
%TO.N,GP4_2*%
X84890000Y-84850000D03*
%TO.P,J3,7*%
%TO.N,GP5_2*%
X83110000Y-83834000D03*
%TO.P,J3,8*%
%TO.N,5VCC_2*%
X84890000Y-82818000D03*
D15*
%TO.P,J3,SH*%
%TO.N,N/C*%
X84000000Y-94500000D03*
X84000000Y-78240000D03*
%TD*%
D10*
%TO.P,SW3,1,1*%
%TO.N,GP9_2*%
X95550000Y-35350000D03*
X102050000Y-35350000D03*
%TO.P,SW3,2,2*%
%TO.N,GND*%
X95550000Y-39850000D03*
X102050000Y-39850000D03*
%TD*%
D12*
%TO.P,J5,1,Pin_1*%
%TO.N,5VCC_1*%
X108275000Y-148400000D03*
D11*
%TO.P,J5,2,Pin_2*%
%TO.N,GND*%
X108275000Y-145860000D03*
%TO.P,J5,3,Pin_3*%
%TO.N,GP8*%
X108275000Y-143320000D03*
%TO.P,J5,4,Pin_4*%
%TO.N,GP12*%
X108275000Y-140780000D03*
%TO.P,J5,5,Pin_5*%
%TO.N,GP11*%
X108275000Y-138240000D03*
%TO.P,J5,6,Pin_6*%
%TO.N,GP10*%
X108275000Y-135700000D03*
%TO.P,J5,7,Pin_7*%
%TO.N,GP14*%
X108275000Y-133160000D03*
%TD*%
D16*
%TO.P,J1,1,Pin_1*%
%TO.N,GND*%
X78500000Y-46560000D03*
D17*
%TO.P,J1,2,Pin_2*%
%TO.N,5V*%
X78500000Y-51640000D03*
%TD*%
D18*
%TO.P,D1,1,K*%
%TO.N,5VCC_1*%
X106080000Y-51150000D03*
D19*
%TO.P,D1,2,A*%
%TO.N,5V*%
X95920000Y-51150000D03*
%TD*%
D18*
%TO.P,D2,1,K*%
%TO.N,5VCC_2*%
X106080000Y-47400000D03*
D19*
%TO.P,D2,2,A*%
%TO.N,5V*%
X95920000Y-47400000D03*
%TD*%
D10*
%TO.P,SW2,1,1*%
%TO.N,GP7_2*%
X85800000Y-35350000D03*
X92300000Y-35350000D03*
%TO.P,SW2,2,2*%
%TO.N,GND*%
X85800000Y-39850000D03*
X92300000Y-39850000D03*
%TD*%
D11*
%TO.P,U2,43,SWDIO*%
%TO.N,unconnected-(U2-SWDIO-Pad43)*%
X128500000Y-93000000D03*
D12*
%TO.P,U2,42,GND*%
%TO.N,unconnected-(U2-GND-Pad42)*%
X125960000Y-93000000D03*
D11*
%TO.P,U2,41,SWCLK*%
%TO.N,unconnected-(U2-SWCLK-Pad41)*%
X123420000Y-93000000D03*
%TO.P,U2,40,VBUS*%
%TO.N,unconnected-(U2-VBUS-Pad40)*%
X134850000Y-44970000D03*
%TO.P,U2,39,VSYS*%
%TO.N,5VCC_2*%
X134850000Y-47510000D03*
D12*
%TO.P,U2,38,GND*%
%TO.N,GND*%
X134850000Y-50050000D03*
D11*
%TO.P,U2,37,3V3_EN*%
%TO.N,unconnected-(U2-3V3_EN-Pad37)*%
X134850000Y-52590000D03*
%TO.P,U2,36,3V3*%
%TO.N,unconnected-(U2-3V3-Pad36)*%
X134850000Y-55130000D03*
%TO.P,U2,35,ADC_VREF*%
%TO.N,unconnected-(U2-ADC_VREF-Pad35)*%
X134850000Y-57670000D03*
%TO.P,U2,34,GPIO28_ADC2*%
%TO.N,GP28_2*%
X134850000Y-60210000D03*
D12*
%TO.P,U2,33,AGND*%
%TO.N,GND*%
X134850000Y-62750000D03*
D11*
%TO.P,U2,32,GPIO27_ADC1*%
%TO.N,GP27_2*%
X134850000Y-65290000D03*
%TO.P,U2,31,GPIO26_ADC0*%
%TO.N,unconnected-(U2-GPIO26_ADC0-Pad31)*%
X134850000Y-67830000D03*
%TO.P,U2,30,RUN*%
%TO.N,unconnected-(U2-RUN-Pad30)*%
X134850000Y-70370000D03*
%TO.P,U2,29,GPIO22*%
%TO.N,unconnected-(U2-GPIO22-Pad29)*%
X134850000Y-72910000D03*
D12*
%TO.P,U2,28,GND*%
%TO.N,GND*%
X134850000Y-75450000D03*
D11*
%TO.P,U2,27,GPIO21*%
%TO.N,unconnected-(U2-GPIO21-Pad27)*%
X134850000Y-77990000D03*
%TO.P,U2,26,GPIO20*%
%TO.N,GP20_2*%
X134850000Y-80530000D03*
%TO.P,U2,25,GPIO19*%
%TO.N,GP16*%
X134850000Y-83070000D03*
%TO.P,U2,24,GPIO18*%
%TO.N,GP18*%
X134850000Y-85610000D03*
D12*
%TO.P,U2,23,GND*%
%TO.N,GND*%
X134850000Y-88150000D03*
D11*
%TO.P,U2,22,GPIO17*%
%TO.N,GP17*%
X134850000Y-90690000D03*
%TO.P,U2,21,GPIO16*%
%TO.N,GP19*%
X134850000Y-93230000D03*
%TO.P,U2,20,GPIO15*%
%TO.N,GP15_2*%
X117070000Y-93230000D03*
%TO.P,U2,19,GPIO14*%
%TO.N,GP14_2*%
X117070000Y-90690000D03*
D12*
%TO.P,U2,18,GND*%
%TO.N,GND*%
X117070000Y-88150000D03*
D11*
%TO.P,U2,17,GPIO13*%
%TO.N,GP13_2*%
X117070000Y-85610000D03*
%TO.P,U2,16,GPIO12*%
%TO.N,GP12_2*%
X117070000Y-83070000D03*
%TO.P,U2,15,GPIO11*%
%TO.N,GP11_2*%
X117070000Y-80530000D03*
%TO.P,U2,14,GPIO10*%
%TO.N,GP10_2*%
X117070000Y-77990000D03*
D12*
%TO.P,U2,13,GND*%
%TO.N,GND*%
X117070000Y-75450000D03*
D11*
%TO.P,U2,12,GPIO9*%
%TO.N,GP9_2*%
X117070000Y-72910000D03*
%TO.P,U2,11,GPIO8*%
%TO.N,GP8_2*%
X117070000Y-70370000D03*
%TO.P,U2,10,GPIO7*%
%TO.N,GP7_2*%
X117070000Y-67830000D03*
%TO.P,U2,9,GPIO6*%
%TO.N,GP6_2*%
X117070000Y-65290000D03*
D12*
%TO.P,U2,8,GND*%
%TO.N,GND*%
X117070000Y-62750000D03*
D11*
%TO.P,U2,7,GPIO5*%
%TO.N,GP5_2*%
X117070000Y-60210000D03*
%TO.P,U2,6,GPIO4*%
%TO.N,GP4_2*%
X117070000Y-57670000D03*
%TO.P,U2,5,GPIO3*%
%TO.N,GP3_2*%
X117070000Y-55130000D03*
%TO.P,U2,4,GPIO2*%
%TO.N,GP2_2*%
X117070000Y-52590000D03*
D12*
%TO.P,U2,3,GND*%
%TO.N,GND*%
X117070000Y-50050000D03*
D11*
%TO.P,U2,2,GPIO1*%
%TO.N,GP1_2*%
X117070000Y-47510000D03*
%TO.P,U2,1,GPIO0*%
%TO.N,GP0_2*%
X117070000Y-44970000D03*
%TD*%
D10*
%TO.P,SW4,1,1*%
%TO.N,GP12_2*%
X105300000Y-35350000D03*
X111800000Y-35350000D03*
%TO.P,SW4,2,2*%
%TO.N,GND*%
X105300000Y-39850000D03*
X111800000Y-39850000D03*
%TD*%
%TO.P,SW1,1,1*%
%TO.N,GP6_2*%
X76050000Y-35350000D03*
X82550000Y-35350000D03*
%TO.P,SW1,2,2*%
%TO.N,GND*%
X76050000Y-39850000D03*
X82550000Y-39850000D03*
%TD*%
D13*
%TO.P,J2,1*%
%TO.N,GND*%
X83110000Y-69930000D03*
D14*
%TO.P,J2,2*%
%TO.N,GP10_2*%
X84890000Y-68914000D03*
%TO.P,J2,3*%
%TO.N,GP11_2*%
X83110000Y-67898000D03*
%TO.P,J2,4*%
%TO.N,GP8_2*%
X84890000Y-66882000D03*
%TO.P,J2,5*%
%TO.N,GP0_2*%
X83110000Y-65866000D03*
%TO.P,J2,6*%
%TO.N,GP1_2*%
X84890000Y-64850000D03*
%TO.P,J2,7*%
%TO.N,GP2_2*%
X83110000Y-63834000D03*
%TO.P,J2,8*%
%TO.N,5VCC_2*%
X84890000Y-62818000D03*
D15*
%TO.P,J2,SH*%
%TO.N,N/C*%
X84000000Y-74500000D03*
X84000000Y-58240000D03*
%TD*%
D20*
%TO.N,GND*%
X119400000Y-51300000D03*
%TO.N,GP6_2*%
X108700000Y-62300000D03*
%TO.N,GP9_2*%
X111400000Y-64000000D03*
%TO.N,GP12_2*%
X110475000Y-63900000D03*
%TO.N,GP13_2*%
X119900000Y-83700000D03*
%TO.N,GP10_2*%
X86500000Y-85100000D03*
X85700000Y-71900000D03*
X86100000Y-76800000D03*
%TO.N,GP3_2*%
X83300000Y-91700000D03*
%TO.N,GP8_2*%
X78100000Y-88400000D03*
%TO.N,GP11_2*%
X94400000Y-63500000D03*
X92800000Y-57800000D03*
%TO.N,GP10_2*%
X96000000Y-68100000D03*
%TO.N,GP8_2*%
X96000000Y-67000000D03*
%TO.N,GP19*%
X111000000Y-106000000D03*
%TD*%
D21*
%TO.N,GND*%
X121550000Y-45570000D02*
X121550000Y-48266320D01*
X121550000Y-48266320D02*
X123483680Y-50200000D01*
X123483680Y-50200000D02*
X134700000Y-50200000D01*
X134700000Y-50200000D02*
X134850000Y-50050000D01*
D22*
X119400000Y-51300000D02*
X118320000Y-51300000D01*
X118320000Y-51300000D02*
X117070000Y-50050000D01*
%TO.N,GP13_2*%
X115050000Y-35350000D02*
X113125000Y-37275000D01*
X113125000Y-37275000D02*
X113125000Y-52846701D01*
X114233299Y-53955000D02*
X117655000Y-53955000D01*
X113125000Y-52846701D02*
X114233299Y-53955000D01*
X117655000Y-53955000D02*
X119900000Y-56200000D01*
X119900000Y-56200000D02*
X119900000Y-83700000D01*
%TO.N,GND*%
X134850000Y-75450000D02*
X136025000Y-76625000D01*
X136025000Y-76625000D02*
X136025000Y-83575000D01*
X136025000Y-83575000D02*
X135165000Y-84435000D01*
X133675000Y-85123299D02*
X133675000Y-86975000D01*
X135165000Y-84435000D02*
X134363299Y-84435000D01*
X134363299Y-84435000D02*
X133675000Y-85123299D01*
X133675000Y-86975000D02*
X134850000Y-88150000D01*
X134850000Y-62750000D02*
X133675000Y-63925000D01*
X133675000Y-63925000D02*
X133675000Y-74275000D01*
X133675000Y-74275000D02*
X134850000Y-75450000D01*
X134850000Y-62750000D02*
X133675000Y-61575000D01*
X133675000Y-61575000D02*
X133675000Y-51225000D01*
X133675000Y-51225000D02*
X134850000Y-50050000D01*
%TO.N,GP6_2*%
X108700000Y-47170000D02*
X108700000Y-62300000D01*
X107505000Y-45975000D02*
X108700000Y-47170000D01*
X93798833Y-45975000D02*
X107505000Y-45975000D01*
X83173833Y-35350000D02*
X93798833Y-45975000D01*
X82550000Y-35350000D02*
X83173833Y-35350000D01*
%TO.N,GP7_2*%
X93625000Y-36675000D02*
X102738604Y-36675000D01*
X109350000Y-40850000D02*
X109350000Y-64650000D01*
X106225000Y-37725000D02*
X109350000Y-40850000D01*
X92300000Y-35350000D02*
X93625000Y-36675000D01*
X102738604Y-36675000D02*
X103788604Y-37725000D01*
X103788604Y-37725000D02*
X106225000Y-37725000D01*
X109350000Y-64650000D02*
X111250000Y-66550000D01*
X111250000Y-66550000D02*
X115790000Y-66550000D01*
X115790000Y-66550000D02*
X117070000Y-67830000D01*
%TO.N,GP9_2*%
X111400000Y-64000000D02*
X110900000Y-64500000D01*
X109475000Y-37275000D02*
X103975000Y-37275000D01*
X110900000Y-64500000D02*
X110261827Y-64500000D01*
X109800000Y-64038173D02*
X109800000Y-37600000D01*
X109800000Y-37600000D02*
X109475000Y-37275000D01*
X110261827Y-64500000D02*
X109800000Y-64038173D01*
X103975000Y-37275000D02*
X102050000Y-35350000D01*
%TO.N,GP12_2*%
X110475000Y-36675000D02*
X111800000Y-35350000D01*
X110475000Y-63900000D02*
X110475000Y-36675000D01*
%TO.N,GP10_2*%
X86100000Y-72300000D02*
X85700000Y-71900000D01*
X86100000Y-76800000D02*
X86100000Y-72300000D01*
X84890000Y-88914000D02*
X86500000Y-87304000D01*
X86500000Y-87304000D02*
X86500000Y-85100000D01*
%TO.N,GP3_2*%
X83300000Y-91700000D02*
X110000000Y-91700000D01*
X110000000Y-91700000D02*
X114915000Y-86785000D01*
X114915000Y-86785000D02*
X117556701Y-86785000D01*
X117556701Y-86785000D02*
X119250000Y-85091701D01*
X119250000Y-85091701D02*
X119250000Y-57310000D01*
X119250000Y-57310000D02*
X117070000Y-55130000D01*
%TO.N,GP4_2*%
X84890000Y-84850000D02*
X85495000Y-84245000D01*
X85495000Y-84245000D02*
X117556701Y-84245000D01*
X117556701Y-84245000D02*
X118800000Y-83001701D01*
X118800000Y-83001701D02*
X118800000Y-59400000D01*
X118800000Y-59400000D02*
X117070000Y-57670000D01*
%TO.N,GP5_2*%
X83110000Y-83834000D02*
X83110000Y-82773340D01*
X83110000Y-82773340D02*
X84178340Y-81705000D01*
X84178340Y-81705000D02*
X117556701Y-81705000D01*
X117556701Y-81705000D02*
X118300000Y-80961701D01*
X118300000Y-80961701D02*
X118300000Y-61440000D01*
X118300000Y-61440000D02*
X117070000Y-60210000D01*
%TO.N,GP8_2*%
X85965000Y-70449034D02*
X78100000Y-78314034D01*
X78100000Y-78314034D02*
X78100000Y-88400000D01*
X85965000Y-67957000D02*
X85965000Y-70449034D01*
X84890000Y-66882000D02*
X85965000Y-67957000D01*
%TO.N,GP11_2*%
X94400000Y-69925966D02*
X105004034Y-80530000D01*
X105004034Y-80530000D02*
X117070000Y-80530000D01*
X81500000Y-66288000D02*
X81500000Y-63923720D01*
X87623720Y-57800000D02*
X92800000Y-57800000D01*
X94400000Y-69925966D02*
X82035000Y-82290966D01*
X83110000Y-67898000D02*
X81500000Y-66288000D01*
X82035000Y-82290966D02*
X82035000Y-86823000D01*
X81500000Y-63923720D02*
X87623720Y-57800000D01*
X94400000Y-63500000D02*
X94400000Y-69925966D01*
X82035000Y-86823000D02*
X83110000Y-87898000D01*
%TO.N,GP10_2*%
X96000000Y-68100000D02*
X107180000Y-68100000D01*
X107180000Y-68100000D02*
X117070000Y-77990000D01*
%TO.N,GP8_2*%
X96000000Y-67000000D02*
X113700000Y-67000000D01*
X113700000Y-67000000D02*
X117070000Y-70370000D01*
D21*
%TO.N,5VCC_2*%
X84890000Y-62818000D02*
X90662000Y-62818000D01*
X90662000Y-62818000D02*
X106080000Y-47400000D01*
%TO.N,GND*%
X76300000Y-69930000D02*
X76300000Y-89300000D01*
X76300000Y-89300000D02*
X76930000Y-89930000D01*
X76930000Y-89930000D02*
X83110000Y-89930000D01*
X78500000Y-46560000D02*
X76300000Y-48760000D01*
X76300000Y-48760000D02*
X76300000Y-69930000D01*
X76300000Y-69930000D02*
X83110000Y-69930000D01*
X121550000Y-39850000D02*
X121550000Y-45570000D01*
X121550000Y-45570000D02*
X117070000Y-50050000D01*
D22*
X133725000Y-135355000D02*
X133725000Y-145705000D01*
X133725000Y-109955000D02*
X133725000Y-120305000D01*
X116605000Y-108265000D02*
X107765000Y-108265000D01*
X136075000Y-122655000D02*
X136075000Y-133005000D01*
X106242045Y-106742045D02*
X106242045Y-98977955D01*
X117120000Y-108780000D02*
X116605000Y-108265000D01*
X118295000Y-145705000D02*
X118295000Y-135355000D01*
X134900000Y-108780000D02*
X133725000Y-109955000D01*
X134900000Y-121480000D02*
X136075000Y-122655000D01*
X117120000Y-146880000D02*
X118295000Y-145705000D01*
X118295000Y-135355000D02*
X117120000Y-134180000D01*
X134900000Y-134180000D02*
X133725000Y-135355000D01*
X133725000Y-145705000D02*
X134900000Y-146880000D01*
D23*
X112720000Y-121480000D02*
X117120000Y-121480000D01*
D22*
X106242045Y-98977955D02*
X117070000Y-88150000D01*
X136075000Y-133005000D02*
X134900000Y-134180000D01*
D23*
X108300000Y-117060000D02*
X112720000Y-121480000D01*
D22*
X133725000Y-120305000D02*
X134900000Y-121480000D01*
X117120000Y-146880000D02*
X134900000Y-146880000D01*
X107765000Y-108265000D02*
X106242045Y-106742045D01*
%TO.N,GP9*%
X128455000Y-117575000D02*
X134900000Y-124020000D01*
X111355000Y-117575000D02*
X128455000Y-117575000D01*
X108300000Y-114520000D02*
X111355000Y-117575000D01*
%TO.N,GP19*%
X133905000Y-94175000D02*
X134850000Y-93230000D01*
X122825000Y-94175000D02*
X133905000Y-94175000D01*
X111000000Y-106000000D02*
X122825000Y-94175000D01*
%TO.N,GP18*%
X133085000Y-107415000D02*
X129180000Y-111320000D01*
X136475000Y-106326701D02*
X135386701Y-107415000D01*
X135386701Y-107415000D02*
X133085000Y-107415000D01*
X134850000Y-85610000D02*
X136475000Y-87235000D01*
X129180000Y-111320000D02*
X117120000Y-111320000D01*
X136475000Y-87235000D02*
X136475000Y-106326701D01*
%TO.N,GP17*%
X136025000Y-93716701D02*
X136025000Y-91865000D01*
X135116701Y-94625000D02*
X136025000Y-93716701D01*
X136025000Y-91865000D02*
X134850000Y-90690000D01*
X128735000Y-94625000D02*
X135116701Y-94625000D01*
X117120000Y-106240000D02*
X128735000Y-94625000D01*
%TO.N,GP14*%
X107813299Y-113345000D02*
X113155000Y-113345000D01*
X106217045Y-114941254D02*
X107813299Y-113345000D01*
X108275000Y-133160000D02*
X106217045Y-131102045D01*
X132760000Y-106240000D02*
X134900000Y-106240000D01*
X129045000Y-109955000D02*
X132760000Y-106240000D01*
X116545000Y-109955000D02*
X129045000Y-109955000D01*
X113155000Y-113345000D02*
X116545000Y-109955000D01*
X106217045Y-131102045D02*
X106217045Y-114941254D01*
%TO.N,GP16*%
X110575000Y-106575000D02*
X110425000Y-106425000D01*
X131688299Y-83070000D02*
X134850000Y-83070000D01*
X117120000Y-103700000D02*
X114245000Y-106575000D01*
X110425000Y-106425000D02*
X110425000Y-104333299D01*
X114245000Y-106575000D02*
X110575000Y-106575000D01*
X110425000Y-104333299D02*
X131688299Y-83070000D01*
D23*
%TO.N,5VCC_1*%
X108300000Y-119600000D02*
X111000000Y-122300000D01*
X111000000Y-145675000D02*
X108275000Y-148400000D01*
X111000000Y-122300000D02*
X111000000Y-145675000D01*
%TD*%
M02*
