%TF.GenerationSoftware,KiCad,Pcbnew,7.0.7*%
%TF.CreationDate,2025-01-13T16:20:25+01:00*%
%TF.ProjectId,PICO board v4.0,5049434f-2062-46f6-9172-642076342e30,rev?*%
%TF.SameCoordinates,Original*%
%TF.FileFunction,Drillmap*%
%TF.FilePolarity,Positive*%
%FSLAX45Y45*%
G04 Gerber Fmt 4.5, Leading zero omitted, Abs format (unit mm)*
G04 Created by KiCad (PCBNEW 7.0.7) date 2025-01-13 16:20:25*
%MOMM*%
%LPD*%
G01*
G04 APERTURE LIST*
%ADD10C,0.200000*%
%ADD11C,0.100000*%
%ADD12C,0.150000*%
%ADD13C,0.180000*%
%ADD14C,0.325000*%
G04 APERTURE END LIST*
D10*
X7430000Y-12930000D02*
G75*
G03*
X7430000Y-12930000I-137500J0D01*
G01*
X7437500Y-15750000D02*
G75*
G03*
X7437500Y-15750000I-137500J0D01*
G01*
X10910000Y-15230000D02*
G75*
G03*
X10910000Y-15230000I-137500J0D01*
G01*
D11*
X7300000Y-3300000D02*
X13800000Y-3300000D01*
X6950000Y-15750000D02*
G75*
G03*
X7300000Y-16100000I350000J0D01*
G01*
D10*
X7412500Y-12350000D02*
G75*
G03*
X7412500Y-12350000I-137500J0D01*
G01*
D11*
X7300000Y-3300000D02*
G75*
G03*
X6950000Y-3650000I0J-350000D01*
G01*
X7300000Y-16100000D02*
X13800000Y-16100000D01*
D10*
X10910000Y-12930000D02*
G75*
G03*
X10910000Y-12930000I-137500J0D01*
G01*
X10912500Y-10050000D02*
G75*
G03*
X10912500Y-10050000I-137500J0D01*
G01*
D11*
X6950000Y-3650000D02*
X6950000Y-15750000D01*
X14150000Y-3650000D02*
X14150000Y-15750000D01*
X14150000Y-3650000D02*
G75*
G03*
X13800000Y-3300000I-350000J0D01*
G01*
D10*
X7410000Y-15230000D02*
G75*
G03*
X7410000Y-15230000I-137500J0D01*
G01*
X7437500Y-3650000D02*
G75*
G03*
X7437500Y-3650000I-137500J0D01*
G01*
D11*
X13800000Y-16100000D02*
G75*
G03*
X14150000Y-15750000I0J350000D01*
G01*
D10*
X13937500Y-3650000D02*
G75*
G03*
X13937500Y-3650000I-137500J0D01*
G01*
X7432500Y-10050000D02*
G75*
G03*
X7432500Y-10050000I-137500J0D01*
G01*
X10912500Y-12350000D02*
G75*
G03*
X10912500Y-12350000I-137500J0D01*
G01*
X13937500Y-15750000D02*
G75*
G03*
X13937500Y-15750000I-137500J0D01*
G01*
D12*
X12278500Y-4738000D02*
X12428500Y-4888000D01*
X12428500Y-4738000D02*
X12278500Y-4888000D01*
X12283500Y-14805000D02*
X12433500Y-14955000D01*
X12433500Y-14805000D02*
X12283500Y-14955000D01*
X12763500Y-4738000D02*
X12913500Y-4888000D01*
X12913500Y-4738000D02*
X12763500Y-4888000D01*
X12768500Y-14805000D02*
X12918500Y-14955000D01*
X12918500Y-14805000D02*
X12768500Y-14955000D01*
D13*
X12413500Y-4510000D02*
G75*
G03*
X12413500Y-4510000I-90000J0D01*
G01*
X12418500Y-15183000D02*
G75*
G03*
X12418500Y-15183000I-90000J0D01*
G01*
X12958500Y-4510000D02*
G75*
G03*
X12958500Y-4510000I-90000J0D01*
G01*
X12963500Y-15183000D02*
G75*
G03*
X12963500Y-15183000I-90000J0D01*
G01*
D14*
X8057000Y-5839500D02*
X8057000Y-6164500D01*
X7894500Y-6002000D02*
X8219500Y-6002000D01*
X8057000Y-7109500D02*
X8057000Y-7434500D01*
X7894500Y-7272000D02*
X8219500Y-7272000D01*
X8057000Y-7839500D02*
X8057000Y-8164500D01*
X7894500Y-8002000D02*
X8219500Y-8002000D01*
X8057000Y-9109500D02*
X8057000Y-9434500D01*
X7894500Y-9272000D02*
X8219500Y-9272000D01*
D10*
X7205777Y-16416484D02*
X7205777Y-16216484D01*
X7205777Y-16216484D02*
X7253396Y-16216484D01*
X7253396Y-16216484D02*
X7281967Y-16226008D01*
X7281967Y-16226008D02*
X7301015Y-16245055D01*
X7301015Y-16245055D02*
X7310539Y-16264103D01*
X7310539Y-16264103D02*
X7320062Y-16302198D01*
X7320062Y-16302198D02*
X7320062Y-16330769D01*
X7320062Y-16330769D02*
X7310539Y-16368865D01*
X7310539Y-16368865D02*
X7301015Y-16387912D01*
X7301015Y-16387912D02*
X7281967Y-16406960D01*
X7281967Y-16406960D02*
X7253396Y-16416484D01*
X7253396Y-16416484D02*
X7205777Y-16416484D01*
X7405777Y-16416484D02*
X7405777Y-16283150D01*
X7405777Y-16321246D02*
X7415301Y-16302198D01*
X7415301Y-16302198D02*
X7424824Y-16292674D01*
X7424824Y-16292674D02*
X7443872Y-16283150D01*
X7443872Y-16283150D02*
X7462920Y-16283150D01*
X7529586Y-16416484D02*
X7529586Y-16283150D01*
X7529586Y-16216484D02*
X7520062Y-16226008D01*
X7520062Y-16226008D02*
X7529586Y-16235531D01*
X7529586Y-16235531D02*
X7539110Y-16226008D01*
X7539110Y-16226008D02*
X7529586Y-16216484D01*
X7529586Y-16216484D02*
X7529586Y-16235531D01*
X7653396Y-16416484D02*
X7634348Y-16406960D01*
X7634348Y-16406960D02*
X7624824Y-16387912D01*
X7624824Y-16387912D02*
X7624824Y-16216484D01*
X7758158Y-16416484D02*
X7739110Y-16406960D01*
X7739110Y-16406960D02*
X7729586Y-16387912D01*
X7729586Y-16387912D02*
X7729586Y-16216484D01*
X7986729Y-16416484D02*
X7986729Y-16216484D01*
X7986729Y-16216484D02*
X8053396Y-16359341D01*
X8053396Y-16359341D02*
X8120062Y-16216484D01*
X8120062Y-16216484D02*
X8120062Y-16416484D01*
X8301015Y-16416484D02*
X8301015Y-16311722D01*
X8301015Y-16311722D02*
X8291491Y-16292674D01*
X8291491Y-16292674D02*
X8272443Y-16283150D01*
X8272443Y-16283150D02*
X8234348Y-16283150D01*
X8234348Y-16283150D02*
X8215301Y-16292674D01*
X8301015Y-16406960D02*
X8281967Y-16416484D01*
X8281967Y-16416484D02*
X8234348Y-16416484D01*
X8234348Y-16416484D02*
X8215301Y-16406960D01*
X8215301Y-16406960D02*
X8205777Y-16387912D01*
X8205777Y-16387912D02*
X8205777Y-16368865D01*
X8205777Y-16368865D02*
X8215301Y-16349817D01*
X8215301Y-16349817D02*
X8234348Y-16340293D01*
X8234348Y-16340293D02*
X8281967Y-16340293D01*
X8281967Y-16340293D02*
X8301015Y-16330769D01*
X8396253Y-16283150D02*
X8396253Y-16483150D01*
X8396253Y-16292674D02*
X8415301Y-16283150D01*
X8415301Y-16283150D02*
X8453396Y-16283150D01*
X8453396Y-16283150D02*
X8472444Y-16292674D01*
X8472444Y-16292674D02*
X8481967Y-16302198D01*
X8481967Y-16302198D02*
X8491491Y-16321246D01*
X8491491Y-16321246D02*
X8491491Y-16378388D01*
X8491491Y-16378388D02*
X8481967Y-16397436D01*
X8481967Y-16397436D02*
X8472444Y-16406960D01*
X8472444Y-16406960D02*
X8453396Y-16416484D01*
X8453396Y-16416484D02*
X8415301Y-16416484D01*
X8415301Y-16416484D02*
X8396253Y-16406960D01*
X8577205Y-16397436D02*
X8586729Y-16406960D01*
X8586729Y-16406960D02*
X8577205Y-16416484D01*
X8577205Y-16416484D02*
X8567682Y-16406960D01*
X8567682Y-16406960D02*
X8577205Y-16397436D01*
X8577205Y-16397436D02*
X8577205Y-16416484D01*
X8577205Y-16292674D02*
X8586729Y-16302198D01*
X8586729Y-16302198D02*
X8577205Y-16311722D01*
X8577205Y-16311722D02*
X8567682Y-16302198D01*
X8567682Y-16302198D02*
X8577205Y-16292674D01*
X8577205Y-16292674D02*
X8577205Y-16311722D01*
D12*
X6795000Y-16670000D02*
X6945000Y-16820000D01*
X6945000Y-16670000D02*
X6795000Y-16820000D01*
D10*
X7310539Y-16836484D02*
X7196253Y-16836484D01*
X7253396Y-16836484D02*
X7253396Y-16636484D01*
X7253396Y-16636484D02*
X7234348Y-16665055D01*
X7234348Y-16665055D02*
X7215301Y-16684103D01*
X7215301Y-16684103D02*
X7196253Y-16693627D01*
X7396253Y-16817436D02*
X7405777Y-16826960D01*
X7405777Y-16826960D02*
X7396253Y-16836484D01*
X7396253Y-16836484D02*
X7386729Y-16826960D01*
X7386729Y-16826960D02*
X7396253Y-16817436D01*
X7396253Y-16817436D02*
X7396253Y-16836484D01*
X7586729Y-16636484D02*
X7491491Y-16636484D01*
X7491491Y-16636484D02*
X7481967Y-16731722D01*
X7481967Y-16731722D02*
X7491491Y-16722198D01*
X7491491Y-16722198D02*
X7510539Y-16712674D01*
X7510539Y-16712674D02*
X7558158Y-16712674D01*
X7558158Y-16712674D02*
X7577205Y-16722198D01*
X7577205Y-16722198D02*
X7586729Y-16731722D01*
X7586729Y-16731722D02*
X7596253Y-16750769D01*
X7596253Y-16750769D02*
X7596253Y-16798389D01*
X7596253Y-16798389D02*
X7586729Y-16817436D01*
X7586729Y-16817436D02*
X7577205Y-16826960D01*
X7577205Y-16826960D02*
X7558158Y-16836484D01*
X7558158Y-16836484D02*
X7510539Y-16836484D01*
X7510539Y-16836484D02*
X7491491Y-16826960D01*
X7491491Y-16826960D02*
X7481967Y-16817436D01*
X7720062Y-16636484D02*
X7739110Y-16636484D01*
X7739110Y-16636484D02*
X7758158Y-16646008D01*
X7758158Y-16646008D02*
X7767682Y-16655531D01*
X7767682Y-16655531D02*
X7777205Y-16674579D01*
X7777205Y-16674579D02*
X7786729Y-16712674D01*
X7786729Y-16712674D02*
X7786729Y-16760293D01*
X7786729Y-16760293D02*
X7777205Y-16798389D01*
X7777205Y-16798389D02*
X7767682Y-16817436D01*
X7767682Y-16817436D02*
X7758158Y-16826960D01*
X7758158Y-16826960D02*
X7739110Y-16836484D01*
X7739110Y-16836484D02*
X7720062Y-16836484D01*
X7720062Y-16836484D02*
X7701015Y-16826960D01*
X7701015Y-16826960D02*
X7691491Y-16817436D01*
X7691491Y-16817436D02*
X7681967Y-16798389D01*
X7681967Y-16798389D02*
X7672443Y-16760293D01*
X7672443Y-16760293D02*
X7672443Y-16712674D01*
X7672443Y-16712674D02*
X7681967Y-16674579D01*
X7681967Y-16674579D02*
X7691491Y-16655531D01*
X7691491Y-16655531D02*
X7701015Y-16646008D01*
X7701015Y-16646008D02*
X7720062Y-16636484D01*
X7910539Y-16636484D02*
X7929586Y-16636484D01*
X7929586Y-16636484D02*
X7948634Y-16646008D01*
X7948634Y-16646008D02*
X7958158Y-16655531D01*
X7958158Y-16655531D02*
X7967682Y-16674579D01*
X7967682Y-16674579D02*
X7977205Y-16712674D01*
X7977205Y-16712674D02*
X7977205Y-16760293D01*
X7977205Y-16760293D02*
X7967682Y-16798389D01*
X7967682Y-16798389D02*
X7958158Y-16817436D01*
X7958158Y-16817436D02*
X7948634Y-16826960D01*
X7948634Y-16826960D02*
X7929586Y-16836484D01*
X7929586Y-16836484D02*
X7910539Y-16836484D01*
X7910539Y-16836484D02*
X7891491Y-16826960D01*
X7891491Y-16826960D02*
X7881967Y-16817436D01*
X7881967Y-16817436D02*
X7872443Y-16798389D01*
X7872443Y-16798389D02*
X7862920Y-16760293D01*
X7862920Y-16760293D02*
X7862920Y-16712674D01*
X7862920Y-16712674D02*
X7872443Y-16674579D01*
X7872443Y-16674579D02*
X7881967Y-16655531D01*
X7881967Y-16655531D02*
X7891491Y-16646008D01*
X7891491Y-16646008D02*
X7910539Y-16636484D01*
X8062920Y-16836484D02*
X8062920Y-16703150D01*
X8062920Y-16722198D02*
X8072443Y-16712674D01*
X8072443Y-16712674D02*
X8091491Y-16703150D01*
X8091491Y-16703150D02*
X8120063Y-16703150D01*
X8120063Y-16703150D02*
X8139110Y-16712674D01*
X8139110Y-16712674D02*
X8148634Y-16731722D01*
X8148634Y-16731722D02*
X8148634Y-16836484D01*
X8148634Y-16731722D02*
X8158158Y-16712674D01*
X8158158Y-16712674D02*
X8177205Y-16703150D01*
X8177205Y-16703150D02*
X8205777Y-16703150D01*
X8205777Y-16703150D02*
X8224824Y-16712674D01*
X8224824Y-16712674D02*
X8234348Y-16731722D01*
X8234348Y-16731722D02*
X8234348Y-16836484D01*
X8329586Y-16836484D02*
X8329586Y-16703150D01*
X8329586Y-16722198D02*
X8339110Y-16712674D01*
X8339110Y-16712674D02*
X8358158Y-16703150D01*
X8358158Y-16703150D02*
X8386729Y-16703150D01*
X8386729Y-16703150D02*
X8405777Y-16712674D01*
X8405777Y-16712674D02*
X8415301Y-16731722D01*
X8415301Y-16731722D02*
X8415301Y-16836484D01*
X8415301Y-16731722D02*
X8424825Y-16712674D01*
X8424825Y-16712674D02*
X8443872Y-16703150D01*
X8443872Y-16703150D02*
X8472444Y-16703150D01*
X8472444Y-16703150D02*
X8491491Y-16712674D01*
X8491491Y-16712674D02*
X8501015Y-16731722D01*
X8501015Y-16731722D02*
X8501015Y-16836484D01*
X8891491Y-16626960D02*
X8720063Y-16884103D01*
X9148634Y-16636484D02*
X9167682Y-16636484D01*
X9167682Y-16636484D02*
X9186729Y-16646008D01*
X9186729Y-16646008D02*
X9196253Y-16655531D01*
X9196253Y-16655531D02*
X9205777Y-16674579D01*
X9205777Y-16674579D02*
X9215301Y-16712674D01*
X9215301Y-16712674D02*
X9215301Y-16760293D01*
X9215301Y-16760293D02*
X9205777Y-16798389D01*
X9205777Y-16798389D02*
X9196253Y-16817436D01*
X9196253Y-16817436D02*
X9186729Y-16826960D01*
X9186729Y-16826960D02*
X9167682Y-16836484D01*
X9167682Y-16836484D02*
X9148634Y-16836484D01*
X9148634Y-16836484D02*
X9129587Y-16826960D01*
X9129587Y-16826960D02*
X9120063Y-16817436D01*
X9120063Y-16817436D02*
X9110539Y-16798389D01*
X9110539Y-16798389D02*
X9101015Y-16760293D01*
X9101015Y-16760293D02*
X9101015Y-16712674D01*
X9101015Y-16712674D02*
X9110539Y-16674579D01*
X9110539Y-16674579D02*
X9120063Y-16655531D01*
X9120063Y-16655531D02*
X9129587Y-16646008D01*
X9129587Y-16646008D02*
X9148634Y-16636484D01*
X9301015Y-16817436D02*
X9310539Y-16826960D01*
X9310539Y-16826960D02*
X9301015Y-16836484D01*
X9301015Y-16836484D02*
X9291491Y-16826960D01*
X9291491Y-16826960D02*
X9301015Y-16817436D01*
X9301015Y-16817436D02*
X9301015Y-16836484D01*
X9434348Y-16636484D02*
X9453396Y-16636484D01*
X9453396Y-16636484D02*
X9472444Y-16646008D01*
X9472444Y-16646008D02*
X9481968Y-16655531D01*
X9481968Y-16655531D02*
X9491491Y-16674579D01*
X9491491Y-16674579D02*
X9501015Y-16712674D01*
X9501015Y-16712674D02*
X9501015Y-16760293D01*
X9501015Y-16760293D02*
X9491491Y-16798389D01*
X9491491Y-16798389D02*
X9481968Y-16817436D01*
X9481968Y-16817436D02*
X9472444Y-16826960D01*
X9472444Y-16826960D02*
X9453396Y-16836484D01*
X9453396Y-16836484D02*
X9434348Y-16836484D01*
X9434348Y-16836484D02*
X9415301Y-16826960D01*
X9415301Y-16826960D02*
X9405777Y-16817436D01*
X9405777Y-16817436D02*
X9396253Y-16798389D01*
X9396253Y-16798389D02*
X9386729Y-16760293D01*
X9386729Y-16760293D02*
X9386729Y-16712674D01*
X9386729Y-16712674D02*
X9396253Y-16674579D01*
X9396253Y-16674579D02*
X9405777Y-16655531D01*
X9405777Y-16655531D02*
X9415301Y-16646008D01*
X9415301Y-16646008D02*
X9434348Y-16636484D01*
X9681968Y-16636484D02*
X9586729Y-16636484D01*
X9586729Y-16636484D02*
X9577206Y-16731722D01*
X9577206Y-16731722D02*
X9586729Y-16722198D01*
X9586729Y-16722198D02*
X9605777Y-16712674D01*
X9605777Y-16712674D02*
X9653396Y-16712674D01*
X9653396Y-16712674D02*
X9672444Y-16722198D01*
X9672444Y-16722198D02*
X9681968Y-16731722D01*
X9681968Y-16731722D02*
X9691491Y-16750769D01*
X9691491Y-16750769D02*
X9691491Y-16798389D01*
X9691491Y-16798389D02*
X9681968Y-16817436D01*
X9681968Y-16817436D02*
X9672444Y-16826960D01*
X9672444Y-16826960D02*
X9653396Y-16836484D01*
X9653396Y-16836484D02*
X9605777Y-16836484D01*
X9605777Y-16836484D02*
X9586729Y-16826960D01*
X9586729Y-16826960D02*
X9577206Y-16817436D01*
X9786729Y-16836484D02*
X9824825Y-16836484D01*
X9824825Y-16836484D02*
X9843872Y-16826960D01*
X9843872Y-16826960D02*
X9853396Y-16817436D01*
X9853396Y-16817436D02*
X9872444Y-16788865D01*
X9872444Y-16788865D02*
X9881968Y-16750769D01*
X9881968Y-16750769D02*
X9881968Y-16674579D01*
X9881968Y-16674579D02*
X9872444Y-16655531D01*
X9872444Y-16655531D02*
X9862920Y-16646008D01*
X9862920Y-16646008D02*
X9843872Y-16636484D01*
X9843872Y-16636484D02*
X9805777Y-16636484D01*
X9805777Y-16636484D02*
X9786729Y-16646008D01*
X9786729Y-16646008D02*
X9777206Y-16655531D01*
X9777206Y-16655531D02*
X9767682Y-16674579D01*
X9767682Y-16674579D02*
X9767682Y-16722198D01*
X9767682Y-16722198D02*
X9777206Y-16741246D01*
X9777206Y-16741246D02*
X9786729Y-16750769D01*
X9786729Y-16750769D02*
X9805777Y-16760293D01*
X9805777Y-16760293D02*
X9843872Y-16760293D01*
X9843872Y-16760293D02*
X9862920Y-16750769D01*
X9862920Y-16750769D02*
X9872444Y-16741246D01*
X9872444Y-16741246D02*
X9881968Y-16722198D01*
X10072444Y-16836484D02*
X9958158Y-16836484D01*
X10015301Y-16836484D02*
X10015301Y-16636484D01*
X10015301Y-16636484D02*
X9996253Y-16665055D01*
X9996253Y-16665055D02*
X9977206Y-16684103D01*
X9977206Y-16684103D02*
X9958158Y-16693627D01*
X10148634Y-16636484D02*
X10148634Y-16674579D01*
X10224825Y-16636484D02*
X10224825Y-16674579D01*
X10520063Y-16912674D02*
X10510539Y-16903150D01*
X10510539Y-16903150D02*
X10491491Y-16874579D01*
X10491491Y-16874579D02*
X10481968Y-16855531D01*
X10481968Y-16855531D02*
X10472444Y-16826960D01*
X10472444Y-16826960D02*
X10462920Y-16779341D01*
X10462920Y-16779341D02*
X10462920Y-16741246D01*
X10462920Y-16741246D02*
X10472444Y-16693627D01*
X10472444Y-16693627D02*
X10481968Y-16665055D01*
X10481968Y-16665055D02*
X10491491Y-16646008D01*
X10491491Y-16646008D02*
X10510539Y-16617436D01*
X10510539Y-16617436D02*
X10520063Y-16607912D01*
X10681968Y-16703150D02*
X10681968Y-16836484D01*
X10634349Y-16626960D02*
X10586730Y-16769817D01*
X10586730Y-16769817D02*
X10710539Y-16769817D01*
X10939111Y-16836484D02*
X10939111Y-16636484D01*
X11024825Y-16836484D02*
X11024825Y-16731722D01*
X11024825Y-16731722D02*
X11015301Y-16712674D01*
X11015301Y-16712674D02*
X10996253Y-16703150D01*
X10996253Y-16703150D02*
X10967682Y-16703150D01*
X10967682Y-16703150D02*
X10948634Y-16712674D01*
X10948634Y-16712674D02*
X10939111Y-16722198D01*
X11148634Y-16836484D02*
X11129587Y-16826960D01*
X11129587Y-16826960D02*
X11120063Y-16817436D01*
X11120063Y-16817436D02*
X11110539Y-16798389D01*
X11110539Y-16798389D02*
X11110539Y-16741246D01*
X11110539Y-16741246D02*
X11120063Y-16722198D01*
X11120063Y-16722198D02*
X11129587Y-16712674D01*
X11129587Y-16712674D02*
X11148634Y-16703150D01*
X11148634Y-16703150D02*
X11177206Y-16703150D01*
X11177206Y-16703150D02*
X11196253Y-16712674D01*
X11196253Y-16712674D02*
X11205777Y-16722198D01*
X11205777Y-16722198D02*
X11215301Y-16741246D01*
X11215301Y-16741246D02*
X11215301Y-16798389D01*
X11215301Y-16798389D02*
X11205777Y-16817436D01*
X11205777Y-16817436D02*
X11196253Y-16826960D01*
X11196253Y-16826960D02*
X11177206Y-16836484D01*
X11177206Y-16836484D02*
X11148634Y-16836484D01*
X11329587Y-16836484D02*
X11310539Y-16826960D01*
X11310539Y-16826960D02*
X11301015Y-16807912D01*
X11301015Y-16807912D02*
X11301015Y-16636484D01*
X11481968Y-16826960D02*
X11462920Y-16836484D01*
X11462920Y-16836484D02*
X11424825Y-16836484D01*
X11424825Y-16836484D02*
X11405777Y-16826960D01*
X11405777Y-16826960D02*
X11396253Y-16807912D01*
X11396253Y-16807912D02*
X11396253Y-16731722D01*
X11396253Y-16731722D02*
X11405777Y-16712674D01*
X11405777Y-16712674D02*
X11424825Y-16703150D01*
X11424825Y-16703150D02*
X11462920Y-16703150D01*
X11462920Y-16703150D02*
X11481968Y-16712674D01*
X11481968Y-16712674D02*
X11491491Y-16731722D01*
X11491491Y-16731722D02*
X11491491Y-16750769D01*
X11491491Y-16750769D02*
X11396253Y-16769817D01*
X11567682Y-16826960D02*
X11586730Y-16836484D01*
X11586730Y-16836484D02*
X11624825Y-16836484D01*
X11624825Y-16836484D02*
X11643872Y-16826960D01*
X11643872Y-16826960D02*
X11653396Y-16807912D01*
X11653396Y-16807912D02*
X11653396Y-16798389D01*
X11653396Y-16798389D02*
X11643872Y-16779341D01*
X11643872Y-16779341D02*
X11624825Y-16769817D01*
X11624825Y-16769817D02*
X11596253Y-16769817D01*
X11596253Y-16769817D02*
X11577206Y-16760293D01*
X11577206Y-16760293D02*
X11567682Y-16741246D01*
X11567682Y-16741246D02*
X11567682Y-16731722D01*
X11567682Y-16731722D02*
X11577206Y-16712674D01*
X11577206Y-16712674D02*
X11596253Y-16703150D01*
X11596253Y-16703150D02*
X11624825Y-16703150D01*
X11624825Y-16703150D02*
X11643872Y-16712674D01*
X11720063Y-16912674D02*
X11729587Y-16903150D01*
X11729587Y-16903150D02*
X11748634Y-16874579D01*
X11748634Y-16874579D02*
X11758158Y-16855531D01*
X11758158Y-16855531D02*
X11767682Y-16826960D01*
X11767682Y-16826960D02*
X11777206Y-16779341D01*
X11777206Y-16779341D02*
X11777206Y-16741246D01*
X11777206Y-16741246D02*
X11767682Y-16693627D01*
X11767682Y-16693627D02*
X11758158Y-16665055D01*
X11758158Y-16665055D02*
X11748634Y-16646008D01*
X11748634Y-16646008D02*
X11729587Y-16617436D01*
X11729587Y-16617436D02*
X11720063Y-16607912D01*
X12081968Y-16912674D02*
X12072444Y-16903150D01*
X12072444Y-16903150D02*
X12053396Y-16874579D01*
X12053396Y-16874579D02*
X12043872Y-16855531D01*
X12043872Y-16855531D02*
X12034349Y-16826960D01*
X12034349Y-16826960D02*
X12024825Y-16779341D01*
X12024825Y-16779341D02*
X12024825Y-16741246D01*
X12024825Y-16741246D02*
X12034349Y-16693627D01*
X12034349Y-16693627D02*
X12043872Y-16665055D01*
X12043872Y-16665055D02*
X12053396Y-16646008D01*
X12053396Y-16646008D02*
X12072444Y-16617436D01*
X12072444Y-16617436D02*
X12081968Y-16607912D01*
X12158158Y-16703150D02*
X12158158Y-16836484D01*
X12158158Y-16722198D02*
X12167682Y-16712674D01*
X12167682Y-16712674D02*
X12186730Y-16703150D01*
X12186730Y-16703150D02*
X12215301Y-16703150D01*
X12215301Y-16703150D02*
X12234349Y-16712674D01*
X12234349Y-16712674D02*
X12243872Y-16731722D01*
X12243872Y-16731722D02*
X12243872Y-16836484D01*
X12367682Y-16836484D02*
X12348634Y-16826960D01*
X12348634Y-16826960D02*
X12339111Y-16817436D01*
X12339111Y-16817436D02*
X12329587Y-16798389D01*
X12329587Y-16798389D02*
X12329587Y-16741246D01*
X12329587Y-16741246D02*
X12339111Y-16722198D01*
X12339111Y-16722198D02*
X12348634Y-16712674D01*
X12348634Y-16712674D02*
X12367682Y-16703150D01*
X12367682Y-16703150D02*
X12396253Y-16703150D01*
X12396253Y-16703150D02*
X12415301Y-16712674D01*
X12415301Y-16712674D02*
X12424825Y-16722198D01*
X12424825Y-16722198D02*
X12434349Y-16741246D01*
X12434349Y-16741246D02*
X12434349Y-16798389D01*
X12434349Y-16798389D02*
X12424825Y-16817436D01*
X12424825Y-16817436D02*
X12415301Y-16826960D01*
X12415301Y-16826960D02*
X12396253Y-16836484D01*
X12396253Y-16836484D02*
X12367682Y-16836484D01*
X12491492Y-16703150D02*
X12567682Y-16703150D01*
X12520063Y-16636484D02*
X12520063Y-16807912D01*
X12520063Y-16807912D02*
X12529587Y-16826960D01*
X12529587Y-16826960D02*
X12548634Y-16836484D01*
X12548634Y-16836484D02*
X12567682Y-16836484D01*
X12786730Y-16703150D02*
X12786730Y-16903150D01*
X12786730Y-16712674D02*
X12805777Y-16703150D01*
X12805777Y-16703150D02*
X12843873Y-16703150D01*
X12843873Y-16703150D02*
X12862920Y-16712674D01*
X12862920Y-16712674D02*
X12872444Y-16722198D01*
X12872444Y-16722198D02*
X12881968Y-16741246D01*
X12881968Y-16741246D02*
X12881968Y-16798389D01*
X12881968Y-16798389D02*
X12872444Y-16817436D01*
X12872444Y-16817436D02*
X12862920Y-16826960D01*
X12862920Y-16826960D02*
X12843873Y-16836484D01*
X12843873Y-16836484D02*
X12805777Y-16836484D01*
X12805777Y-16836484D02*
X12786730Y-16826960D01*
X12996253Y-16836484D02*
X12977206Y-16826960D01*
X12977206Y-16826960D02*
X12967682Y-16807912D01*
X12967682Y-16807912D02*
X12967682Y-16636484D01*
X13158158Y-16836484D02*
X13158158Y-16731722D01*
X13158158Y-16731722D02*
X13148634Y-16712674D01*
X13148634Y-16712674D02*
X13129587Y-16703150D01*
X13129587Y-16703150D02*
X13091492Y-16703150D01*
X13091492Y-16703150D02*
X13072444Y-16712674D01*
X13158158Y-16826960D02*
X13139111Y-16836484D01*
X13139111Y-16836484D02*
X13091492Y-16836484D01*
X13091492Y-16836484D02*
X13072444Y-16826960D01*
X13072444Y-16826960D02*
X13062920Y-16807912D01*
X13062920Y-16807912D02*
X13062920Y-16788865D01*
X13062920Y-16788865D02*
X13072444Y-16769817D01*
X13072444Y-16769817D02*
X13091492Y-16760293D01*
X13091492Y-16760293D02*
X13139111Y-16760293D01*
X13139111Y-16760293D02*
X13158158Y-16750769D01*
X13224825Y-16703150D02*
X13301015Y-16703150D01*
X13253396Y-16636484D02*
X13253396Y-16807912D01*
X13253396Y-16807912D02*
X13262920Y-16826960D01*
X13262920Y-16826960D02*
X13281968Y-16836484D01*
X13281968Y-16836484D02*
X13301015Y-16836484D01*
X13443873Y-16826960D02*
X13424825Y-16836484D01*
X13424825Y-16836484D02*
X13386730Y-16836484D01*
X13386730Y-16836484D02*
X13367682Y-16826960D01*
X13367682Y-16826960D02*
X13358158Y-16807912D01*
X13358158Y-16807912D02*
X13358158Y-16731722D01*
X13358158Y-16731722D02*
X13367682Y-16712674D01*
X13367682Y-16712674D02*
X13386730Y-16703150D01*
X13386730Y-16703150D02*
X13424825Y-16703150D01*
X13424825Y-16703150D02*
X13443873Y-16712674D01*
X13443873Y-16712674D02*
X13453396Y-16731722D01*
X13453396Y-16731722D02*
X13453396Y-16750769D01*
X13453396Y-16750769D02*
X13358158Y-16769817D01*
X13624825Y-16836484D02*
X13624825Y-16636484D01*
X13624825Y-16826960D02*
X13605777Y-16836484D01*
X13605777Y-16836484D02*
X13567682Y-16836484D01*
X13567682Y-16836484D02*
X13548634Y-16826960D01*
X13548634Y-16826960D02*
X13539111Y-16817436D01*
X13539111Y-16817436D02*
X13529587Y-16798389D01*
X13529587Y-16798389D02*
X13529587Y-16741246D01*
X13529587Y-16741246D02*
X13539111Y-16722198D01*
X13539111Y-16722198D02*
X13548634Y-16712674D01*
X13548634Y-16712674D02*
X13567682Y-16703150D01*
X13567682Y-16703150D02*
X13605777Y-16703150D01*
X13605777Y-16703150D02*
X13624825Y-16712674D01*
X13701015Y-16912674D02*
X13710539Y-16903150D01*
X13710539Y-16903150D02*
X13729587Y-16874579D01*
X13729587Y-16874579D02*
X13739111Y-16855531D01*
X13739111Y-16855531D02*
X13748634Y-16826960D01*
X13748634Y-16826960D02*
X13758158Y-16779341D01*
X13758158Y-16779341D02*
X13758158Y-16741246D01*
X13758158Y-16741246D02*
X13748634Y-16693627D01*
X13748634Y-16693627D02*
X13739111Y-16665055D01*
X13739111Y-16665055D02*
X13729587Y-16646008D01*
X13729587Y-16646008D02*
X13710539Y-16617436D01*
X13710539Y-16617436D02*
X13701015Y-16607912D01*
D13*
X6945000Y-17015000D02*
G75*
G03*
X6945000Y-17015000I-90000J0D01*
G01*
D10*
X7310539Y-17106484D02*
X7196253Y-17106484D01*
X7253396Y-17106484D02*
X7253396Y-16906484D01*
X7253396Y-16906484D02*
X7234348Y-16935055D01*
X7234348Y-16935055D02*
X7215301Y-16954103D01*
X7215301Y-16954103D02*
X7196253Y-16963627D01*
X7396253Y-17087436D02*
X7405777Y-17096960D01*
X7405777Y-17096960D02*
X7396253Y-17106484D01*
X7396253Y-17106484D02*
X7386729Y-17096960D01*
X7386729Y-17096960D02*
X7396253Y-17087436D01*
X7396253Y-17087436D02*
X7396253Y-17106484D01*
X7520062Y-16992198D02*
X7501015Y-16982674D01*
X7501015Y-16982674D02*
X7491491Y-16973150D01*
X7491491Y-16973150D02*
X7481967Y-16954103D01*
X7481967Y-16954103D02*
X7481967Y-16944579D01*
X7481967Y-16944579D02*
X7491491Y-16925531D01*
X7491491Y-16925531D02*
X7501015Y-16916008D01*
X7501015Y-16916008D02*
X7520062Y-16906484D01*
X7520062Y-16906484D02*
X7558158Y-16906484D01*
X7558158Y-16906484D02*
X7577205Y-16916008D01*
X7577205Y-16916008D02*
X7586729Y-16925531D01*
X7586729Y-16925531D02*
X7596253Y-16944579D01*
X7596253Y-16944579D02*
X7596253Y-16954103D01*
X7596253Y-16954103D02*
X7586729Y-16973150D01*
X7586729Y-16973150D02*
X7577205Y-16982674D01*
X7577205Y-16982674D02*
X7558158Y-16992198D01*
X7558158Y-16992198D02*
X7520062Y-16992198D01*
X7520062Y-16992198D02*
X7501015Y-17001722D01*
X7501015Y-17001722D02*
X7491491Y-17011246D01*
X7491491Y-17011246D02*
X7481967Y-17030293D01*
X7481967Y-17030293D02*
X7481967Y-17068389D01*
X7481967Y-17068389D02*
X7491491Y-17087436D01*
X7491491Y-17087436D02*
X7501015Y-17096960D01*
X7501015Y-17096960D02*
X7520062Y-17106484D01*
X7520062Y-17106484D02*
X7558158Y-17106484D01*
X7558158Y-17106484D02*
X7577205Y-17096960D01*
X7577205Y-17096960D02*
X7586729Y-17087436D01*
X7586729Y-17087436D02*
X7596253Y-17068389D01*
X7596253Y-17068389D02*
X7596253Y-17030293D01*
X7596253Y-17030293D02*
X7586729Y-17011246D01*
X7586729Y-17011246D02*
X7577205Y-17001722D01*
X7577205Y-17001722D02*
X7558158Y-16992198D01*
X7720062Y-16906484D02*
X7739110Y-16906484D01*
X7739110Y-16906484D02*
X7758158Y-16916008D01*
X7758158Y-16916008D02*
X7767682Y-16925531D01*
X7767682Y-16925531D02*
X7777205Y-16944579D01*
X7777205Y-16944579D02*
X7786729Y-16982674D01*
X7786729Y-16982674D02*
X7786729Y-17030293D01*
X7786729Y-17030293D02*
X7777205Y-17068389D01*
X7777205Y-17068389D02*
X7767682Y-17087436D01*
X7767682Y-17087436D02*
X7758158Y-17096960D01*
X7758158Y-17096960D02*
X7739110Y-17106484D01*
X7739110Y-17106484D02*
X7720062Y-17106484D01*
X7720062Y-17106484D02*
X7701015Y-17096960D01*
X7701015Y-17096960D02*
X7691491Y-17087436D01*
X7691491Y-17087436D02*
X7681967Y-17068389D01*
X7681967Y-17068389D02*
X7672443Y-17030293D01*
X7672443Y-17030293D02*
X7672443Y-16982674D01*
X7672443Y-16982674D02*
X7681967Y-16944579D01*
X7681967Y-16944579D02*
X7691491Y-16925531D01*
X7691491Y-16925531D02*
X7701015Y-16916008D01*
X7701015Y-16916008D02*
X7720062Y-16906484D01*
X7910539Y-16906484D02*
X7929586Y-16906484D01*
X7929586Y-16906484D02*
X7948634Y-16916008D01*
X7948634Y-16916008D02*
X7958158Y-16925531D01*
X7958158Y-16925531D02*
X7967682Y-16944579D01*
X7967682Y-16944579D02*
X7977205Y-16982674D01*
X7977205Y-16982674D02*
X7977205Y-17030293D01*
X7977205Y-17030293D02*
X7967682Y-17068389D01*
X7967682Y-17068389D02*
X7958158Y-17087436D01*
X7958158Y-17087436D02*
X7948634Y-17096960D01*
X7948634Y-17096960D02*
X7929586Y-17106484D01*
X7929586Y-17106484D02*
X7910539Y-17106484D01*
X7910539Y-17106484D02*
X7891491Y-17096960D01*
X7891491Y-17096960D02*
X7881967Y-17087436D01*
X7881967Y-17087436D02*
X7872443Y-17068389D01*
X7872443Y-17068389D02*
X7862920Y-17030293D01*
X7862920Y-17030293D02*
X7862920Y-16982674D01*
X7862920Y-16982674D02*
X7872443Y-16944579D01*
X7872443Y-16944579D02*
X7881967Y-16925531D01*
X7881967Y-16925531D02*
X7891491Y-16916008D01*
X7891491Y-16916008D02*
X7910539Y-16906484D01*
X8062920Y-17106484D02*
X8062920Y-16973150D01*
X8062920Y-16992198D02*
X8072443Y-16982674D01*
X8072443Y-16982674D02*
X8091491Y-16973150D01*
X8091491Y-16973150D02*
X8120063Y-16973150D01*
X8120063Y-16973150D02*
X8139110Y-16982674D01*
X8139110Y-16982674D02*
X8148634Y-17001722D01*
X8148634Y-17001722D02*
X8148634Y-17106484D01*
X8148634Y-17001722D02*
X8158158Y-16982674D01*
X8158158Y-16982674D02*
X8177205Y-16973150D01*
X8177205Y-16973150D02*
X8205777Y-16973150D01*
X8205777Y-16973150D02*
X8224824Y-16982674D01*
X8224824Y-16982674D02*
X8234348Y-17001722D01*
X8234348Y-17001722D02*
X8234348Y-17106484D01*
X8329586Y-17106484D02*
X8329586Y-16973150D01*
X8329586Y-16992198D02*
X8339110Y-16982674D01*
X8339110Y-16982674D02*
X8358158Y-16973150D01*
X8358158Y-16973150D02*
X8386729Y-16973150D01*
X8386729Y-16973150D02*
X8405777Y-16982674D01*
X8405777Y-16982674D02*
X8415301Y-17001722D01*
X8415301Y-17001722D02*
X8415301Y-17106484D01*
X8415301Y-17001722D02*
X8424825Y-16982674D01*
X8424825Y-16982674D02*
X8443872Y-16973150D01*
X8443872Y-16973150D02*
X8472444Y-16973150D01*
X8472444Y-16973150D02*
X8491491Y-16982674D01*
X8491491Y-16982674D02*
X8501015Y-17001722D01*
X8501015Y-17001722D02*
X8501015Y-17106484D01*
X8891491Y-16896960D02*
X8720063Y-17154103D01*
X9148634Y-16906484D02*
X9167682Y-16906484D01*
X9167682Y-16906484D02*
X9186729Y-16916008D01*
X9186729Y-16916008D02*
X9196253Y-16925531D01*
X9196253Y-16925531D02*
X9205777Y-16944579D01*
X9205777Y-16944579D02*
X9215301Y-16982674D01*
X9215301Y-16982674D02*
X9215301Y-17030293D01*
X9215301Y-17030293D02*
X9205777Y-17068389D01*
X9205777Y-17068389D02*
X9196253Y-17087436D01*
X9196253Y-17087436D02*
X9186729Y-17096960D01*
X9186729Y-17096960D02*
X9167682Y-17106484D01*
X9167682Y-17106484D02*
X9148634Y-17106484D01*
X9148634Y-17106484D02*
X9129587Y-17096960D01*
X9129587Y-17096960D02*
X9120063Y-17087436D01*
X9120063Y-17087436D02*
X9110539Y-17068389D01*
X9110539Y-17068389D02*
X9101015Y-17030293D01*
X9101015Y-17030293D02*
X9101015Y-16982674D01*
X9101015Y-16982674D02*
X9110539Y-16944579D01*
X9110539Y-16944579D02*
X9120063Y-16925531D01*
X9120063Y-16925531D02*
X9129587Y-16916008D01*
X9129587Y-16916008D02*
X9148634Y-16906484D01*
X9301015Y-17087436D02*
X9310539Y-17096960D01*
X9310539Y-17096960D02*
X9301015Y-17106484D01*
X9301015Y-17106484D02*
X9291491Y-17096960D01*
X9291491Y-17096960D02*
X9301015Y-17087436D01*
X9301015Y-17087436D02*
X9301015Y-17106484D01*
X9434348Y-16906484D02*
X9453396Y-16906484D01*
X9453396Y-16906484D02*
X9472444Y-16916008D01*
X9472444Y-16916008D02*
X9481968Y-16925531D01*
X9481968Y-16925531D02*
X9491491Y-16944579D01*
X9491491Y-16944579D02*
X9501015Y-16982674D01*
X9501015Y-16982674D02*
X9501015Y-17030293D01*
X9501015Y-17030293D02*
X9491491Y-17068389D01*
X9491491Y-17068389D02*
X9481968Y-17087436D01*
X9481968Y-17087436D02*
X9472444Y-17096960D01*
X9472444Y-17096960D02*
X9453396Y-17106484D01*
X9453396Y-17106484D02*
X9434348Y-17106484D01*
X9434348Y-17106484D02*
X9415301Y-17096960D01*
X9415301Y-17096960D02*
X9405777Y-17087436D01*
X9405777Y-17087436D02*
X9396253Y-17068389D01*
X9396253Y-17068389D02*
X9386729Y-17030293D01*
X9386729Y-17030293D02*
X9386729Y-16982674D01*
X9386729Y-16982674D02*
X9396253Y-16944579D01*
X9396253Y-16944579D02*
X9405777Y-16925531D01*
X9405777Y-16925531D02*
X9415301Y-16916008D01*
X9415301Y-16916008D02*
X9434348Y-16906484D01*
X9567682Y-16906484D02*
X9701015Y-16906484D01*
X9701015Y-16906484D02*
X9615301Y-17106484D01*
X9815301Y-16906484D02*
X9834349Y-16906484D01*
X9834349Y-16906484D02*
X9853396Y-16916008D01*
X9853396Y-16916008D02*
X9862920Y-16925531D01*
X9862920Y-16925531D02*
X9872444Y-16944579D01*
X9872444Y-16944579D02*
X9881968Y-16982674D01*
X9881968Y-16982674D02*
X9881968Y-17030293D01*
X9881968Y-17030293D02*
X9872444Y-17068389D01*
X9872444Y-17068389D02*
X9862920Y-17087436D01*
X9862920Y-17087436D02*
X9853396Y-17096960D01*
X9853396Y-17096960D02*
X9834349Y-17106484D01*
X9834349Y-17106484D02*
X9815301Y-17106484D01*
X9815301Y-17106484D02*
X9796253Y-17096960D01*
X9796253Y-17096960D02*
X9786729Y-17087436D01*
X9786729Y-17087436D02*
X9777206Y-17068389D01*
X9777206Y-17068389D02*
X9767682Y-17030293D01*
X9767682Y-17030293D02*
X9767682Y-16982674D01*
X9767682Y-16982674D02*
X9777206Y-16944579D01*
X9777206Y-16944579D02*
X9786729Y-16925531D01*
X9786729Y-16925531D02*
X9796253Y-16916008D01*
X9796253Y-16916008D02*
X9815301Y-16906484D01*
X9977206Y-17106484D02*
X10015301Y-17106484D01*
X10015301Y-17106484D02*
X10034349Y-17096960D01*
X10034349Y-17096960D02*
X10043872Y-17087436D01*
X10043872Y-17087436D02*
X10062920Y-17058865D01*
X10062920Y-17058865D02*
X10072444Y-17020770D01*
X10072444Y-17020770D02*
X10072444Y-16944579D01*
X10072444Y-16944579D02*
X10062920Y-16925531D01*
X10062920Y-16925531D02*
X10053396Y-16916008D01*
X10053396Y-16916008D02*
X10034349Y-16906484D01*
X10034349Y-16906484D02*
X9996253Y-16906484D01*
X9996253Y-16906484D02*
X9977206Y-16916008D01*
X9977206Y-16916008D02*
X9967682Y-16925531D01*
X9967682Y-16925531D02*
X9958158Y-16944579D01*
X9958158Y-16944579D02*
X9958158Y-16992198D01*
X9958158Y-16992198D02*
X9967682Y-17011246D01*
X9967682Y-17011246D02*
X9977206Y-17020770D01*
X9977206Y-17020770D02*
X9996253Y-17030293D01*
X9996253Y-17030293D02*
X10034349Y-17030293D01*
X10034349Y-17030293D02*
X10053396Y-17020770D01*
X10053396Y-17020770D02*
X10062920Y-17011246D01*
X10062920Y-17011246D02*
X10072444Y-16992198D01*
X10148634Y-16906484D02*
X10148634Y-16944579D01*
X10224825Y-16906484D02*
X10224825Y-16944579D01*
X10520063Y-17182674D02*
X10510539Y-17173150D01*
X10510539Y-17173150D02*
X10491491Y-17144579D01*
X10491491Y-17144579D02*
X10481968Y-17125531D01*
X10481968Y-17125531D02*
X10472444Y-17096960D01*
X10472444Y-17096960D02*
X10462920Y-17049341D01*
X10462920Y-17049341D02*
X10462920Y-17011246D01*
X10462920Y-17011246D02*
X10472444Y-16963627D01*
X10472444Y-16963627D02*
X10481968Y-16935055D01*
X10481968Y-16935055D02*
X10491491Y-16916008D01*
X10491491Y-16916008D02*
X10510539Y-16887436D01*
X10510539Y-16887436D02*
X10520063Y-16877912D01*
X10681968Y-16973150D02*
X10681968Y-17106484D01*
X10634349Y-16896960D02*
X10586730Y-17039817D01*
X10586730Y-17039817D02*
X10710539Y-17039817D01*
X10939111Y-17106484D02*
X10939111Y-16906484D01*
X11024825Y-17106484D02*
X11024825Y-17001722D01*
X11024825Y-17001722D02*
X11015301Y-16982674D01*
X11015301Y-16982674D02*
X10996253Y-16973150D01*
X10996253Y-16973150D02*
X10967682Y-16973150D01*
X10967682Y-16973150D02*
X10948634Y-16982674D01*
X10948634Y-16982674D02*
X10939111Y-16992198D01*
X11148634Y-17106484D02*
X11129587Y-17096960D01*
X11129587Y-17096960D02*
X11120063Y-17087436D01*
X11120063Y-17087436D02*
X11110539Y-17068389D01*
X11110539Y-17068389D02*
X11110539Y-17011246D01*
X11110539Y-17011246D02*
X11120063Y-16992198D01*
X11120063Y-16992198D02*
X11129587Y-16982674D01*
X11129587Y-16982674D02*
X11148634Y-16973150D01*
X11148634Y-16973150D02*
X11177206Y-16973150D01*
X11177206Y-16973150D02*
X11196253Y-16982674D01*
X11196253Y-16982674D02*
X11205777Y-16992198D01*
X11205777Y-16992198D02*
X11215301Y-17011246D01*
X11215301Y-17011246D02*
X11215301Y-17068389D01*
X11215301Y-17068389D02*
X11205777Y-17087436D01*
X11205777Y-17087436D02*
X11196253Y-17096960D01*
X11196253Y-17096960D02*
X11177206Y-17106484D01*
X11177206Y-17106484D02*
X11148634Y-17106484D01*
X11329587Y-17106484D02*
X11310539Y-17096960D01*
X11310539Y-17096960D02*
X11301015Y-17077912D01*
X11301015Y-17077912D02*
X11301015Y-16906484D01*
X11481968Y-17096960D02*
X11462920Y-17106484D01*
X11462920Y-17106484D02*
X11424825Y-17106484D01*
X11424825Y-17106484D02*
X11405777Y-17096960D01*
X11405777Y-17096960D02*
X11396253Y-17077912D01*
X11396253Y-17077912D02*
X11396253Y-17001722D01*
X11396253Y-17001722D02*
X11405777Y-16982674D01*
X11405777Y-16982674D02*
X11424825Y-16973150D01*
X11424825Y-16973150D02*
X11462920Y-16973150D01*
X11462920Y-16973150D02*
X11481968Y-16982674D01*
X11481968Y-16982674D02*
X11491491Y-17001722D01*
X11491491Y-17001722D02*
X11491491Y-17020770D01*
X11491491Y-17020770D02*
X11396253Y-17039817D01*
X11567682Y-17096960D02*
X11586730Y-17106484D01*
X11586730Y-17106484D02*
X11624825Y-17106484D01*
X11624825Y-17106484D02*
X11643872Y-17096960D01*
X11643872Y-17096960D02*
X11653396Y-17077912D01*
X11653396Y-17077912D02*
X11653396Y-17068389D01*
X11653396Y-17068389D02*
X11643872Y-17049341D01*
X11643872Y-17049341D02*
X11624825Y-17039817D01*
X11624825Y-17039817D02*
X11596253Y-17039817D01*
X11596253Y-17039817D02*
X11577206Y-17030293D01*
X11577206Y-17030293D02*
X11567682Y-17011246D01*
X11567682Y-17011246D02*
X11567682Y-17001722D01*
X11567682Y-17001722D02*
X11577206Y-16982674D01*
X11577206Y-16982674D02*
X11596253Y-16973150D01*
X11596253Y-16973150D02*
X11624825Y-16973150D01*
X11624825Y-16973150D02*
X11643872Y-16982674D01*
X11720063Y-17182674D02*
X11729587Y-17173150D01*
X11729587Y-17173150D02*
X11748634Y-17144579D01*
X11748634Y-17144579D02*
X11758158Y-17125531D01*
X11758158Y-17125531D02*
X11767682Y-17096960D01*
X11767682Y-17096960D02*
X11777206Y-17049341D01*
X11777206Y-17049341D02*
X11777206Y-17011246D01*
X11777206Y-17011246D02*
X11767682Y-16963627D01*
X11767682Y-16963627D02*
X11758158Y-16935055D01*
X11758158Y-16935055D02*
X11748634Y-16916008D01*
X11748634Y-16916008D02*
X11729587Y-16887436D01*
X11729587Y-16887436D02*
X11720063Y-16877912D01*
X12081968Y-17182674D02*
X12072444Y-17173150D01*
X12072444Y-17173150D02*
X12053396Y-17144579D01*
X12053396Y-17144579D02*
X12043872Y-17125531D01*
X12043872Y-17125531D02*
X12034349Y-17096960D01*
X12034349Y-17096960D02*
X12024825Y-17049341D01*
X12024825Y-17049341D02*
X12024825Y-17011246D01*
X12024825Y-17011246D02*
X12034349Y-16963627D01*
X12034349Y-16963627D02*
X12043872Y-16935055D01*
X12043872Y-16935055D02*
X12053396Y-16916008D01*
X12053396Y-16916008D02*
X12072444Y-16887436D01*
X12072444Y-16887436D02*
X12081968Y-16877912D01*
X12158158Y-16973150D02*
X12158158Y-17106484D01*
X12158158Y-16992198D02*
X12167682Y-16982674D01*
X12167682Y-16982674D02*
X12186730Y-16973150D01*
X12186730Y-16973150D02*
X12215301Y-16973150D01*
X12215301Y-16973150D02*
X12234349Y-16982674D01*
X12234349Y-16982674D02*
X12243872Y-17001722D01*
X12243872Y-17001722D02*
X12243872Y-17106484D01*
X12367682Y-17106484D02*
X12348634Y-17096960D01*
X12348634Y-17096960D02*
X12339111Y-17087436D01*
X12339111Y-17087436D02*
X12329587Y-17068389D01*
X12329587Y-17068389D02*
X12329587Y-17011246D01*
X12329587Y-17011246D02*
X12339111Y-16992198D01*
X12339111Y-16992198D02*
X12348634Y-16982674D01*
X12348634Y-16982674D02*
X12367682Y-16973150D01*
X12367682Y-16973150D02*
X12396253Y-16973150D01*
X12396253Y-16973150D02*
X12415301Y-16982674D01*
X12415301Y-16982674D02*
X12424825Y-16992198D01*
X12424825Y-16992198D02*
X12434349Y-17011246D01*
X12434349Y-17011246D02*
X12434349Y-17068389D01*
X12434349Y-17068389D02*
X12424825Y-17087436D01*
X12424825Y-17087436D02*
X12415301Y-17096960D01*
X12415301Y-17096960D02*
X12396253Y-17106484D01*
X12396253Y-17106484D02*
X12367682Y-17106484D01*
X12491492Y-16973150D02*
X12567682Y-16973150D01*
X12520063Y-16906484D02*
X12520063Y-17077912D01*
X12520063Y-17077912D02*
X12529587Y-17096960D01*
X12529587Y-17096960D02*
X12548634Y-17106484D01*
X12548634Y-17106484D02*
X12567682Y-17106484D01*
X12786730Y-16973150D02*
X12786730Y-17173150D01*
X12786730Y-16982674D02*
X12805777Y-16973150D01*
X12805777Y-16973150D02*
X12843873Y-16973150D01*
X12843873Y-16973150D02*
X12862920Y-16982674D01*
X12862920Y-16982674D02*
X12872444Y-16992198D01*
X12872444Y-16992198D02*
X12881968Y-17011246D01*
X12881968Y-17011246D02*
X12881968Y-17068389D01*
X12881968Y-17068389D02*
X12872444Y-17087436D01*
X12872444Y-17087436D02*
X12862920Y-17096960D01*
X12862920Y-17096960D02*
X12843873Y-17106484D01*
X12843873Y-17106484D02*
X12805777Y-17106484D01*
X12805777Y-17106484D02*
X12786730Y-17096960D01*
X12996253Y-17106484D02*
X12977206Y-17096960D01*
X12977206Y-17096960D02*
X12967682Y-17077912D01*
X12967682Y-17077912D02*
X12967682Y-16906484D01*
X13158158Y-17106484D02*
X13158158Y-17001722D01*
X13158158Y-17001722D02*
X13148634Y-16982674D01*
X13148634Y-16982674D02*
X13129587Y-16973150D01*
X13129587Y-16973150D02*
X13091492Y-16973150D01*
X13091492Y-16973150D02*
X13072444Y-16982674D01*
X13158158Y-17096960D02*
X13139111Y-17106484D01*
X13139111Y-17106484D02*
X13091492Y-17106484D01*
X13091492Y-17106484D02*
X13072444Y-17096960D01*
X13072444Y-17096960D02*
X13062920Y-17077912D01*
X13062920Y-17077912D02*
X13062920Y-17058865D01*
X13062920Y-17058865D02*
X13072444Y-17039817D01*
X13072444Y-17039817D02*
X13091492Y-17030293D01*
X13091492Y-17030293D02*
X13139111Y-17030293D01*
X13139111Y-17030293D02*
X13158158Y-17020770D01*
X13224825Y-16973150D02*
X13301015Y-16973150D01*
X13253396Y-16906484D02*
X13253396Y-17077912D01*
X13253396Y-17077912D02*
X13262920Y-17096960D01*
X13262920Y-17096960D02*
X13281968Y-17106484D01*
X13281968Y-17106484D02*
X13301015Y-17106484D01*
X13443873Y-17096960D02*
X13424825Y-17106484D01*
X13424825Y-17106484D02*
X13386730Y-17106484D01*
X13386730Y-17106484D02*
X13367682Y-17096960D01*
X13367682Y-17096960D02*
X13358158Y-17077912D01*
X13358158Y-17077912D02*
X13358158Y-17001722D01*
X13358158Y-17001722D02*
X13367682Y-16982674D01*
X13367682Y-16982674D02*
X13386730Y-16973150D01*
X13386730Y-16973150D02*
X13424825Y-16973150D01*
X13424825Y-16973150D02*
X13443873Y-16982674D01*
X13443873Y-16982674D02*
X13453396Y-17001722D01*
X13453396Y-17001722D02*
X13453396Y-17020770D01*
X13453396Y-17020770D02*
X13358158Y-17039817D01*
X13624825Y-17106484D02*
X13624825Y-16906484D01*
X13624825Y-17096960D02*
X13605777Y-17106484D01*
X13605777Y-17106484D02*
X13567682Y-17106484D01*
X13567682Y-17106484D02*
X13548634Y-17096960D01*
X13548634Y-17096960D02*
X13539111Y-17087436D01*
X13539111Y-17087436D02*
X13529587Y-17068389D01*
X13529587Y-17068389D02*
X13529587Y-17011246D01*
X13529587Y-17011246D02*
X13539111Y-16992198D01*
X13539111Y-16992198D02*
X13548634Y-16982674D01*
X13548634Y-16982674D02*
X13567682Y-16973150D01*
X13567682Y-16973150D02*
X13605777Y-16973150D01*
X13605777Y-16973150D02*
X13624825Y-16982674D01*
X13701015Y-17182674D02*
X13710539Y-17173150D01*
X13710539Y-17173150D02*
X13729587Y-17144579D01*
X13729587Y-17144579D02*
X13739111Y-17125531D01*
X13739111Y-17125531D02*
X13748634Y-17096960D01*
X13748634Y-17096960D02*
X13758158Y-17049341D01*
X13758158Y-17049341D02*
X13758158Y-17011246D01*
X13758158Y-17011246D02*
X13748634Y-16963627D01*
X13748634Y-16963627D02*
X13739111Y-16935055D01*
X13739111Y-16935055D02*
X13729587Y-16916008D01*
X13729587Y-16916008D02*
X13710539Y-16887436D01*
X13710539Y-16887436D02*
X13701015Y-16877912D01*
X6845000Y-17215000D02*
X6845000Y-17415000D01*
X6745000Y-17315000D02*
X6945000Y-17315000D01*
X7186729Y-17206484D02*
X7310539Y-17206484D01*
X7310539Y-17206484D02*
X7243872Y-17282674D01*
X7243872Y-17282674D02*
X7272443Y-17282674D01*
X7272443Y-17282674D02*
X7291491Y-17292198D01*
X7291491Y-17292198D02*
X7301015Y-17301722D01*
X7301015Y-17301722D02*
X7310539Y-17320770D01*
X7310539Y-17320770D02*
X7310539Y-17368389D01*
X7310539Y-17368389D02*
X7301015Y-17387436D01*
X7301015Y-17387436D02*
X7291491Y-17396960D01*
X7291491Y-17396960D02*
X7272443Y-17406484D01*
X7272443Y-17406484D02*
X7215301Y-17406484D01*
X7215301Y-17406484D02*
X7196253Y-17396960D01*
X7196253Y-17396960D02*
X7186729Y-17387436D01*
X7396253Y-17387436D02*
X7405777Y-17396960D01*
X7405777Y-17396960D02*
X7396253Y-17406484D01*
X7396253Y-17406484D02*
X7386729Y-17396960D01*
X7386729Y-17396960D02*
X7396253Y-17387436D01*
X7396253Y-17387436D02*
X7396253Y-17406484D01*
X7481967Y-17225531D02*
X7491491Y-17216008D01*
X7491491Y-17216008D02*
X7510539Y-17206484D01*
X7510539Y-17206484D02*
X7558158Y-17206484D01*
X7558158Y-17206484D02*
X7577205Y-17216008D01*
X7577205Y-17216008D02*
X7586729Y-17225531D01*
X7586729Y-17225531D02*
X7596253Y-17244579D01*
X7596253Y-17244579D02*
X7596253Y-17263627D01*
X7596253Y-17263627D02*
X7586729Y-17292198D01*
X7586729Y-17292198D02*
X7472443Y-17406484D01*
X7472443Y-17406484D02*
X7596253Y-17406484D01*
X7777205Y-17206484D02*
X7681967Y-17206484D01*
X7681967Y-17206484D02*
X7672443Y-17301722D01*
X7672443Y-17301722D02*
X7681967Y-17292198D01*
X7681967Y-17292198D02*
X7701015Y-17282674D01*
X7701015Y-17282674D02*
X7748634Y-17282674D01*
X7748634Y-17282674D02*
X7767682Y-17292198D01*
X7767682Y-17292198D02*
X7777205Y-17301722D01*
X7777205Y-17301722D02*
X7786729Y-17320770D01*
X7786729Y-17320770D02*
X7786729Y-17368389D01*
X7786729Y-17368389D02*
X7777205Y-17387436D01*
X7777205Y-17387436D02*
X7767682Y-17396960D01*
X7767682Y-17396960D02*
X7748634Y-17406484D01*
X7748634Y-17406484D02*
X7701015Y-17406484D01*
X7701015Y-17406484D02*
X7681967Y-17396960D01*
X7681967Y-17396960D02*
X7672443Y-17387436D01*
X7910539Y-17206484D02*
X7929586Y-17206484D01*
X7929586Y-17206484D02*
X7948634Y-17216008D01*
X7948634Y-17216008D02*
X7958158Y-17225531D01*
X7958158Y-17225531D02*
X7967682Y-17244579D01*
X7967682Y-17244579D02*
X7977205Y-17282674D01*
X7977205Y-17282674D02*
X7977205Y-17330293D01*
X7977205Y-17330293D02*
X7967682Y-17368389D01*
X7967682Y-17368389D02*
X7958158Y-17387436D01*
X7958158Y-17387436D02*
X7948634Y-17396960D01*
X7948634Y-17396960D02*
X7929586Y-17406484D01*
X7929586Y-17406484D02*
X7910539Y-17406484D01*
X7910539Y-17406484D02*
X7891491Y-17396960D01*
X7891491Y-17396960D02*
X7881967Y-17387436D01*
X7881967Y-17387436D02*
X7872443Y-17368389D01*
X7872443Y-17368389D02*
X7862920Y-17330293D01*
X7862920Y-17330293D02*
X7862920Y-17282674D01*
X7862920Y-17282674D02*
X7872443Y-17244579D01*
X7872443Y-17244579D02*
X7881967Y-17225531D01*
X7881967Y-17225531D02*
X7891491Y-17216008D01*
X7891491Y-17216008D02*
X7910539Y-17206484D01*
X8062920Y-17406484D02*
X8062920Y-17273150D01*
X8062920Y-17292198D02*
X8072443Y-17282674D01*
X8072443Y-17282674D02*
X8091491Y-17273150D01*
X8091491Y-17273150D02*
X8120063Y-17273150D01*
X8120063Y-17273150D02*
X8139110Y-17282674D01*
X8139110Y-17282674D02*
X8148634Y-17301722D01*
X8148634Y-17301722D02*
X8148634Y-17406484D01*
X8148634Y-17301722D02*
X8158158Y-17282674D01*
X8158158Y-17282674D02*
X8177205Y-17273150D01*
X8177205Y-17273150D02*
X8205777Y-17273150D01*
X8205777Y-17273150D02*
X8224824Y-17282674D01*
X8224824Y-17282674D02*
X8234348Y-17301722D01*
X8234348Y-17301722D02*
X8234348Y-17406484D01*
X8329586Y-17406484D02*
X8329586Y-17273150D01*
X8329586Y-17292198D02*
X8339110Y-17282674D01*
X8339110Y-17282674D02*
X8358158Y-17273150D01*
X8358158Y-17273150D02*
X8386729Y-17273150D01*
X8386729Y-17273150D02*
X8405777Y-17282674D01*
X8405777Y-17282674D02*
X8415301Y-17301722D01*
X8415301Y-17301722D02*
X8415301Y-17406484D01*
X8415301Y-17301722D02*
X8424825Y-17282674D01*
X8424825Y-17282674D02*
X8443872Y-17273150D01*
X8443872Y-17273150D02*
X8472444Y-17273150D01*
X8472444Y-17273150D02*
X8491491Y-17282674D01*
X8491491Y-17282674D02*
X8501015Y-17301722D01*
X8501015Y-17301722D02*
X8501015Y-17406484D01*
X8891491Y-17196960D02*
X8720063Y-17454103D01*
X9148634Y-17206484D02*
X9167682Y-17206484D01*
X9167682Y-17206484D02*
X9186729Y-17216008D01*
X9186729Y-17216008D02*
X9196253Y-17225531D01*
X9196253Y-17225531D02*
X9205777Y-17244579D01*
X9205777Y-17244579D02*
X9215301Y-17282674D01*
X9215301Y-17282674D02*
X9215301Y-17330293D01*
X9215301Y-17330293D02*
X9205777Y-17368389D01*
X9205777Y-17368389D02*
X9196253Y-17387436D01*
X9196253Y-17387436D02*
X9186729Y-17396960D01*
X9186729Y-17396960D02*
X9167682Y-17406484D01*
X9167682Y-17406484D02*
X9148634Y-17406484D01*
X9148634Y-17406484D02*
X9129587Y-17396960D01*
X9129587Y-17396960D02*
X9120063Y-17387436D01*
X9120063Y-17387436D02*
X9110539Y-17368389D01*
X9110539Y-17368389D02*
X9101015Y-17330293D01*
X9101015Y-17330293D02*
X9101015Y-17282674D01*
X9101015Y-17282674D02*
X9110539Y-17244579D01*
X9110539Y-17244579D02*
X9120063Y-17225531D01*
X9120063Y-17225531D02*
X9129587Y-17216008D01*
X9129587Y-17216008D02*
X9148634Y-17206484D01*
X9301015Y-17387436D02*
X9310539Y-17396960D01*
X9310539Y-17396960D02*
X9301015Y-17406484D01*
X9301015Y-17406484D02*
X9291491Y-17396960D01*
X9291491Y-17396960D02*
X9301015Y-17387436D01*
X9301015Y-17387436D02*
X9301015Y-17406484D01*
X9501015Y-17406484D02*
X9386729Y-17406484D01*
X9443872Y-17406484D02*
X9443872Y-17206484D01*
X9443872Y-17206484D02*
X9424825Y-17235055D01*
X9424825Y-17235055D02*
X9405777Y-17254103D01*
X9405777Y-17254103D02*
X9386729Y-17263627D01*
X9577206Y-17225531D02*
X9586729Y-17216008D01*
X9586729Y-17216008D02*
X9605777Y-17206484D01*
X9605777Y-17206484D02*
X9653396Y-17206484D01*
X9653396Y-17206484D02*
X9672444Y-17216008D01*
X9672444Y-17216008D02*
X9681968Y-17225531D01*
X9681968Y-17225531D02*
X9691491Y-17244579D01*
X9691491Y-17244579D02*
X9691491Y-17263627D01*
X9691491Y-17263627D02*
X9681968Y-17292198D01*
X9681968Y-17292198D02*
X9567682Y-17406484D01*
X9567682Y-17406484D02*
X9691491Y-17406484D01*
X9805777Y-17292198D02*
X9786729Y-17282674D01*
X9786729Y-17282674D02*
X9777206Y-17273150D01*
X9777206Y-17273150D02*
X9767682Y-17254103D01*
X9767682Y-17254103D02*
X9767682Y-17244579D01*
X9767682Y-17244579D02*
X9777206Y-17225531D01*
X9777206Y-17225531D02*
X9786729Y-17216008D01*
X9786729Y-17216008D02*
X9805777Y-17206484D01*
X9805777Y-17206484D02*
X9843872Y-17206484D01*
X9843872Y-17206484D02*
X9862920Y-17216008D01*
X9862920Y-17216008D02*
X9872444Y-17225531D01*
X9872444Y-17225531D02*
X9881968Y-17244579D01*
X9881968Y-17244579D02*
X9881968Y-17254103D01*
X9881968Y-17254103D02*
X9872444Y-17273150D01*
X9872444Y-17273150D02*
X9862920Y-17282674D01*
X9862920Y-17282674D02*
X9843872Y-17292198D01*
X9843872Y-17292198D02*
X9805777Y-17292198D01*
X9805777Y-17292198D02*
X9786729Y-17301722D01*
X9786729Y-17301722D02*
X9777206Y-17311246D01*
X9777206Y-17311246D02*
X9767682Y-17330293D01*
X9767682Y-17330293D02*
X9767682Y-17368389D01*
X9767682Y-17368389D02*
X9777206Y-17387436D01*
X9777206Y-17387436D02*
X9786729Y-17396960D01*
X9786729Y-17396960D02*
X9805777Y-17406484D01*
X9805777Y-17406484D02*
X9843872Y-17406484D01*
X9843872Y-17406484D02*
X9862920Y-17396960D01*
X9862920Y-17396960D02*
X9872444Y-17387436D01*
X9872444Y-17387436D02*
X9881968Y-17368389D01*
X9881968Y-17368389D02*
X9881968Y-17330293D01*
X9881968Y-17330293D02*
X9872444Y-17311246D01*
X9872444Y-17311246D02*
X9862920Y-17301722D01*
X9862920Y-17301722D02*
X9843872Y-17292198D01*
X10005777Y-17206484D02*
X10024825Y-17206484D01*
X10024825Y-17206484D02*
X10043872Y-17216008D01*
X10043872Y-17216008D02*
X10053396Y-17225531D01*
X10053396Y-17225531D02*
X10062920Y-17244579D01*
X10062920Y-17244579D02*
X10072444Y-17282674D01*
X10072444Y-17282674D02*
X10072444Y-17330293D01*
X10072444Y-17330293D02*
X10062920Y-17368389D01*
X10062920Y-17368389D02*
X10053396Y-17387436D01*
X10053396Y-17387436D02*
X10043872Y-17396960D01*
X10043872Y-17396960D02*
X10024825Y-17406484D01*
X10024825Y-17406484D02*
X10005777Y-17406484D01*
X10005777Y-17406484D02*
X9986729Y-17396960D01*
X9986729Y-17396960D02*
X9977206Y-17387436D01*
X9977206Y-17387436D02*
X9967682Y-17368389D01*
X9967682Y-17368389D02*
X9958158Y-17330293D01*
X9958158Y-17330293D02*
X9958158Y-17282674D01*
X9958158Y-17282674D02*
X9967682Y-17244579D01*
X9967682Y-17244579D02*
X9977206Y-17225531D01*
X9977206Y-17225531D02*
X9986729Y-17216008D01*
X9986729Y-17216008D02*
X10005777Y-17206484D01*
X10148634Y-17206484D02*
X10148634Y-17244579D01*
X10224825Y-17206484D02*
X10224825Y-17244579D01*
X10520063Y-17482674D02*
X10510539Y-17473150D01*
X10510539Y-17473150D02*
X10491491Y-17444579D01*
X10491491Y-17444579D02*
X10481968Y-17425531D01*
X10481968Y-17425531D02*
X10472444Y-17396960D01*
X10472444Y-17396960D02*
X10462920Y-17349341D01*
X10462920Y-17349341D02*
X10462920Y-17311246D01*
X10462920Y-17311246D02*
X10472444Y-17263627D01*
X10472444Y-17263627D02*
X10481968Y-17235055D01*
X10481968Y-17235055D02*
X10491491Y-17216008D01*
X10491491Y-17216008D02*
X10510539Y-17187436D01*
X10510539Y-17187436D02*
X10520063Y-17177912D01*
X10681968Y-17273150D02*
X10681968Y-17406484D01*
X10634349Y-17196960D02*
X10586730Y-17339817D01*
X10586730Y-17339817D02*
X10710539Y-17339817D01*
X10939111Y-17406484D02*
X10939111Y-17206484D01*
X11024825Y-17406484D02*
X11024825Y-17301722D01*
X11024825Y-17301722D02*
X11015301Y-17282674D01*
X11015301Y-17282674D02*
X10996253Y-17273150D01*
X10996253Y-17273150D02*
X10967682Y-17273150D01*
X10967682Y-17273150D02*
X10948634Y-17282674D01*
X10948634Y-17282674D02*
X10939111Y-17292198D01*
X11148634Y-17406484D02*
X11129587Y-17396960D01*
X11129587Y-17396960D02*
X11120063Y-17387436D01*
X11120063Y-17387436D02*
X11110539Y-17368389D01*
X11110539Y-17368389D02*
X11110539Y-17311246D01*
X11110539Y-17311246D02*
X11120063Y-17292198D01*
X11120063Y-17292198D02*
X11129587Y-17282674D01*
X11129587Y-17282674D02*
X11148634Y-17273150D01*
X11148634Y-17273150D02*
X11177206Y-17273150D01*
X11177206Y-17273150D02*
X11196253Y-17282674D01*
X11196253Y-17282674D02*
X11205777Y-17292198D01*
X11205777Y-17292198D02*
X11215301Y-17311246D01*
X11215301Y-17311246D02*
X11215301Y-17368389D01*
X11215301Y-17368389D02*
X11205777Y-17387436D01*
X11205777Y-17387436D02*
X11196253Y-17396960D01*
X11196253Y-17396960D02*
X11177206Y-17406484D01*
X11177206Y-17406484D02*
X11148634Y-17406484D01*
X11329587Y-17406484D02*
X11310539Y-17396960D01*
X11310539Y-17396960D02*
X11301015Y-17377912D01*
X11301015Y-17377912D02*
X11301015Y-17206484D01*
X11481968Y-17396960D02*
X11462920Y-17406484D01*
X11462920Y-17406484D02*
X11424825Y-17406484D01*
X11424825Y-17406484D02*
X11405777Y-17396960D01*
X11405777Y-17396960D02*
X11396253Y-17377912D01*
X11396253Y-17377912D02*
X11396253Y-17301722D01*
X11396253Y-17301722D02*
X11405777Y-17282674D01*
X11405777Y-17282674D02*
X11424825Y-17273150D01*
X11424825Y-17273150D02*
X11462920Y-17273150D01*
X11462920Y-17273150D02*
X11481968Y-17282674D01*
X11481968Y-17282674D02*
X11491491Y-17301722D01*
X11491491Y-17301722D02*
X11491491Y-17320770D01*
X11491491Y-17320770D02*
X11396253Y-17339817D01*
X11567682Y-17396960D02*
X11586730Y-17406484D01*
X11586730Y-17406484D02*
X11624825Y-17406484D01*
X11624825Y-17406484D02*
X11643872Y-17396960D01*
X11643872Y-17396960D02*
X11653396Y-17377912D01*
X11653396Y-17377912D02*
X11653396Y-17368389D01*
X11653396Y-17368389D02*
X11643872Y-17349341D01*
X11643872Y-17349341D02*
X11624825Y-17339817D01*
X11624825Y-17339817D02*
X11596253Y-17339817D01*
X11596253Y-17339817D02*
X11577206Y-17330293D01*
X11577206Y-17330293D02*
X11567682Y-17311246D01*
X11567682Y-17311246D02*
X11567682Y-17301722D01*
X11567682Y-17301722D02*
X11577206Y-17282674D01*
X11577206Y-17282674D02*
X11596253Y-17273150D01*
X11596253Y-17273150D02*
X11624825Y-17273150D01*
X11624825Y-17273150D02*
X11643872Y-17282674D01*
X11720063Y-17482674D02*
X11729587Y-17473150D01*
X11729587Y-17473150D02*
X11748634Y-17444579D01*
X11748634Y-17444579D02*
X11758158Y-17425531D01*
X11758158Y-17425531D02*
X11767682Y-17396960D01*
X11767682Y-17396960D02*
X11777206Y-17349341D01*
X11777206Y-17349341D02*
X11777206Y-17311246D01*
X11777206Y-17311246D02*
X11767682Y-17263627D01*
X11767682Y-17263627D02*
X11758158Y-17235055D01*
X11758158Y-17235055D02*
X11748634Y-17216008D01*
X11748634Y-17216008D02*
X11729587Y-17187436D01*
X11729587Y-17187436D02*
X11720063Y-17177912D01*
X12081968Y-17482674D02*
X12072444Y-17473150D01*
X12072444Y-17473150D02*
X12053396Y-17444579D01*
X12053396Y-17444579D02*
X12043872Y-17425531D01*
X12043872Y-17425531D02*
X12034349Y-17396960D01*
X12034349Y-17396960D02*
X12024825Y-17349341D01*
X12024825Y-17349341D02*
X12024825Y-17311246D01*
X12024825Y-17311246D02*
X12034349Y-17263627D01*
X12034349Y-17263627D02*
X12043872Y-17235055D01*
X12043872Y-17235055D02*
X12053396Y-17216008D01*
X12053396Y-17216008D02*
X12072444Y-17187436D01*
X12072444Y-17187436D02*
X12081968Y-17177912D01*
X12158158Y-17273150D02*
X12158158Y-17406484D01*
X12158158Y-17292198D02*
X12167682Y-17282674D01*
X12167682Y-17282674D02*
X12186730Y-17273150D01*
X12186730Y-17273150D02*
X12215301Y-17273150D01*
X12215301Y-17273150D02*
X12234349Y-17282674D01*
X12234349Y-17282674D02*
X12243872Y-17301722D01*
X12243872Y-17301722D02*
X12243872Y-17406484D01*
X12367682Y-17406484D02*
X12348634Y-17396960D01*
X12348634Y-17396960D02*
X12339111Y-17387436D01*
X12339111Y-17387436D02*
X12329587Y-17368389D01*
X12329587Y-17368389D02*
X12329587Y-17311246D01*
X12329587Y-17311246D02*
X12339111Y-17292198D01*
X12339111Y-17292198D02*
X12348634Y-17282674D01*
X12348634Y-17282674D02*
X12367682Y-17273150D01*
X12367682Y-17273150D02*
X12396253Y-17273150D01*
X12396253Y-17273150D02*
X12415301Y-17282674D01*
X12415301Y-17282674D02*
X12424825Y-17292198D01*
X12424825Y-17292198D02*
X12434349Y-17311246D01*
X12434349Y-17311246D02*
X12434349Y-17368389D01*
X12434349Y-17368389D02*
X12424825Y-17387436D01*
X12424825Y-17387436D02*
X12415301Y-17396960D01*
X12415301Y-17396960D02*
X12396253Y-17406484D01*
X12396253Y-17406484D02*
X12367682Y-17406484D01*
X12491492Y-17273150D02*
X12567682Y-17273150D01*
X12520063Y-17206484D02*
X12520063Y-17377912D01*
X12520063Y-17377912D02*
X12529587Y-17396960D01*
X12529587Y-17396960D02*
X12548634Y-17406484D01*
X12548634Y-17406484D02*
X12567682Y-17406484D01*
X12786730Y-17273150D02*
X12786730Y-17473150D01*
X12786730Y-17282674D02*
X12805777Y-17273150D01*
X12805777Y-17273150D02*
X12843873Y-17273150D01*
X12843873Y-17273150D02*
X12862920Y-17282674D01*
X12862920Y-17282674D02*
X12872444Y-17292198D01*
X12872444Y-17292198D02*
X12881968Y-17311246D01*
X12881968Y-17311246D02*
X12881968Y-17368389D01*
X12881968Y-17368389D02*
X12872444Y-17387436D01*
X12872444Y-17387436D02*
X12862920Y-17396960D01*
X12862920Y-17396960D02*
X12843873Y-17406484D01*
X12843873Y-17406484D02*
X12805777Y-17406484D01*
X12805777Y-17406484D02*
X12786730Y-17396960D01*
X12996253Y-17406484D02*
X12977206Y-17396960D01*
X12977206Y-17396960D02*
X12967682Y-17377912D01*
X12967682Y-17377912D02*
X12967682Y-17206484D01*
X13158158Y-17406484D02*
X13158158Y-17301722D01*
X13158158Y-17301722D02*
X13148634Y-17282674D01*
X13148634Y-17282674D02*
X13129587Y-17273150D01*
X13129587Y-17273150D02*
X13091492Y-17273150D01*
X13091492Y-17273150D02*
X13072444Y-17282674D01*
X13158158Y-17396960D02*
X13139111Y-17406484D01*
X13139111Y-17406484D02*
X13091492Y-17406484D01*
X13091492Y-17406484D02*
X13072444Y-17396960D01*
X13072444Y-17396960D02*
X13062920Y-17377912D01*
X13062920Y-17377912D02*
X13062920Y-17358865D01*
X13062920Y-17358865D02*
X13072444Y-17339817D01*
X13072444Y-17339817D02*
X13091492Y-17330293D01*
X13091492Y-17330293D02*
X13139111Y-17330293D01*
X13139111Y-17330293D02*
X13158158Y-17320770D01*
X13224825Y-17273150D02*
X13301015Y-17273150D01*
X13253396Y-17206484D02*
X13253396Y-17377912D01*
X13253396Y-17377912D02*
X13262920Y-17396960D01*
X13262920Y-17396960D02*
X13281968Y-17406484D01*
X13281968Y-17406484D02*
X13301015Y-17406484D01*
X13443873Y-17396960D02*
X13424825Y-17406484D01*
X13424825Y-17406484D02*
X13386730Y-17406484D01*
X13386730Y-17406484D02*
X13367682Y-17396960D01*
X13367682Y-17396960D02*
X13358158Y-17377912D01*
X13358158Y-17377912D02*
X13358158Y-17301722D01*
X13358158Y-17301722D02*
X13367682Y-17282674D01*
X13367682Y-17282674D02*
X13386730Y-17273150D01*
X13386730Y-17273150D02*
X13424825Y-17273150D01*
X13424825Y-17273150D02*
X13443873Y-17282674D01*
X13443873Y-17282674D02*
X13453396Y-17301722D01*
X13453396Y-17301722D02*
X13453396Y-17320770D01*
X13453396Y-17320770D02*
X13358158Y-17339817D01*
X13624825Y-17406484D02*
X13624825Y-17206484D01*
X13624825Y-17396960D02*
X13605777Y-17406484D01*
X13605777Y-17406484D02*
X13567682Y-17406484D01*
X13567682Y-17406484D02*
X13548634Y-17396960D01*
X13548634Y-17396960D02*
X13539111Y-17387436D01*
X13539111Y-17387436D02*
X13529587Y-17368389D01*
X13529587Y-17368389D02*
X13529587Y-17311246D01*
X13529587Y-17311246D02*
X13539111Y-17292198D01*
X13539111Y-17292198D02*
X13548634Y-17282674D01*
X13548634Y-17282674D02*
X13567682Y-17273150D01*
X13567682Y-17273150D02*
X13605777Y-17273150D01*
X13605777Y-17273150D02*
X13624825Y-17282674D01*
X13701015Y-17482674D02*
X13710539Y-17473150D01*
X13710539Y-17473150D02*
X13729587Y-17444579D01*
X13729587Y-17444579D02*
X13739111Y-17425531D01*
X13739111Y-17425531D02*
X13748634Y-17396960D01*
X13748634Y-17396960D02*
X13758158Y-17349341D01*
X13758158Y-17349341D02*
X13758158Y-17311246D01*
X13758158Y-17311246D02*
X13748634Y-17263627D01*
X13748634Y-17263627D02*
X13739111Y-17235055D01*
X13739111Y-17235055D02*
X13729587Y-17216008D01*
X13729587Y-17216008D02*
X13710539Y-17187436D01*
X13710539Y-17187436D02*
X13701015Y-17177912D01*
M02*
