M48
; DRILL file {KiCad 7.0.7} date 2025 January 13, Monday 16:20:24
; FORMAT={-:-/ absolute / inch / decimal}
; #@! TF.CreationDate,2025-01-13T16:20:24+01:00
; #@! TF.GenerationSoftware,Kicad,Pcbnew,7.0.7
; #@! TF.FileFunction,Plated,1,2,PTH
FMAT,2
INCH
; #@! TA.AperFunction,Plated,PTH,ViaDrill
T1C0.0118
; #@! TA.AperFunction,Plated,PTH,ComponentDrill
T2C0.0350
; #@! TA.AperFunction,Plated,PTH,ComponentDrill
T3C0.0394
; #@! TA.AperFunction,Plated,PTH,ComponentDrill
T4C0.0402
; #@! TA.AperFunction,Plated,PTH,ComponentDrill
T5C0.0433
; #@! TA.AperFunction,Plated,PTH,ComponentDrill
T6C0.0598
; #@! TA.AperFunction,Plated,PTH,ComponentDrill
T7C0.0618
%
G90
G05
T1
X3.0748Y-3.4803
X3.2795Y-3.6102
X3.374Y-2.8307
X3.3898Y-3.0236
X3.4055Y-3.3504
X3.6535Y-2.2756
X3.7165Y-2.5
X3.7795Y-2.6378
X3.7795Y-2.6811
X4.2795Y-2.4528
X4.3494Y-2.5157
X4.3701Y-4.1732
X4.3858Y-2.5197
X4.7008Y-2.0197
X4.7205Y-3.2953
T2
X3.272Y-2.5131
X3.272Y-2.5931
X3.272Y-2.6731
X3.272Y-2.7531
X3.272Y-3.3006
X3.272Y-3.3806
X3.272Y-3.4606
X3.272Y-3.5406
X3.3421Y-2.4731
X3.3421Y-2.5531
X3.3421Y-2.6331
X3.3421Y-2.7131
X3.3421Y-3.2606
X3.3421Y-3.3406
X3.3421Y-3.4206
X3.3421Y-3.5006
T3
X4.2628Y-5.2425
X4.2628Y-5.3425
X4.2628Y-5.4425
X4.2628Y-5.5425
X4.2628Y-5.6425
X4.2628Y-5.7425
X4.2628Y-5.8425
X4.2638Y-4.1087
X4.2638Y-4.2087
X4.2638Y-4.3087
X4.2638Y-4.4087
X4.2638Y-4.5087
X4.2638Y-4.6087
X4.2638Y-4.7087
T4
X4.6091Y-1.7705
X4.6091Y-1.8705
X4.6091Y-1.9705
X4.6091Y-2.0705
X4.6091Y-2.1705
X4.6091Y-2.2705
X4.6091Y-2.3705
X4.6091Y-2.4705
X4.6091Y-2.5705
X4.6091Y-2.6705
X4.6091Y-2.7705
X4.6091Y-2.8705
X4.6091Y-2.9705
X4.6091Y-3.0705
X4.6091Y-3.1705
X4.6091Y-3.2705
X4.6091Y-3.3705
X4.6091Y-3.4705
X4.6091Y-3.5705
X4.6091Y-3.6705
X4.611Y-4.0827
X4.611Y-4.1827
X4.611Y-4.2827
X4.611Y-4.3827
X4.611Y-4.4827
X4.611Y-4.5827
X4.611Y-4.6827
X4.611Y-4.7827
X4.611Y-4.8827
X4.611Y-4.9827
X4.611Y-5.0827
X4.611Y-5.1827
X4.611Y-5.2827
X4.611Y-5.3827
X4.611Y-5.4827
X4.611Y-5.5827
X4.611Y-5.6827
X4.611Y-5.7827
X4.611Y-5.8827
X4.611Y-5.9827
X4.8591Y-3.6614
X4.861Y-4.0917
X4.9591Y-3.6614
X4.961Y-4.0917
X5.0591Y-3.6614
X5.061Y-4.0917
X5.3091Y-1.7705
X5.3091Y-1.8705
X5.3091Y-1.9705
X5.3091Y-2.0705
X5.3091Y-2.1705
X5.3091Y-2.2705
X5.3091Y-2.3705
X5.3091Y-2.4705
X5.3091Y-2.5705
X5.3091Y-2.6705
X5.3091Y-2.7705
X5.3091Y-2.8705
X5.3091Y-2.9705
X5.3091Y-3.0705
X5.3091Y-3.1705
X5.3091Y-3.2705
X5.3091Y-3.3705
X5.3091Y-3.4705
X5.3091Y-3.5705
X5.3091Y-3.6705
X5.311Y-4.0827
X5.311Y-4.1827
X5.311Y-4.2827
X5.311Y-4.3827
X5.311Y-4.4827
X5.311Y-4.5827
X5.311Y-4.6827
X5.311Y-4.7827
X5.311Y-4.8827
X5.311Y-4.9827
X5.311Y-5.0827
X5.311Y-5.1827
X5.311Y-5.2827
X5.311Y-5.3827
X5.311Y-5.4827
X5.311Y-5.5827
X5.311Y-5.6827
X5.311Y-5.7827
X5.311Y-5.8827
X5.311Y-5.9827
T5
X2.9941Y-1.3917
X2.9941Y-1.5689
X3.25Y-1.3917
X3.25Y-1.5689
X3.378Y-1.3917
X3.378Y-1.5689
X3.6339Y-1.3917
X3.6339Y-1.5689
X3.7618Y-1.3917
X3.7618Y-1.5689
X3.7764Y-1.8661
X3.7764Y-2.0138
X4.0177Y-1.3917
X4.0177Y-1.5689
X4.1457Y-1.3917
X4.1457Y-1.5689
X4.1764Y-1.8661
X4.1764Y-2.0138
X4.4016Y-1.3917
X4.4016Y-1.5689
X4.5295Y-1.3917
X4.5295Y-1.5689
X4.7854Y-1.3917
X4.7854Y-1.5689
T6
X3.0906Y-1.8331
X3.0906Y-2.0331
T7
X3.3071Y-2.2929
X3.3071Y-2.9331
X3.3071Y-3.0803
X3.3071Y-3.7205
T0
M30
